%TF.GenerationSoftware,KiCad,Pcbnew,8.0.3-8.0.3-0~ubuntu22.04.1*%
%TF.CreationDate,2024-12-02T08:44:27+01:00*%
%TF.ProjectId,BreakoutboardRT9532,42726561-6b6f-4757-9462-6f6172645254,rev?*%
%TF.SameCoordinates,Original*%
%TF.FileFunction,Soldermask,Top*%
%TF.FilePolarity,Negative*%
%FSLAX46Y46*%
G04 Gerber Fmt 4.6, Leading zero omitted, Abs format (unit mm)*
G04 Created by KiCad (PCBNEW 8.0.3-8.0.3-0~ubuntu22.04.1) date 2024-12-02 08:44:27*
%MOMM*%
%LPD*%
G01*
G04 APERTURE LIST*
G04 Aperture macros list*
%AMRoundRect*
0 Rectangle with rounded corners*
0 $1 Rounding radius*
0 $2 $3 $4 $5 $6 $7 $8 $9 X,Y pos of 4 corners*
0 Add a 4 corners polygon primitive as box body*
4,1,4,$2,$3,$4,$5,$6,$7,$8,$9,$2,$3,0*
0 Add four circle primitives for the rounded corners*
1,1,$1+$1,$2,$3*
1,1,$1+$1,$4,$5*
1,1,$1+$1,$6,$7*
1,1,$1+$1,$8,$9*
0 Add four rect primitives between the rounded corners*
20,1,$1+$1,$2,$3,$4,$5,0*
20,1,$1+$1,$4,$5,$6,$7,0*
20,1,$1+$1,$6,$7,$8,$9,0*
20,1,$1+$1,$8,$9,$2,$3,0*%
G04 Aperture macros list end*
%ADD10C,0.010000*%
%ADD11RoundRect,0.225000X-0.225000X-0.250000X0.225000X-0.250000X0.225000X0.250000X-0.225000X0.250000X0*%
%ADD12RoundRect,0.225000X0.225000X0.250000X-0.225000X0.250000X-0.225000X-0.250000X0.225000X-0.250000X0*%
%ADD13RoundRect,0.200000X-0.275000X0.200000X-0.275000X-0.200000X0.275000X-0.200000X0.275000X0.200000X0*%
%ADD14R,0.300000X0.700000*%
%ADD15R,1.700000X1.000000*%
%ADD16RoundRect,0.218750X0.218750X0.256250X-0.218750X0.256250X-0.218750X-0.256250X0.218750X-0.256250X0*%
%ADD17RoundRect,0.237500X-0.300000X-0.237500X0.300000X-0.237500X0.300000X0.237500X-0.300000X0.237500X0*%
%ADD18RoundRect,0.150000X0.150000X-0.512500X0.150000X0.512500X-0.150000X0.512500X-0.150000X-0.512500X0*%
%ADD19RoundRect,0.200000X0.200000X0.275000X-0.200000X0.275000X-0.200000X-0.275000X0.200000X-0.275000X0*%
%ADD20R,0.240000X0.900000*%
%ADD21R,0.900000X0.240000*%
%ADD22R,0.900000X1.400000*%
%ADD23R,1.650000X1.650000*%
%ADD24C,1.650000*%
%ADD25R,1.700000X1.700000*%
%ADD26O,1.700000X1.700000*%
%ADD27C,0.226000*%
%ADD28RoundRect,0.237500X0.300000X0.237500X-0.300000X0.237500X-0.300000X-0.237500X0.300000X-0.237500X0*%
%ADD29RoundRect,0.200000X0.275000X-0.200000X0.275000X0.200000X-0.275000X0.200000X-0.275000X-0.200000X0*%
%ADD30R,0.600000X1.150000*%
%ADD31RoundRect,0.218750X-0.218750X-0.256250X0.218750X-0.256250X0.218750X0.256250X-0.218750X0.256250X0*%
%ADD32R,2.160000X1.520000*%
%ADD33R,1.000000X1.000000*%
%ADD34RoundRect,0.200000X-0.200000X-0.275000X0.200000X-0.275000X0.200000X0.275000X-0.200000X0.275000X0*%
%ADD35O,2.004000X1.204000*%
%ADD36O,1.804000X1.204000*%
%ADD37C,0.854000*%
%ADD38C,0.650000*%
%ADD39R,0.300000X0.750000*%
%ADD40R,2.550000X0.850000*%
%ADD41RoundRect,0.250000X1.000000X0.650000X-1.000000X0.650000X-1.000000X-0.650000X1.000000X-0.650000X0*%
%ADD42RoundRect,0.250000X-0.650000X1.000000X-0.650000X-1.000000X0.650000X-1.000000X0.650000X1.000000X0*%
G04 APERTURE END LIST*
D10*
%TO.C,J2*%
X182090000Y-57125000D02*
X181290000Y-57125000D01*
X181290000Y-56675000D01*
X182090000Y-56675000D01*
X182090000Y-57125000D01*
G36*
X182090000Y-57125000D02*
G01*
X181290000Y-57125000D01*
X181290000Y-56675000D01*
X182090000Y-56675000D01*
X182090000Y-57125000D01*
G37*
X182090000Y-57625000D02*
X181290000Y-57625000D01*
X181290000Y-57175000D01*
X182090000Y-57175000D01*
X182090000Y-57625000D01*
G36*
X182090000Y-57625000D02*
G01*
X181290000Y-57625000D01*
X181290000Y-57175000D01*
X182090000Y-57175000D01*
X182090000Y-57625000D01*
G37*
X182090000Y-58125000D02*
X181290000Y-58125000D01*
X181290000Y-57675000D01*
X182090000Y-57675000D01*
X182090000Y-58125000D01*
G36*
X182090000Y-58125000D02*
G01*
X181290000Y-58125000D01*
X181290000Y-57675000D01*
X182090000Y-57675000D01*
X182090000Y-58125000D01*
G37*
X182090000Y-58625000D02*
X181290000Y-58625000D01*
X181290000Y-58175000D01*
X182090000Y-58175000D01*
X182090000Y-58625000D01*
G36*
X182090000Y-58625000D02*
G01*
X181290000Y-58625000D01*
X181290000Y-58175000D01*
X182090000Y-58175000D01*
X182090000Y-58625000D01*
G37*
X182090000Y-59125000D02*
X181290000Y-59125000D01*
X181290000Y-58675000D01*
X182090000Y-58675000D01*
X182090000Y-59125000D01*
G36*
X182090000Y-59125000D02*
G01*
X181290000Y-59125000D01*
X181290000Y-58675000D01*
X182090000Y-58675000D01*
X182090000Y-59125000D01*
G37*
X182090000Y-59625000D02*
X181290000Y-59625000D01*
X181290000Y-59175000D01*
X182090000Y-59175000D01*
X182090000Y-59625000D01*
G36*
X182090000Y-59625000D02*
G01*
X181290000Y-59625000D01*
X181290000Y-59175000D01*
X182090000Y-59175000D01*
X182090000Y-59625000D01*
G37*
X182090000Y-60125000D02*
X181290000Y-60125000D01*
X181290000Y-59675000D01*
X182090000Y-59675000D01*
X182090000Y-60125000D01*
G36*
X182090000Y-60125000D02*
G01*
X181290000Y-60125000D01*
X181290000Y-59675000D01*
X182090000Y-59675000D01*
X182090000Y-60125000D01*
G37*
X182090000Y-56625000D02*
X181290000Y-56625000D01*
X181290000Y-56175000D01*
X182090000Y-56175000D01*
X182090000Y-56625000D01*
G36*
X182090000Y-56625000D02*
G01*
X181290000Y-56625000D01*
X181290000Y-56175000D01*
X182090000Y-56175000D01*
X182090000Y-56625000D01*
G37*
X182090000Y-56125000D02*
X181290000Y-56125000D01*
X181290000Y-55675000D01*
X182090000Y-55675000D01*
X182090000Y-56125000D01*
G36*
X182090000Y-56125000D02*
G01*
X181290000Y-56125000D01*
X181290000Y-55675000D01*
X182090000Y-55675000D01*
X182090000Y-56125000D01*
G37*
X182090000Y-55625000D02*
X181290000Y-55625000D01*
X181290000Y-55175000D01*
X182090000Y-55175000D01*
X182090000Y-55625000D01*
G36*
X182090000Y-55625000D02*
G01*
X181290000Y-55625000D01*
X181290000Y-55175000D01*
X182090000Y-55175000D01*
X182090000Y-55625000D01*
G37*
X182090000Y-55125000D02*
X181290000Y-55125000D01*
X181290000Y-54675000D01*
X182090000Y-54675000D01*
X182090000Y-55125000D01*
G36*
X182090000Y-55125000D02*
G01*
X181290000Y-55125000D01*
X181290000Y-54675000D01*
X182090000Y-54675000D01*
X182090000Y-55125000D01*
G37*
X182090000Y-54625000D02*
X181290000Y-54625000D01*
X181290000Y-54175000D01*
X182090000Y-54175000D01*
X182090000Y-54625000D01*
G36*
X182090000Y-54625000D02*
G01*
X181290000Y-54625000D01*
X181290000Y-54175000D01*
X182090000Y-54175000D01*
X182090000Y-54625000D01*
G37*
%TO.C,J1*%
X61760000Y-57625000D02*
X60960000Y-57625000D01*
X60960000Y-57175000D01*
X61760000Y-57175000D01*
X61760000Y-57625000D01*
G36*
X61760000Y-57625000D02*
G01*
X60960000Y-57625000D01*
X60960000Y-57175000D01*
X61760000Y-57175000D01*
X61760000Y-57625000D01*
G37*
X61760000Y-57125000D02*
X60960000Y-57125000D01*
X60960000Y-56675000D01*
X61760000Y-56675000D01*
X61760000Y-57125000D01*
G36*
X61760000Y-57125000D02*
G01*
X60960000Y-57125000D01*
X60960000Y-56675000D01*
X61760000Y-56675000D01*
X61760000Y-57125000D01*
G37*
X61760000Y-56625000D02*
X60960000Y-56625000D01*
X60960000Y-56175000D01*
X61760000Y-56175000D01*
X61760000Y-56625000D01*
G36*
X61760000Y-56625000D02*
G01*
X60960000Y-56625000D01*
X60960000Y-56175000D01*
X61760000Y-56175000D01*
X61760000Y-56625000D01*
G37*
X61760000Y-56125000D02*
X60960000Y-56125000D01*
X60960000Y-55675000D01*
X61760000Y-55675000D01*
X61760000Y-56125000D01*
G36*
X61760000Y-56125000D02*
G01*
X60960000Y-56125000D01*
X60960000Y-55675000D01*
X61760000Y-55675000D01*
X61760000Y-56125000D01*
G37*
X61760000Y-55625000D02*
X60960000Y-55625000D01*
X60960000Y-55175000D01*
X61760000Y-55175000D01*
X61760000Y-55625000D01*
G36*
X61760000Y-55625000D02*
G01*
X60960000Y-55625000D01*
X60960000Y-55175000D01*
X61760000Y-55175000D01*
X61760000Y-55625000D01*
G37*
X61760000Y-55125000D02*
X60960000Y-55125000D01*
X60960000Y-54675000D01*
X61760000Y-54675000D01*
X61760000Y-55125000D01*
G36*
X61760000Y-55125000D02*
G01*
X60960000Y-55125000D01*
X60960000Y-54675000D01*
X61760000Y-54675000D01*
X61760000Y-55125000D01*
G37*
X61760000Y-54625000D02*
X60960000Y-54625000D01*
X60960000Y-54175000D01*
X61760000Y-54175000D01*
X61760000Y-54625000D01*
G36*
X61760000Y-54625000D02*
G01*
X60960000Y-54625000D01*
X60960000Y-54175000D01*
X61760000Y-54175000D01*
X61760000Y-54625000D01*
G37*
X61760000Y-58125000D02*
X60960000Y-58125000D01*
X60960000Y-57675000D01*
X61760000Y-57675000D01*
X61760000Y-58125000D01*
G36*
X61760000Y-58125000D02*
G01*
X60960000Y-58125000D01*
X60960000Y-57675000D01*
X61760000Y-57675000D01*
X61760000Y-58125000D01*
G37*
X61760000Y-58625000D02*
X60960000Y-58625000D01*
X60960000Y-58175000D01*
X61760000Y-58175000D01*
X61760000Y-58625000D01*
G36*
X61760000Y-58625000D02*
G01*
X60960000Y-58625000D01*
X60960000Y-58175000D01*
X61760000Y-58175000D01*
X61760000Y-58625000D01*
G37*
X61760000Y-59125000D02*
X60960000Y-59125000D01*
X60960000Y-58675000D01*
X61760000Y-58675000D01*
X61760000Y-59125000D01*
G36*
X61760000Y-59125000D02*
G01*
X60960000Y-59125000D01*
X60960000Y-58675000D01*
X61760000Y-58675000D01*
X61760000Y-59125000D01*
G37*
X61760000Y-59625000D02*
X60960000Y-59625000D01*
X60960000Y-59175000D01*
X61760000Y-59175000D01*
X61760000Y-59625000D01*
G36*
X61760000Y-59625000D02*
G01*
X60960000Y-59625000D01*
X60960000Y-59175000D01*
X61760000Y-59175000D01*
X61760000Y-59625000D01*
G37*
X61760000Y-60125000D02*
X60960000Y-60125000D01*
X60960000Y-59675000D01*
X61760000Y-59675000D01*
X61760000Y-60125000D01*
G36*
X61760000Y-60125000D02*
G01*
X60960000Y-60125000D01*
X60960000Y-59675000D01*
X61760000Y-59675000D01*
X61760000Y-60125000D01*
G37*
%TD*%
D11*
%TO.C,R56*%
X93212500Y-77050000D03*
X94762500Y-77050000D03*
%TD*%
D12*
%TO.C,R55*%
X94762500Y-75300000D03*
X93212500Y-75300000D03*
%TD*%
D13*
%TO.C,R54*%
X101350000Y-75225000D03*
X101350000Y-76875000D03*
%TD*%
D12*
%TO.C,R16*%
X99825000Y-69650000D03*
X98275000Y-69650000D03*
%TD*%
D14*
%TO.C,IC14*%
X100800000Y-71400000D03*
X100300000Y-71400000D03*
X99800000Y-71400000D03*
X99300000Y-71400000D03*
X99300000Y-73500000D03*
X99800000Y-73500000D03*
X100300000Y-73500000D03*
X100800000Y-73500000D03*
D15*
X100050000Y-72450000D03*
%TD*%
D16*
%TO.C,D8*%
X97825000Y-77050000D03*
X96250000Y-77050000D03*
%TD*%
%TO.C,D5*%
X97825000Y-75300000D03*
X96250000Y-75300000D03*
%TD*%
D17*
%TO.C,C6*%
X104175000Y-73350000D03*
X102450000Y-73350000D03*
%TD*%
%TO.C,C4*%
X102450000Y-71550000D03*
X104175000Y-71550000D03*
%TD*%
D18*
%TO.C,U2*%
X159150000Y-75087500D03*
X160100000Y-75087500D03*
X161050000Y-75087500D03*
X161050000Y-72812500D03*
X159150000Y-72812500D03*
%TD*%
D12*
%TO.C,R53*%
X164975000Y-66500000D03*
X163425000Y-66500000D03*
%TD*%
D11*
%TO.C,R52*%
X163425000Y-64900000D03*
X164975000Y-64900000D03*
%TD*%
D12*
%TO.C,R51*%
X165025000Y-60150000D03*
X163475000Y-60150000D03*
%TD*%
D11*
%TO.C,R50*%
X163475000Y-58600000D03*
X165025000Y-58600000D03*
%TD*%
D12*
%TO.C,R49*%
X156075000Y-63550000D03*
X154525000Y-63550000D03*
%TD*%
D11*
%TO.C,R48*%
X154525000Y-61900000D03*
X156075000Y-61900000D03*
%TD*%
D12*
%TO.C,R47*%
X156125000Y-57150000D03*
X154575000Y-57150000D03*
%TD*%
D11*
%TO.C,R46*%
X154575000Y-55600000D03*
X156125000Y-55600000D03*
%TD*%
D19*
%TO.C,R45*%
X155725000Y-77150000D03*
X154075000Y-77150000D03*
%TD*%
D20*
%TO.C,IC13*%
X159550000Y-62650000D03*
D21*
X158500000Y-63200000D03*
X158500000Y-63700000D03*
X158500000Y-64200000D03*
X158500000Y-64700000D03*
X158500000Y-65200000D03*
D20*
X159550000Y-65750000D03*
X160050000Y-65750000D03*
D21*
X161100000Y-65200000D03*
X161100000Y-64700000D03*
X161100000Y-64200000D03*
X161100000Y-63700000D03*
X161100000Y-63200000D03*
D20*
X160050000Y-62650000D03*
D22*
X159800000Y-64200000D03*
%TD*%
D20*
%TO.C,IC12*%
X159550000Y-56350000D03*
D21*
X158500000Y-56900000D03*
X158500000Y-57400000D03*
X158500000Y-57900000D03*
X158500000Y-58400000D03*
X158500000Y-58900000D03*
D20*
X159550000Y-59450000D03*
X160050000Y-59450000D03*
D21*
X161100000Y-58900000D03*
X161100000Y-58400000D03*
X161100000Y-57900000D03*
X161100000Y-57400000D03*
X161100000Y-56900000D03*
D20*
X160050000Y-56350000D03*
D22*
X159800000Y-57900000D03*
%TD*%
D16*
%TO.C,D7*%
X158787500Y-77150000D03*
X157212500Y-77150000D03*
%TD*%
D17*
%TO.C,C19*%
X163487500Y-62650000D03*
X165212500Y-62650000D03*
%TD*%
%TO.C,C18*%
X163537500Y-55600000D03*
X165262500Y-55600000D03*
%TD*%
%TO.C,C17*%
X162787500Y-72650000D03*
X164512500Y-72650000D03*
%TD*%
D23*
%TO.C,J17*%
X164840000Y-91500000D03*
D24*
X162300000Y-91500000D03*
%TD*%
D23*
%TO.C,J16*%
X144690000Y-91500000D03*
D24*
X142150000Y-91500000D03*
%TD*%
D23*
%TO.C,J15*%
X124590000Y-91550000D03*
D24*
X122050000Y-91550000D03*
%TD*%
D23*
%TO.C,J14*%
X104570000Y-91470000D03*
D24*
X102030000Y-91470000D03*
%TD*%
D23*
%TO.C,J13*%
X84370000Y-91520000D03*
D24*
X81830000Y-91520000D03*
%TD*%
D25*
%TO.C,J12*%
X154325000Y-92750000D03*
D26*
X156865000Y-92750000D03*
%TD*%
D25*
%TO.C,J11*%
X159700000Y-83125000D03*
D26*
X159700000Y-85665000D03*
%TD*%
D25*
%TO.C,REF\u002A\u002A*%
X189650000Y-70300000D03*
D26*
X189650000Y-72840000D03*
X189650000Y-75380000D03*
X189650000Y-77920000D03*
X189650000Y-80460000D03*
X189650000Y-83000000D03*
X189650000Y-85540000D03*
X189650000Y-88080000D03*
X189650000Y-90620000D03*
X189650000Y-93160000D03*
%TD*%
D25*
%TO.C,REF\u002A\u002A*%
X187100000Y-70300000D03*
D26*
X187100000Y-72840000D03*
X187100000Y-75380000D03*
X187100000Y-77920000D03*
X187100000Y-80460000D03*
X187100000Y-83000000D03*
X187100000Y-85540000D03*
X187100000Y-88080000D03*
X187100000Y-90620000D03*
X187100000Y-93160000D03*
%TD*%
D25*
%TO.C,REF\u002A\u002A*%
X184550000Y-70310000D03*
D26*
X184550000Y-72850000D03*
X184550000Y-75390000D03*
X184550000Y-77930000D03*
X184550000Y-80470000D03*
X184550000Y-83010000D03*
X184550000Y-85550000D03*
X184550000Y-88090000D03*
X184550000Y-90630000D03*
X184550000Y-93170000D03*
%TD*%
D25*
%TO.C,REF\u002A\u002A*%
X182000000Y-70310000D03*
D26*
X182000000Y-72850000D03*
X182000000Y-75390000D03*
X182000000Y-77930000D03*
X182000000Y-80470000D03*
X182000000Y-83010000D03*
X182000000Y-85550000D03*
X182000000Y-88090000D03*
X182000000Y-90630000D03*
X182000000Y-93170000D03*
%TD*%
D25*
%TO.C,REF\u002A\u002A*%
X179450000Y-70325000D03*
D26*
X179450000Y-72865000D03*
X179450000Y-75405000D03*
X179450000Y-77945000D03*
X179450000Y-80485000D03*
X179450000Y-83025000D03*
X179450000Y-85565000D03*
X179450000Y-88105000D03*
X179450000Y-90645000D03*
X179450000Y-93185000D03*
%TD*%
D25*
%TO.C,REF\u002A\u002A*%
X176900000Y-70325000D03*
D26*
X176900000Y-72865000D03*
X176900000Y-75405000D03*
X176900000Y-77945000D03*
X176900000Y-80485000D03*
X176900000Y-83025000D03*
X176900000Y-85565000D03*
X176900000Y-88105000D03*
X176900000Y-90645000D03*
X176900000Y-93185000D03*
%TD*%
D25*
%TO.C,REF\u002A\u002A*%
X174350000Y-70335000D03*
D26*
X174350000Y-72875000D03*
X174350000Y-75415000D03*
X174350000Y-77955000D03*
X174350000Y-80495000D03*
X174350000Y-83035000D03*
X174350000Y-85575000D03*
X174350000Y-88115000D03*
X174350000Y-90655000D03*
X174350000Y-93195000D03*
%TD*%
D25*
%TO.C,REF\u002A\u002A*%
X171800000Y-70335000D03*
D26*
X171800000Y-72875000D03*
X171800000Y-75415000D03*
X171800000Y-77955000D03*
X171800000Y-80495000D03*
X171800000Y-83035000D03*
X171800000Y-85575000D03*
X171800000Y-88115000D03*
X171800000Y-90655000D03*
X171800000Y-93195000D03*
%TD*%
D12*
%TO.C,R44*%
X144875000Y-66450000D03*
X143325000Y-66450000D03*
%TD*%
D11*
%TO.C,R43*%
X143325000Y-64900000D03*
X144875000Y-64900000D03*
%TD*%
D12*
%TO.C,R42*%
X144825000Y-60200000D03*
X143275000Y-60200000D03*
%TD*%
D11*
%TO.C,R41*%
X143275000Y-58650000D03*
X144825000Y-58650000D03*
%TD*%
D12*
%TO.C,R40*%
X135975000Y-63450000D03*
X134425000Y-63450000D03*
%TD*%
D11*
%TO.C,R39*%
X134425000Y-61900000D03*
X135975000Y-61900000D03*
%TD*%
D12*
%TO.C,R38*%
X135975000Y-57200000D03*
X134425000Y-57200000D03*
%TD*%
D11*
%TO.C,R37*%
X134425000Y-55600000D03*
X135975000Y-55600000D03*
%TD*%
D12*
%TO.C,R36*%
X141725000Y-71850000D03*
X140175000Y-71850000D03*
%TD*%
%TO.C,R35*%
X144375000Y-75400000D03*
X142825000Y-75400000D03*
%TD*%
D11*
%TO.C,R34*%
X139825000Y-77400000D03*
X141375000Y-77400000D03*
%TD*%
D20*
%TO.C,IC11*%
X139400000Y-62650000D03*
D21*
X138350000Y-63200000D03*
X138350000Y-63700000D03*
X138350000Y-64200000D03*
X138350000Y-64700000D03*
X138350000Y-65200000D03*
D20*
X139400000Y-65750000D03*
X139900000Y-65750000D03*
D21*
X140950000Y-65200000D03*
X140950000Y-64700000D03*
X140950000Y-64200000D03*
X140950000Y-63700000D03*
X140950000Y-63200000D03*
D20*
X139900000Y-62650000D03*
D22*
X139650000Y-64200000D03*
%TD*%
D20*
%TO.C,IC10*%
X139400000Y-56350000D03*
D21*
X138350000Y-56900000D03*
X138350000Y-57400000D03*
X138350000Y-57900000D03*
X138350000Y-58400000D03*
X138350000Y-58900000D03*
D20*
X139400000Y-59450000D03*
X139900000Y-59450000D03*
D21*
X140950000Y-58900000D03*
X140950000Y-58400000D03*
X140950000Y-57900000D03*
X140950000Y-57400000D03*
X140950000Y-56900000D03*
D20*
X139900000Y-56350000D03*
D22*
X139650000Y-57900000D03*
%TD*%
D27*
%TO.C,IC9*%
X139050000Y-75400000D03*
X139050000Y-75000000D03*
X139450000Y-75400000D03*
X139450000Y-75000000D03*
X139850000Y-75400000D03*
X139850000Y-75000000D03*
%TD*%
D17*
%TO.C,C16*%
X143387500Y-62650000D03*
X145112500Y-62650000D03*
%TD*%
%TO.C,C15*%
X143387500Y-55600000D03*
X145112500Y-55600000D03*
%TD*%
%TO.C,C14*%
X143387500Y-71850000D03*
X145112500Y-71850000D03*
%TD*%
%TO.C,C13*%
X136225000Y-77400000D03*
X137950000Y-77400000D03*
%TD*%
D28*
%TO.C,C12*%
X138275000Y-71850000D03*
X136550000Y-71850000D03*
%TD*%
D12*
%TO.C,R33*%
X124525000Y-66450000D03*
X122975000Y-66450000D03*
%TD*%
D11*
%TO.C,R32*%
X122975000Y-64850000D03*
X124525000Y-64850000D03*
%TD*%
D12*
%TO.C,R31*%
X124575000Y-60050000D03*
X123025000Y-60050000D03*
%TD*%
D11*
%TO.C,R30*%
X123025000Y-58450000D03*
X124575000Y-58450000D03*
%TD*%
D12*
%TO.C,R29*%
X115625000Y-63500000D03*
X114075000Y-63500000D03*
%TD*%
D11*
%TO.C,R28*%
X114075000Y-61900000D03*
X115625000Y-61900000D03*
%TD*%
D12*
%TO.C,R27*%
X115575000Y-57200000D03*
X114025000Y-57200000D03*
%TD*%
D11*
%TO.C,R26*%
X114025000Y-55600000D03*
X115575000Y-55600000D03*
%TD*%
D29*
%TO.C,R25*%
X115700000Y-72575000D03*
X115700000Y-70925000D03*
%TD*%
D20*
%TO.C,IC8*%
X119050000Y-62650000D03*
D21*
X118000000Y-63200000D03*
X118000000Y-63700000D03*
X118000000Y-64200000D03*
X118000000Y-64700000D03*
X118000000Y-65200000D03*
D20*
X119050000Y-65750000D03*
X119550000Y-65750000D03*
D21*
X120600000Y-65200000D03*
X120600000Y-64700000D03*
X120600000Y-64200000D03*
X120600000Y-63700000D03*
X120600000Y-63200000D03*
D20*
X119550000Y-62650000D03*
D22*
X119300000Y-64200000D03*
%TD*%
%TO.C,IC7*%
X119300000Y-57900000D03*
D20*
X119550000Y-56350000D03*
D21*
X120600000Y-56900000D03*
X120600000Y-57400000D03*
X120600000Y-57900000D03*
X120600000Y-58400000D03*
X120600000Y-58900000D03*
D20*
X119550000Y-59450000D03*
X119050000Y-59450000D03*
D21*
X118000000Y-58900000D03*
X118000000Y-58400000D03*
X118000000Y-57900000D03*
X118000000Y-57400000D03*
X118000000Y-56900000D03*
D20*
X119050000Y-56350000D03*
%TD*%
D30*
%TO.C,IC6*%
X119200000Y-74150000D03*
X120150000Y-74150000D03*
X121100000Y-74150000D03*
X121100000Y-71650000D03*
X119200000Y-71650000D03*
%TD*%
D16*
%TO.C,D6*%
X117237500Y-74250000D03*
X115662500Y-74250000D03*
%TD*%
D17*
%TO.C,C11*%
X123037500Y-62650000D03*
X124762500Y-62650000D03*
%TD*%
%TO.C,C10*%
X123087500Y-55600000D03*
X124812500Y-55600000D03*
%TD*%
%TO.C,C9*%
X122987500Y-71600000D03*
X124712500Y-71600000D03*
%TD*%
D31*
%TO.C,D4*%
X77737500Y-77950000D03*
X76162500Y-77950000D03*
%TD*%
%TO.C,D3*%
X77737500Y-76400000D03*
X76162500Y-76400000D03*
%TD*%
D32*
%TO.C,SW1*%
X55620000Y-70710000D03*
X55620000Y-73250000D03*
X55620000Y-75790000D03*
X55620000Y-78330000D03*
X55620000Y-80870000D03*
X55620000Y-83410000D03*
X55620000Y-85950000D03*
X55620000Y-88490000D03*
X63880000Y-88490000D03*
X63880000Y-85950000D03*
X63880000Y-83410000D03*
X63880000Y-80870000D03*
X63880000Y-78330000D03*
X63880000Y-75790000D03*
X63880000Y-73250000D03*
X63880000Y-70710000D03*
%TD*%
D12*
%TO.C,R24*%
X104425000Y-66450000D03*
X102875000Y-66450000D03*
%TD*%
D11*
%TO.C,R23*%
X102875000Y-64850000D03*
X104425000Y-64850000D03*
%TD*%
D12*
%TO.C,R22*%
X104475000Y-60150000D03*
X102925000Y-60150000D03*
%TD*%
D11*
%TO.C,R21*%
X102925000Y-58550000D03*
X104475000Y-58550000D03*
%TD*%
D12*
%TO.C,R20*%
X95625000Y-63450000D03*
X94075000Y-63450000D03*
%TD*%
D11*
%TO.C,R19*%
X94075000Y-61900000D03*
X95625000Y-61900000D03*
%TD*%
D12*
%TO.C,R18*%
X95525000Y-57250000D03*
X93975000Y-57250000D03*
%TD*%
D11*
%TO.C,R17*%
X93975000Y-55600000D03*
X95525000Y-55600000D03*
%TD*%
D20*
%TO.C,IC5*%
X99000000Y-62650000D03*
D21*
X97950000Y-63200000D03*
X97950000Y-63700000D03*
X97950000Y-64200000D03*
X97950000Y-64700000D03*
X97950000Y-65200000D03*
D20*
X99000000Y-65750000D03*
X99500000Y-65750000D03*
D21*
X100550000Y-65200000D03*
X100550000Y-64700000D03*
X100550000Y-64200000D03*
X100550000Y-63700000D03*
X100550000Y-63200000D03*
D20*
X99500000Y-62650000D03*
D22*
X99250000Y-64200000D03*
%TD*%
D20*
%TO.C,IC4*%
X99000000Y-56350000D03*
D21*
X97950000Y-56900000D03*
X97950000Y-57400000D03*
X97950000Y-57900000D03*
X97950000Y-58400000D03*
X97950000Y-58900000D03*
D20*
X99000000Y-59450000D03*
X99500000Y-59450000D03*
D21*
X100550000Y-58900000D03*
X100550000Y-58400000D03*
X100550000Y-57900000D03*
X100550000Y-57400000D03*
X100550000Y-56900000D03*
D20*
X99500000Y-56350000D03*
D22*
X99250000Y-57900000D03*
%TD*%
D17*
%TO.C,C8*%
X102937500Y-62650000D03*
X104662500Y-62650000D03*
%TD*%
%TO.C,C7*%
X102937500Y-55600000D03*
X104662500Y-55600000D03*
%TD*%
D19*
%TO.C,R1*%
X76375000Y-72250000D03*
X74725000Y-72250000D03*
%TD*%
D12*
%TO.C,R15*%
X83075000Y-66500000D03*
X84625000Y-66500000D03*
%TD*%
D11*
%TO.C,R14*%
X83075000Y-64900000D03*
X84625000Y-64900000D03*
%TD*%
D12*
%TO.C,R13*%
X84675000Y-60200000D03*
X83125000Y-60200000D03*
%TD*%
D11*
%TO.C,R12*%
X83125000Y-58550000D03*
X84675000Y-58550000D03*
%TD*%
D12*
%TO.C,R11*%
X75675000Y-63500000D03*
X74125000Y-63500000D03*
%TD*%
D11*
%TO.C,R10*%
X74125000Y-61900000D03*
X75675000Y-61900000D03*
%TD*%
D12*
%TO.C,R9*%
X75675000Y-57250000D03*
X74125000Y-57250000D03*
%TD*%
D11*
%TO.C,R8*%
X74125000Y-55600000D03*
X75675000Y-55600000D03*
%TD*%
D17*
%TO.C,C5*%
X84862500Y-62650000D03*
X83137500Y-62650000D03*
%TD*%
%TO.C,C3*%
X83137500Y-55600000D03*
X84862500Y-55600000D03*
%TD*%
D22*
%TO.C,IC2*%
X79400000Y-64200000D03*
D20*
X79650000Y-62650000D03*
D21*
X80700000Y-63200000D03*
X80700000Y-63700000D03*
X80700000Y-64200000D03*
X80700000Y-64700000D03*
X80700000Y-65200000D03*
D20*
X79650000Y-65750000D03*
X79150000Y-65750000D03*
D21*
X78100000Y-65200000D03*
X78100000Y-64700000D03*
X78100000Y-64200000D03*
X78100000Y-63700000D03*
X78100000Y-63200000D03*
D20*
X79150000Y-62650000D03*
%TD*%
%TO.C,IC3*%
X79150000Y-56350000D03*
D21*
X78100000Y-56900000D03*
X78100000Y-57400000D03*
X78100000Y-57900000D03*
X78100000Y-58400000D03*
X78100000Y-58900000D03*
D20*
X79150000Y-59450000D03*
X79650000Y-59450000D03*
D21*
X80700000Y-58900000D03*
X80700000Y-58400000D03*
X80700000Y-57900000D03*
X80700000Y-57400000D03*
X80700000Y-56900000D03*
D20*
X79650000Y-56350000D03*
D22*
X79400000Y-57900000D03*
%TD*%
D33*
%TO.C,TP1*%
X76450000Y-69850000D03*
%TD*%
D11*
%TO.C,R7*%
X79325000Y-76400000D03*
X80875000Y-76400000D03*
%TD*%
%TO.C,R6*%
X80875000Y-77950000D03*
X79325000Y-77950000D03*
%TD*%
D19*
%TO.C,R5*%
X177350000Y-55800000D03*
X175700000Y-55800000D03*
%TD*%
%TO.C,R4*%
X177325000Y-57500000D03*
X175675000Y-57500000D03*
%TD*%
D34*
%TO.C,R3*%
X64475000Y-58000000D03*
X66125000Y-58000000D03*
%TD*%
%TO.C,R2*%
X64475000Y-56400000D03*
X66125000Y-56400000D03*
%TD*%
D26*
%TO.C,J10*%
X136665000Y-92850000D03*
D25*
X134125000Y-92850000D03*
%TD*%
%TO.C,J9*%
X114225000Y-92850000D03*
D26*
X116765000Y-92850000D03*
%TD*%
D25*
%TO.C,J8*%
X94075000Y-92800000D03*
D26*
X96615000Y-92800000D03*
%TD*%
D25*
%TO.C,J7*%
X73875000Y-92850000D03*
D26*
X76415000Y-92850000D03*
%TD*%
D25*
%TO.C,J6*%
X139450000Y-83075000D03*
D26*
X139450000Y-85615000D03*
%TD*%
D25*
%TO.C,J5*%
X119500000Y-83050000D03*
D26*
X119500000Y-85590000D03*
%TD*%
D25*
%TO.C,J4*%
X99400000Y-83025000D03*
D26*
X99400000Y-85565000D03*
%TD*%
D25*
%TO.C,J3*%
X79350000Y-82975000D03*
D26*
X79350000Y-85515000D03*
%TD*%
D35*
%TO.C,J2*%
X187600000Y-61650000D03*
X187600000Y-52650000D03*
D36*
X182000000Y-61650000D03*
X182000000Y-52650000D03*
D37*
X182800000Y-60200000D03*
X182800000Y-54100000D03*
X183500000Y-59550000D03*
X183500000Y-54750000D03*
X183500000Y-58750000D03*
X183500000Y-55550000D03*
X183500000Y-57950000D03*
X183500000Y-56350000D03*
X182800000Y-58350000D03*
X182800000Y-55950000D03*
X182800000Y-57550000D03*
X182800000Y-56750000D03*
D38*
X183500000Y-60875000D03*
X183500000Y-53425000D03*
%TD*%
D35*
%TO.C,J1*%
X55450000Y-52650000D03*
X55450000Y-61650000D03*
D36*
X61050000Y-52650000D03*
X61050000Y-61650000D03*
D37*
X60250000Y-54100000D03*
X60250000Y-60200000D03*
X59550000Y-54750000D03*
X59550000Y-59550000D03*
X59550000Y-55550000D03*
X59550000Y-58750000D03*
X59550000Y-56350000D03*
X59550000Y-57950000D03*
X60250000Y-55950000D03*
X60250000Y-58350000D03*
X60250000Y-56750000D03*
X60250000Y-57550000D03*
D38*
X59550000Y-53425000D03*
X59550000Y-60875000D03*
%TD*%
D39*
%TO.C,IC1*%
X80150000Y-72150000D03*
X79650000Y-72150000D03*
X79150000Y-72150000D03*
X78650000Y-72150000D03*
X78150000Y-72150000D03*
X78150000Y-74150000D03*
X78650000Y-74150000D03*
X79150000Y-74150000D03*
X79650000Y-74150000D03*
X80150000Y-74150000D03*
D40*
X79150000Y-73150000D03*
%TD*%
D41*
%TO.C,D2*%
X178400000Y-60650000D03*
X174400000Y-60650000D03*
%TD*%
D42*
%TO.C,D1*%
X65100000Y-61300000D03*
X65100000Y-65300000D03*
%TD*%
D17*
%TO.C,C2*%
X82025000Y-74050000D03*
X83750000Y-74050000D03*
%TD*%
%TO.C,C1*%
X82037500Y-72250000D03*
X83762500Y-72250000D03*
%TD*%
M02*
