%TF.GenerationSoftware,KiCad,Pcbnew,8.0.3-8.0.3-0~ubuntu22.04.1*%
%TF.CreationDate,2024-12-02T08:44:26+01:00*%
%TF.ProjectId,BreakoutboardRT9532,42726561-6b6f-4757-9462-6f6172645254,rev?*%
%TF.SameCoordinates,Original*%
%TF.FileFunction,Copper,L2,Bot*%
%TF.FilePolarity,Positive*%
%FSLAX46Y46*%
G04 Gerber Fmt 4.6, Leading zero omitted, Abs format (unit mm)*
G04 Created by KiCad (PCBNEW 8.0.3-8.0.3-0~ubuntu22.04.1) date 2024-12-02 08:44:26*
%MOMM*%
%LPD*%
G01*
G04 APERTURE LIST*
%TA.AperFunction,ComponentPad*%
%ADD10R,1.650000X1.650000*%
%TD*%
%TA.AperFunction,ComponentPad*%
%ADD11C,1.650000*%
%TD*%
%TA.AperFunction,ComponentPad*%
%ADD12R,1.700000X1.700000*%
%TD*%
%TA.AperFunction,ComponentPad*%
%ADD13O,1.700000X1.700000*%
%TD*%
%TA.AperFunction,ComponentPad*%
%ADD14O,1.800000X1.000000*%
%TD*%
%TA.AperFunction,ComponentPad*%
%ADD15O,1.600000X1.000000*%
%TD*%
%TA.AperFunction,ComponentPad*%
%ADD16C,0.650000*%
%TD*%
%TA.AperFunction,ViaPad*%
%ADD17C,0.600000*%
%TD*%
%TA.AperFunction,ViaPad*%
%ADD18C,0.400000*%
%TD*%
%TA.AperFunction,Conductor*%
%ADD19C,0.200000*%
%TD*%
%TA.AperFunction,Conductor*%
%ADD20C,0.400000*%
%TD*%
G04 APERTURE END LIST*
D10*
%TO.P,J17,1,1*%
%TO.N,GND*%
X164840000Y-91500000D03*
D11*
%TO.P,J17,2,2*%
%TO.N,VBat5*%
X162300000Y-91500000D03*
%TD*%
D10*
%TO.P,J16,1,1*%
%TO.N,GND*%
X144690000Y-91500000D03*
D11*
%TO.P,J16,2,2*%
%TO.N,VBat4*%
X142150000Y-91500000D03*
%TD*%
D10*
%TO.P,J15,1,1*%
%TO.N,GND*%
X124590000Y-91550000D03*
D11*
%TO.P,J15,2,2*%
%TO.N,VBat3*%
X122050000Y-91550000D03*
%TD*%
D10*
%TO.P,J14,1,1*%
%TO.N,GND*%
X104570000Y-91470000D03*
D11*
%TO.P,J14,2,2*%
%TO.N,VBat2*%
X102030000Y-91470000D03*
%TD*%
D10*
%TO.P,J13,1,1*%
%TO.N,GND*%
X84370000Y-91520000D03*
D11*
%TO.P,J13,2,2*%
%TO.N,VBat1*%
X81830000Y-91520000D03*
%TD*%
D12*
%TO.P,J12,1,Pin_1*%
%TO.N,GND*%
X154325000Y-92750000D03*
D13*
%TO.P,J12,2,Pin_2*%
%TO.N,VBat5*%
X156865000Y-92750000D03*
%TD*%
D12*
%TO.P,J11,1,Pin_1*%
%TO.N,I_Sense5*%
X159700000Y-83125000D03*
D13*
%TO.P,J11,2,Pin_2*%
%TO.N,VBat5*%
X159700000Y-85665000D03*
%TD*%
D12*
%TO.P,REF\u002A\u002A,1*%
%TO.N,GND*%
X189650000Y-70300000D03*
D13*
%TO.P,REF\u002A\u002A,2*%
%TO.N,N/C*%
X189650000Y-72840000D03*
%TO.P,REF\u002A\u002A,3*%
X189650000Y-75380000D03*
%TO.P,REF\u002A\u002A,4*%
X189650000Y-77920000D03*
%TO.P,REF\u002A\u002A,5*%
X189650000Y-80460000D03*
%TO.P,REF\u002A\u002A,6*%
X189650000Y-83000000D03*
%TO.P,REF\u002A\u002A,7*%
X189650000Y-85540000D03*
%TO.P,REF\u002A\u002A,8*%
X189650000Y-88080000D03*
%TO.P,REF\u002A\u002A,9*%
X189650000Y-90620000D03*
%TO.P,REF\u002A\u002A,10*%
X189650000Y-93160000D03*
%TD*%
D12*
%TO.P,REF\u002A\u002A,1*%
%TO.N,GND*%
X187100000Y-70300000D03*
D13*
%TO.P,REF\u002A\u002A,2*%
%TO.N,N/C*%
X187100000Y-72840000D03*
%TO.P,REF\u002A\u002A,3*%
X187100000Y-75380000D03*
%TO.P,REF\u002A\u002A,4*%
X187100000Y-77920000D03*
%TO.P,REF\u002A\u002A,5*%
X187100000Y-80460000D03*
%TO.P,REF\u002A\u002A,6*%
X187100000Y-83000000D03*
%TO.P,REF\u002A\u002A,7*%
X187100000Y-85540000D03*
%TO.P,REF\u002A\u002A,8*%
X187100000Y-88080000D03*
%TO.P,REF\u002A\u002A,9*%
X187100000Y-90620000D03*
%TO.P,REF\u002A\u002A,10*%
X187100000Y-93160000D03*
%TD*%
D12*
%TO.P,REF\u002A\u002A,1*%
%TO.N,GND*%
X184550000Y-70310000D03*
D13*
%TO.P,REF\u002A\u002A,2*%
%TO.N,N/C*%
X184550000Y-72850000D03*
%TO.P,REF\u002A\u002A,3*%
X184550000Y-75390000D03*
%TO.P,REF\u002A\u002A,4*%
X184550000Y-77930000D03*
%TO.P,REF\u002A\u002A,5*%
X184550000Y-80470000D03*
%TO.P,REF\u002A\u002A,6*%
X184550000Y-83010000D03*
%TO.P,REF\u002A\u002A,7*%
X184550000Y-85550000D03*
%TO.P,REF\u002A\u002A,8*%
X184550000Y-88090000D03*
%TO.P,REF\u002A\u002A,9*%
X184550000Y-90630000D03*
%TO.P,REF\u002A\u002A,10*%
X184550000Y-93170000D03*
%TD*%
D12*
%TO.P,REF\u002A\u002A,1*%
%TO.N,GND*%
X182000000Y-70310000D03*
D13*
%TO.P,REF\u002A\u002A,2*%
%TO.N,N/C*%
X182000000Y-72850000D03*
%TO.P,REF\u002A\u002A,3*%
X182000000Y-75390000D03*
%TO.P,REF\u002A\u002A,4*%
X182000000Y-77930000D03*
%TO.P,REF\u002A\u002A,5*%
X182000000Y-80470000D03*
%TO.P,REF\u002A\u002A,6*%
X182000000Y-83010000D03*
%TO.P,REF\u002A\u002A,7*%
X182000000Y-85550000D03*
%TO.P,REF\u002A\u002A,8*%
X182000000Y-88090000D03*
%TO.P,REF\u002A\u002A,9*%
X182000000Y-90630000D03*
%TO.P,REF\u002A\u002A,10*%
X182000000Y-93170000D03*
%TD*%
D12*
%TO.P,REF\u002A\u002A,1*%
%TO.N,VBUS*%
X179450000Y-70325000D03*
D13*
%TO.P,REF\u002A\u002A,2*%
%TO.N,N/C*%
X179450000Y-72865000D03*
%TO.P,REF\u002A\u002A,3*%
X179450000Y-75405000D03*
%TO.P,REF\u002A\u002A,4*%
X179450000Y-77945000D03*
%TO.P,REF\u002A\u002A,5*%
X179450000Y-80485000D03*
%TO.P,REF\u002A\u002A,6*%
X179450000Y-83025000D03*
%TO.P,REF\u002A\u002A,7*%
X179450000Y-85565000D03*
%TO.P,REF\u002A\u002A,8*%
X179450000Y-88105000D03*
%TO.P,REF\u002A\u002A,9*%
X179450000Y-90645000D03*
%TO.P,REF\u002A\u002A,10*%
X179450000Y-93185000D03*
%TD*%
D12*
%TO.P,REF\u002A\u002A,1*%
%TO.N,VBUS*%
X176900000Y-70325000D03*
D13*
%TO.P,REF\u002A\u002A,2*%
%TO.N,N/C*%
X176900000Y-72865000D03*
%TO.P,REF\u002A\u002A,3*%
X176900000Y-75405000D03*
%TO.P,REF\u002A\u002A,4*%
X176900000Y-77945000D03*
%TO.P,REF\u002A\u002A,5*%
X176900000Y-80485000D03*
%TO.P,REF\u002A\u002A,6*%
X176900000Y-83025000D03*
%TO.P,REF\u002A\u002A,7*%
X176900000Y-85565000D03*
%TO.P,REF\u002A\u002A,8*%
X176900000Y-88105000D03*
%TO.P,REF\u002A\u002A,9*%
X176900000Y-90645000D03*
%TO.P,REF\u002A\u002A,10*%
X176900000Y-93185000D03*
%TD*%
D12*
%TO.P,REF\u002A\u002A,1*%
%TO.N,VBUS*%
X174350000Y-70335000D03*
D13*
%TO.P,REF\u002A\u002A,2*%
%TO.N,N/C*%
X174350000Y-72875000D03*
%TO.P,REF\u002A\u002A,3*%
X174350000Y-75415000D03*
%TO.P,REF\u002A\u002A,4*%
X174350000Y-77955000D03*
%TO.P,REF\u002A\u002A,5*%
X174350000Y-80495000D03*
%TO.P,REF\u002A\u002A,6*%
X174350000Y-83035000D03*
%TO.P,REF\u002A\u002A,7*%
X174350000Y-85575000D03*
%TO.P,REF\u002A\u002A,8*%
X174350000Y-88115000D03*
%TO.P,REF\u002A\u002A,9*%
X174350000Y-90655000D03*
%TO.P,REF\u002A\u002A,10*%
X174350000Y-93195000D03*
%TD*%
D12*
%TO.P,REF\u002A\u002A,1*%
%TO.N,VBUS*%
X171800000Y-70335000D03*
D13*
%TO.P,REF\u002A\u002A,2*%
%TO.N,N/C*%
X171800000Y-72875000D03*
%TO.P,REF\u002A\u002A,3*%
X171800000Y-75415000D03*
%TO.P,REF\u002A\u002A,4*%
X171800000Y-77955000D03*
%TO.P,REF\u002A\u002A,5*%
X171800000Y-80495000D03*
%TO.P,REF\u002A\u002A,6*%
X171800000Y-83035000D03*
%TO.P,REF\u002A\u002A,7*%
X171800000Y-85575000D03*
%TO.P,REF\u002A\u002A,8*%
X171800000Y-88115000D03*
%TO.P,REF\u002A\u002A,9*%
X171800000Y-90655000D03*
%TO.P,REF\u002A\u002A,10*%
X171800000Y-93195000D03*
%TD*%
%TO.P,J10,2,Pin_2*%
%TO.N,VBat4*%
X136665000Y-92850000D03*
D12*
%TO.P,J10,1,Pin_1*%
%TO.N,GND*%
X134125000Y-92850000D03*
%TD*%
%TO.P,J9,1,Pin_1*%
%TO.N,GND*%
X114225000Y-92850000D03*
D13*
%TO.P,J9,2,Pin_2*%
%TO.N,VBat3*%
X116765000Y-92850000D03*
%TD*%
D12*
%TO.P,J8,1,Pin_1*%
%TO.N,GND*%
X94075000Y-92800000D03*
D13*
%TO.P,J8,2,Pin_2*%
%TO.N,VBat2*%
X96615000Y-92800000D03*
%TD*%
D12*
%TO.P,J7,1,Pin_1*%
%TO.N,GND*%
X73875000Y-92850000D03*
D13*
%TO.P,J7,2,Pin_2*%
%TO.N,VBat1*%
X76415000Y-92850000D03*
%TD*%
D12*
%TO.P,J6,1,Pin_1*%
%TO.N,I_Sense4*%
X139450000Y-83075000D03*
D13*
%TO.P,J6,2,Pin_2*%
%TO.N,VBat4*%
X139450000Y-85615000D03*
%TD*%
D12*
%TO.P,J5,1,Pin_1*%
%TO.N,I_Sense3*%
X119500000Y-83050000D03*
D13*
%TO.P,J5,2,Pin_2*%
%TO.N,VBat3*%
X119500000Y-85590000D03*
%TD*%
D12*
%TO.P,J4,1,Pin_1*%
%TO.N,I_Sense2*%
X99400000Y-83025000D03*
D13*
%TO.P,J4,2,Pin_2*%
%TO.N,VBat2*%
X99400000Y-85565000D03*
%TD*%
D12*
%TO.P,J3,1,Pin_1*%
%TO.N,I_Sense1*%
X79350000Y-82975000D03*
D13*
%TO.P,J3,2,Pin_2*%
%TO.N,VBat1*%
X79350000Y-85515000D03*
%TD*%
D14*
%TO.P,J2,SH1,SHIELD*%
%TO.N,GND*%
X187600000Y-61650000D03*
%TO.P,J2,SH2,SHIELD__1*%
X187600000Y-52650000D03*
D15*
%TO.P,J2,SH3,SHIELD__2*%
X182000000Y-61650000D03*
%TO.P,J2,SH4,SHIELD__3*%
X182000000Y-52650000D03*
D16*
%TO.P,J2,B12,GND__3*%
X182800000Y-60200000D03*
%TO.P,J2,B1,GND__2*%
X182800000Y-54100000D03*
%TO.P,J2,B11,SSRXP1*%
%TO.N,unconnected-(J2-SSRXP1-PadB11)*%
X183500000Y-59550000D03*
%TO.P,J2,B2,SSTXP2*%
%TO.N,unconnected-(J2-SSTXP2-PadB2)*%
X183500000Y-54750000D03*
%TO.P,J2,B10,SSRXN1*%
%TO.N,unconnected-(J2-SSRXN1-PadB10)*%
X183500000Y-58750000D03*
%TO.P,J2,B3,SSTXN2*%
%TO.N,unconnected-(J2-SSTXN2-PadB3)*%
X183500000Y-55550000D03*
%TO.P,J2,B8,SBU2*%
%TO.N,unconnected-(J2-SBU2-PadB8)*%
X183500000Y-57950000D03*
%TO.P,J2,B5,CC2*%
%TO.N,Net-(J2-CC2)*%
X183500000Y-56350000D03*
%TO.P,J2,B9,VBUS__3*%
%TO.N,VBUS*%
X182800000Y-58350000D03*
%TO.P,J2,B4,VBUS__2*%
X182800000Y-55950000D03*
%TO.P,J2,B7,DN2*%
%TO.N,unconnected-(J2-DN2-PadB7)*%
X182800000Y-57550000D03*
%TO.P,J2,B6,DP2*%
%TO.N,unconnected-(J2-DP2-PadB6)*%
X182800000Y-56750000D03*
%TD*%
D14*
%TO.P,J1,SH1,SHIELD*%
%TO.N,GND*%
X55450000Y-52650000D03*
%TO.P,J1,SH2,SHIELD__1*%
X55450000Y-61650000D03*
D15*
%TO.P,J1,SH3,SHIELD__2*%
X61050000Y-52650000D03*
%TO.P,J1,SH4,SHIELD__3*%
X61050000Y-61650000D03*
D16*
%TO.P,J1,B12,GND__3*%
X60250000Y-54100000D03*
%TO.P,J1,B1,GND__2*%
X60250000Y-60200000D03*
%TO.P,J1,B11,SSRXP1*%
%TO.N,unconnected-(J1-SSRXP1-PadB11)*%
X59550000Y-54750000D03*
%TO.P,J1,B2,SSTXP2*%
%TO.N,unconnected-(J1-SSTXP2-PadB2)*%
X59550000Y-59550000D03*
%TO.P,J1,B10,SSRXN1*%
%TO.N,unconnected-(J1-SSRXN1-PadB10)*%
X59550000Y-55550000D03*
%TO.P,J1,B3,SSTXN2*%
%TO.N,unconnected-(J1-SSTXN2-PadB3)*%
X59550000Y-58750000D03*
%TO.P,J1,B8,SBU2*%
%TO.N,unconnected-(J1-SBU2-PadB8)*%
X59550000Y-56350000D03*
%TO.P,J1,B5,CC2*%
%TO.N,Net-(J1-CC2)*%
X59550000Y-57950000D03*
%TO.P,J1,B9,VBUS__3*%
%TO.N,VBUS*%
X60250000Y-55950000D03*
%TO.P,J1,B4,VBUS__2*%
X60250000Y-58350000D03*
%TO.P,J1,B7,DN2*%
%TO.N,unconnected-(J1-DN2-PadB7)*%
X60250000Y-56750000D03*
%TO.P,J1,B6,DP2*%
%TO.N,unconnected-(J1-DP2-PadB6)*%
X60250000Y-57550000D03*
%TD*%
D17*
%TO.N,GND*%
X99650000Y-80000000D03*
X158700000Y-62250000D03*
X105400000Y-68250000D03*
X155900000Y-66950000D03*
X71800000Y-69300000D03*
X85450000Y-69250000D03*
X81250000Y-69300000D03*
X161500000Y-60200000D03*
X155900000Y-60250000D03*
X158450000Y-55550000D03*
X135800000Y-60250000D03*
X135800000Y-67050000D03*
X139650000Y-66800000D03*
X118150000Y-55550000D03*
X138250000Y-55550000D03*
X139650000Y-60450000D03*
D18*
X120600000Y-60450000D03*
X119550000Y-66600000D03*
X115900000Y-66550000D03*
X118050000Y-60400000D03*
X116000000Y-59400000D03*
X119550000Y-60150000D03*
X79650000Y-66550000D03*
X76000000Y-66100000D03*
X95750000Y-59400000D03*
X98700000Y-55650000D03*
X100200000Y-60200000D03*
X99000000Y-66550000D03*
X96050000Y-66200000D03*
D17*
X167950000Y-88150000D03*
X151700000Y-88200000D03*
X168200000Y-80100000D03*
X151700000Y-80050000D03*
X168750000Y-74000000D03*
X152050000Y-73250000D03*
X147550000Y-88400000D03*
X132600000Y-87800000D03*
X146600000Y-79950000D03*
X132350000Y-80150000D03*
X148100000Y-72650000D03*
X132150000Y-73000000D03*
X130200000Y-55500000D03*
X88350000Y-55500000D03*
X108700000Y-55650000D03*
X111150000Y-60500000D03*
X151000000Y-60200000D03*
X131400000Y-60250000D03*
X170750000Y-52500000D03*
X170750000Y-57300000D03*
X170900000Y-65350000D03*
X175750000Y-65450000D03*
X187000000Y-65500000D03*
X68600000Y-53000000D03*
X72450000Y-60150000D03*
X91100000Y-60050000D03*
X111500000Y-80000000D03*
X125800000Y-79400000D03*
X126750000Y-72950000D03*
X127900000Y-87950000D03*
X111700000Y-88250000D03*
X110900000Y-71900000D03*
X92050000Y-71250000D03*
X97250000Y-80000000D03*
X106850000Y-79850000D03*
X107200000Y-87100000D03*
X93100000Y-88600000D03*
X87150000Y-89600000D03*
X86500000Y-80500000D03*
X73350000Y-88550000D03*
X73400000Y-80550000D03*
X67750000Y-93100000D03*
X53550000Y-93150000D03*
X60500000Y-65200000D03*
X54250000Y-65050000D03*
D18*
X79650000Y-60200000D03*
X75900000Y-59400000D03*
X78850000Y-55700000D03*
%TO.N,RSET4*%
X121500000Y-57400000D03*
%TO.N,RSET1*%
X122050000Y-56900000D03*
%TO.N,RSET3*%
X116700000Y-58900000D03*
%TO.N,RSET2*%
X117150000Y-58400000D03*
%TO.N,VBUS*%
X151650000Y-61700000D03*
D17*
X167200000Y-61700000D03*
X132100000Y-61700000D03*
D18*
X111450000Y-61700000D03*
D17*
X127300000Y-61700000D03*
X107150000Y-61700000D03*
X87400000Y-61700000D03*
D18*
%TO.N,Net-(J2-CC2)*%
X178600000Y-55800000D03*
%TO.N,Net-(J2-CC1)*%
X178500000Y-57500000D03*
X180950000Y-57750000D03*
%TO.N,VBUS*%
X163450000Y-61700000D03*
%TO.N,RSET7*%
X157200000Y-65200000D03*
%TO.N,RSET6*%
X157650000Y-64700000D03*
%TO.N,RSET8*%
X161850000Y-63700000D03*
%TO.N,RSET5*%
X162300000Y-63200000D03*
%TO.N,RSET3*%
X157200000Y-58900000D03*
%TO.N,RSET2*%
X157650000Y-58400000D03*
%TO.N,RSET4*%
X162400000Y-57100000D03*
%TO.N,RSET1*%
X161771446Y-56900000D03*
%TO.N,RSET7*%
X137200000Y-65200000D03*
%TO.N,RSET6*%
X137600000Y-64700000D03*
%TO.N,RSET8*%
X142392894Y-63699999D03*
%TO.N,RSET5*%
X141950000Y-63200000D03*
%TO.N,VBUS*%
X143400000Y-61700000D03*
%TO.N,RSET2*%
X137500000Y-58400000D03*
%TO.N,RSET3*%
X137050000Y-58900000D03*
%TO.N,RSET4*%
X141750000Y-57400000D03*
%TO.N,RSET1*%
X142200000Y-56900000D03*
%TO.N,RSET7*%
X116700000Y-65200000D03*
%TO.N,RSET6*%
X117200000Y-64700000D03*
%TO.N,RSET8*%
X121700000Y-63700000D03*
%TO.N,RSET5*%
X121350000Y-63200000D03*
%TO.N,VBUS*%
X123050000Y-61700000D03*
%TO.N,RSET8*%
X101700000Y-63700000D03*
%TO.N,RSET5*%
X101250000Y-63200000D03*
%TO.N,RSET7*%
X96600000Y-65200000D03*
%TO.N,RSET6*%
X97150000Y-64700000D03*
%TO.N,RSET4*%
X67850000Y-71900000D03*
%TO.N,RSET8*%
X69650000Y-81600000D03*
%TO.N,VBUS*%
X83150000Y-61700000D03*
X102950000Y-61700000D03*
%TO.N,RSET4*%
X101450000Y-57400000D03*
%TO.N,RSET1*%
X102000000Y-56900000D03*
%TO.N,RSET3*%
X96500000Y-58900000D03*
%TO.N,RSET2*%
X97000000Y-58400000D03*
D17*
%TO.N,VBUS*%
X71000000Y-60600000D03*
D18*
%TO.N,RSET8*%
X81800000Y-63700000D03*
%TO.N,RSET5*%
X81400000Y-63200000D03*
%TO.N,RSET7*%
X76750000Y-65200000D03*
%TO.N,RSET6*%
X77250000Y-64700000D03*
%TO.N,RSET3*%
X76550000Y-58900000D03*
%TO.N,RSET2*%
X77050000Y-58400000D03*
%TO.N,RSET4*%
X81900000Y-57400000D03*
%TO.N,RSET1*%
X81450000Y-56900000D03*
%TO.N,RSET7*%
X65700000Y-85950000D03*
%TO.N,RSET6*%
X65650000Y-83400000D03*
%TO.N,RSET5*%
X65550000Y-80850000D03*
%TO.N,RSET3*%
X65550000Y-75800000D03*
%TO.N,RSET2*%
X65450000Y-73250000D03*
%TO.N,RSET1*%
X65600000Y-70700000D03*
%TO.N,Net-(J1-CC1)*%
X63700000Y-56600000D03*
%TO.N,Net-(J1-CC2)*%
X63650000Y-58000000D03*
X62650000Y-60250000D03*
%TO.N,Net-(J1-CC1)*%
X62150000Y-56600000D03*
%TD*%
D19*
%TO.N,RSET7*%
X76750000Y-65200000D02*
X157700000Y-65200000D01*
%TO.N,RSET4*%
X162350000Y-57100000D02*
X162400000Y-57100000D01*
X68250000Y-71500000D02*
X67850000Y-71900000D01*
X81900000Y-57400000D02*
X162050000Y-57400000D01*
X162050000Y-57400000D02*
X162350000Y-57100000D01*
X68250000Y-58050000D02*
X68250000Y-71500000D01*
X81900000Y-57400000D02*
X68900000Y-57400000D01*
X68900000Y-57400000D02*
X68250000Y-58050000D01*
%TO.N,RSET3*%
X76550000Y-58900000D02*
X157700000Y-58900000D01*
%TO.N,RSET1*%
X81450000Y-56900000D02*
X68300000Y-56900000D01*
X81450000Y-56900000D02*
X161771446Y-56900000D01*
X68300000Y-56900000D02*
X67750000Y-57450000D01*
X67750000Y-57450000D02*
X67750000Y-69550000D01*
X67750000Y-69550000D02*
X66600000Y-70700000D01*
X66600000Y-70700000D02*
X65600000Y-70700000D01*
%TO.N,RSET5*%
X81400000Y-63200000D02*
X162300000Y-63200000D01*
%TO.N,RSET8*%
X81800000Y-63700000D02*
X70800000Y-63700000D01*
X70800000Y-63700000D02*
X69850000Y-64650000D01*
X69850000Y-64650000D02*
X69850000Y-81400000D01*
X69850000Y-81400000D02*
X69650000Y-81600000D01*
X81800000Y-63700000D02*
X161850000Y-63700000D01*
X81800000Y-63700000D02*
X81350000Y-63700000D01*
D20*
%TO.N,VBUS*%
X71000000Y-60600000D02*
X72100000Y-61700000D01*
X72100000Y-61700000D02*
X107150000Y-61700000D01*
X107150000Y-61700000D02*
X167200000Y-61700000D01*
D19*
%TO.N,RSET3*%
X77150000Y-58900000D02*
X69850000Y-58900000D01*
X69850000Y-58900000D02*
X69050000Y-59700000D01*
X69050000Y-59700000D02*
X69050000Y-74850000D01*
X69050000Y-74850000D02*
X68100000Y-75800000D01*
X68100000Y-75800000D02*
X65500000Y-75800000D01*
%TO.N,Net-(J2-CC2)*%
X183500000Y-56350000D02*
X184300000Y-56350000D01*
X184300000Y-56350000D02*
X184750000Y-55900000D01*
X183900000Y-51600000D02*
X179250000Y-51600000D01*
X184750000Y-55900000D02*
X184750000Y-52450000D01*
X184750000Y-52450000D02*
X183900000Y-51600000D01*
X179250000Y-51600000D02*
X178600000Y-52250000D01*
X178600000Y-52250000D02*
X178600000Y-55800000D01*
%TO.N,Net-(J2-CC1)*%
X178500000Y-57500000D02*
X180700000Y-57500000D01*
X180700000Y-57500000D02*
X180950000Y-57750000D01*
%TO.N,RSET2*%
X77050000Y-58400000D02*
X157700000Y-58400000D01*
%TO.N,RSET6*%
X77250000Y-64700000D02*
X157700000Y-64700000D01*
%TO.N,RSET7*%
X77300000Y-65200000D02*
X71600000Y-65200000D01*
X70650000Y-85200000D02*
X69900000Y-85950000D01*
X71600000Y-65200000D02*
X70650000Y-66150000D01*
X70650000Y-66150000D02*
X70650000Y-85200000D01*
X69900000Y-85950000D02*
X65600000Y-85950000D01*
%TO.N,RSET6*%
X77300000Y-64700000D02*
X71150000Y-64700000D01*
X71150000Y-64700000D02*
X70250000Y-65600000D01*
X69300000Y-83400000D02*
X65650000Y-83400000D01*
X70250000Y-65600000D02*
X70250000Y-82450000D01*
X70250000Y-82450000D02*
X69300000Y-83400000D01*
%TO.N,RSET5*%
X81400000Y-63200000D02*
X70650000Y-63200000D01*
X69450000Y-80350000D02*
X68950000Y-80850000D01*
X70650000Y-63200000D02*
X69450000Y-64400000D01*
X69450000Y-64400000D02*
X69450000Y-80350000D01*
X68950000Y-80850000D02*
X65550000Y-80850000D01*
%TO.N,Net-(J1-CC2)*%
X63650000Y-58000000D02*
X62650000Y-59000000D01*
X62650000Y-59000000D02*
X62650000Y-60250000D01*
%TO.N,Net-(J1-CC1)*%
X63700000Y-56650000D02*
X62150000Y-56650000D01*
%TO.N,RSET2*%
X77150000Y-58400000D02*
X69000000Y-58400000D01*
X68200000Y-73250000D02*
X65450000Y-73250000D01*
X68650000Y-72800000D02*
X68200000Y-73250000D01*
X68650000Y-58750000D02*
X68650000Y-72800000D01*
X69000000Y-58400000D02*
X68650000Y-58750000D01*
%TD*%
%TA.AperFunction,Conductor*%
%TO.N,GND*%
G36*
X54655660Y-51520185D02*
G01*
X54701415Y-51572989D01*
X54711359Y-51642147D01*
X54682334Y-51705703D01*
X54636073Y-51739061D01*
X54576328Y-51763807D01*
X54576315Y-51763814D01*
X54412537Y-51873248D01*
X54412533Y-51873251D01*
X54273251Y-52012533D01*
X54273248Y-52012537D01*
X54163814Y-52176315D01*
X54163807Y-52176328D01*
X54088430Y-52358307D01*
X54088430Y-52358309D01*
X54080138Y-52400000D01*
X55000272Y-52400000D01*
X54908386Y-52438060D01*
X54838060Y-52508386D01*
X54800000Y-52600272D01*
X54800000Y-52699728D01*
X54838060Y-52791614D01*
X54908386Y-52861940D01*
X55000272Y-52900000D01*
X54080138Y-52900000D01*
X54088430Y-52941690D01*
X54088430Y-52941692D01*
X54163807Y-53123671D01*
X54163814Y-53123684D01*
X54273248Y-53287462D01*
X54273251Y-53287466D01*
X54412533Y-53426748D01*
X54412537Y-53426751D01*
X54576315Y-53536185D01*
X54576328Y-53536192D01*
X54758306Y-53611569D01*
X54758318Y-53611572D01*
X54951504Y-53649999D01*
X54951508Y-53650000D01*
X55200000Y-53650000D01*
X55200000Y-52900000D01*
X55700000Y-52900000D01*
X55700000Y-53650000D01*
X55948492Y-53650000D01*
X55948495Y-53649999D01*
X56141681Y-53611572D01*
X56141693Y-53611569D01*
X56323671Y-53536192D01*
X56323684Y-53536185D01*
X56487462Y-53426751D01*
X56487466Y-53426748D01*
X56626748Y-53287466D01*
X56626751Y-53287462D01*
X56736185Y-53123684D01*
X56736192Y-53123671D01*
X56811569Y-52941692D01*
X56811569Y-52941690D01*
X56819862Y-52900000D01*
X55899728Y-52900000D01*
X55991614Y-52861940D01*
X56061940Y-52791614D01*
X56100000Y-52699728D01*
X56100000Y-52600272D01*
X56061940Y-52508386D01*
X55991614Y-52438060D01*
X55899728Y-52400000D01*
X56819862Y-52400000D01*
X56811569Y-52358309D01*
X56811569Y-52358307D01*
X56736192Y-52176328D01*
X56736185Y-52176315D01*
X56626751Y-52012537D01*
X56626748Y-52012533D01*
X56487466Y-51873251D01*
X56487462Y-51873248D01*
X56323684Y-51763814D01*
X56323671Y-51763807D01*
X56263927Y-51739061D01*
X56209523Y-51695220D01*
X56187458Y-51628926D01*
X56204737Y-51561227D01*
X56255874Y-51513616D01*
X56311379Y-51500500D01*
X60288621Y-51500500D01*
X60355660Y-51520185D01*
X60401415Y-51572989D01*
X60411359Y-51642147D01*
X60382334Y-51705703D01*
X60336073Y-51739061D01*
X60276328Y-51763807D01*
X60276315Y-51763814D01*
X60112537Y-51873248D01*
X60112533Y-51873251D01*
X59973251Y-52012533D01*
X59973248Y-52012537D01*
X59863814Y-52176315D01*
X59863807Y-52176328D01*
X59788430Y-52358307D01*
X59788430Y-52358309D01*
X59780138Y-52400000D01*
X60700272Y-52400000D01*
X60608386Y-52438060D01*
X60538060Y-52508386D01*
X60500000Y-52600272D01*
X60500000Y-52699728D01*
X60538060Y-52791614D01*
X60608386Y-52861940D01*
X60700272Y-52900000D01*
X59824035Y-52900000D01*
X59776585Y-52890562D01*
X59772138Y-52888720D01*
X59772135Y-52888719D01*
X59625766Y-52849500D01*
X59474234Y-52849500D01*
X59327863Y-52888719D01*
X59196635Y-52964485D01*
X59196632Y-52964487D01*
X59089487Y-53071632D01*
X59089485Y-53071635D01*
X59013719Y-53202863D01*
X58991050Y-53287466D01*
X58974500Y-53349234D01*
X58974500Y-53500766D01*
X58983992Y-53536192D01*
X59013719Y-53647136D01*
X59015373Y-53650000D01*
X59089485Y-53778365D01*
X59089487Y-53778367D01*
X59152382Y-53841262D01*
X59185867Y-53902585D01*
X59180883Y-53972277D01*
X59139011Y-54028210D01*
X59137587Y-54029261D01*
X58994588Y-54133156D01*
X58878477Y-54262112D01*
X58791712Y-54412391D01*
X58738093Y-54577420D01*
X58738092Y-54577424D01*
X58719953Y-54750000D01*
X58738092Y-54922576D01*
X58738093Y-54922579D01*
X58791713Y-55087610D01*
X58791717Y-55087620D01*
X58791944Y-55088012D01*
X58792005Y-55088267D01*
X58794359Y-55093553D01*
X58793391Y-55093983D01*
X58808409Y-55155914D01*
X58793662Y-55206136D01*
X58794359Y-55206447D01*
X58792044Y-55211646D01*
X58791944Y-55211988D01*
X58791717Y-55212379D01*
X58791713Y-55212389D01*
X58752475Y-55333156D01*
X58738092Y-55377424D01*
X58719953Y-55550000D01*
X58738092Y-55722576D01*
X58738093Y-55722579D01*
X58791713Y-55887610D01*
X58791717Y-55887620D01*
X58791944Y-55888012D01*
X58792005Y-55888267D01*
X58794359Y-55893553D01*
X58793391Y-55893983D01*
X58808409Y-55955914D01*
X58793662Y-56006136D01*
X58794359Y-56006447D01*
X58792044Y-56011646D01*
X58791944Y-56011988D01*
X58791717Y-56012379D01*
X58791713Y-56012389D01*
X58740252Y-56170775D01*
X58738092Y-56177424D01*
X58719953Y-56350000D01*
X58738092Y-56522576D01*
X58738093Y-56522579D01*
X58791712Y-56687608D01*
X58827735Y-56750000D01*
X58874223Y-56830520D01*
X58878477Y-56837887D01*
X58878476Y-56837887D01*
X58970801Y-56940424D01*
X58994590Y-56966845D01*
X59084367Y-57032072D01*
X59108605Y-57049682D01*
X59151270Y-57105012D01*
X59157249Y-57174626D01*
X59124643Y-57236421D01*
X59108605Y-57250318D01*
X58994588Y-57333156D01*
X58878477Y-57462112D01*
X58791712Y-57612391D01*
X58738093Y-57777420D01*
X58738092Y-57777424D01*
X58719953Y-57950000D01*
X58738092Y-58122576D01*
X58738093Y-58122579D01*
X58791713Y-58287610D01*
X58791717Y-58287620D01*
X58791944Y-58288012D01*
X58792005Y-58288267D01*
X58794359Y-58293553D01*
X58793391Y-58293983D01*
X58808409Y-58355914D01*
X58793662Y-58406136D01*
X58794359Y-58406447D01*
X58792044Y-58411646D01*
X58791944Y-58411988D01*
X58791717Y-58412379D01*
X58791713Y-58412389D01*
X58738093Y-58577420D01*
X58738092Y-58577424D01*
X58719953Y-58750000D01*
X58738092Y-58922576D01*
X58738093Y-58922579D01*
X58791713Y-59087610D01*
X58791717Y-59087620D01*
X58791944Y-59088012D01*
X58792005Y-59088267D01*
X58794359Y-59093553D01*
X58793391Y-59093983D01*
X58808409Y-59155914D01*
X58793662Y-59206136D01*
X58794359Y-59206447D01*
X58792044Y-59211646D01*
X58791944Y-59211988D01*
X58791717Y-59212379D01*
X58791713Y-59212389D01*
X58742664Y-59363351D01*
X58738092Y-59377424D01*
X58719953Y-59550000D01*
X58738092Y-59722576D01*
X58738093Y-59722579D01*
X58791712Y-59887608D01*
X58878477Y-60037887D01*
X58878476Y-60037887D01*
X58893053Y-60054076D01*
X58923283Y-60117067D01*
X58914658Y-60186402D01*
X58904005Y-60205938D01*
X58818452Y-60333977D01*
X58818450Y-60333980D01*
X58756225Y-60484206D01*
X58756222Y-60484216D01*
X58724500Y-60643692D01*
X58724500Y-60643695D01*
X58724500Y-60659108D01*
X58724500Y-60959108D01*
X58724500Y-61025000D01*
X58724500Y-61106305D01*
X58724500Y-61106307D01*
X58724499Y-61106307D01*
X58756222Y-61265783D01*
X58756225Y-61265793D01*
X58818450Y-61416019D01*
X58818452Y-61416023D01*
X58908788Y-61551220D01*
X58908794Y-61551228D01*
X59023771Y-61666205D01*
X59023779Y-61666211D01*
X59158976Y-61756547D01*
X59158980Y-61756549D01*
X59309206Y-61818774D01*
X59309211Y-61818776D01*
X59309215Y-61818776D01*
X59309216Y-61818777D01*
X59468692Y-61850500D01*
X59468695Y-61850500D01*
X59631303Y-61850500D01*
X59631305Y-61850500D01*
X59643378Y-61848098D01*
X59712967Y-61854321D01*
X59768147Y-61897181D01*
X59785180Y-61936305D01*
X59786660Y-61935857D01*
X59788430Y-61941693D01*
X59863807Y-62123671D01*
X59863814Y-62123684D01*
X59973248Y-62287462D01*
X59973251Y-62287466D01*
X60112533Y-62426748D01*
X60112537Y-62426751D01*
X60276315Y-62536185D01*
X60276328Y-62536192D01*
X60458306Y-62611569D01*
X60458318Y-62611572D01*
X60651504Y-62649999D01*
X60651508Y-62650000D01*
X60800000Y-62650000D01*
X60800000Y-61900000D01*
X61300000Y-61900000D01*
X61300000Y-62650000D01*
X61448492Y-62650000D01*
X61448495Y-62649999D01*
X61641681Y-62611572D01*
X61641693Y-62611569D01*
X61823671Y-62536192D01*
X61823684Y-62536185D01*
X61987462Y-62426751D01*
X61987466Y-62426748D01*
X62126748Y-62287466D01*
X62126751Y-62287462D01*
X62236185Y-62123684D01*
X62236192Y-62123671D01*
X62311569Y-61941692D01*
X62311569Y-61941690D01*
X62319862Y-61900000D01*
X61399728Y-61900000D01*
X61491614Y-61861940D01*
X61561940Y-61791614D01*
X61600000Y-61699728D01*
X61600000Y-61600272D01*
X61561940Y-61508386D01*
X61491614Y-61438060D01*
X61399728Y-61400000D01*
X62319862Y-61400000D01*
X62311569Y-61358309D01*
X62311569Y-61358307D01*
X62236192Y-61176328D01*
X62236185Y-61176315D01*
X62144248Y-61038722D01*
X62123370Y-60972044D01*
X62141854Y-60904664D01*
X62193833Y-60857974D01*
X62262803Y-60846798D01*
X62304973Y-60860034D01*
X62399775Y-60909790D01*
X62564944Y-60950500D01*
X62735056Y-60950500D01*
X62900225Y-60909790D01*
X63020245Y-60846798D01*
X63050849Y-60830736D01*
X63050850Y-60830734D01*
X63050852Y-60830734D01*
X63178183Y-60717929D01*
X63274818Y-60577930D01*
X63335140Y-60418872D01*
X63355645Y-60250000D01*
X63335140Y-60081128D01*
X63274818Y-59922070D01*
X63272448Y-59918637D01*
X63271489Y-59915727D01*
X63271331Y-59915426D01*
X63271381Y-59915399D01*
X63250567Y-59852283D01*
X63250500Y-59848199D01*
X63250500Y-59300097D01*
X63270185Y-59233058D01*
X63286819Y-59212416D01*
X63532392Y-58966843D01*
X63795123Y-58704111D01*
X63853125Y-58671398D01*
X63900225Y-58659790D01*
X64050852Y-58580734D01*
X64178183Y-58467929D01*
X64274818Y-58327930D01*
X64335140Y-58168872D01*
X64355645Y-58000000D01*
X64335140Y-57831128D01*
X64328618Y-57813932D01*
X64274817Y-57672068D01*
X64212045Y-57581128D01*
X64178183Y-57532071D01*
X64050852Y-57419266D01*
X64050847Y-57419263D01*
X64044948Y-57415191D01*
X64000960Y-57360906D01*
X63993303Y-57291457D01*
X64024408Y-57228894D01*
X64057766Y-57203347D01*
X64100852Y-57180734D01*
X64228183Y-57067929D01*
X64324818Y-56927930D01*
X64385140Y-56768872D01*
X64405645Y-56600000D01*
X64385140Y-56431128D01*
X64324818Y-56272070D01*
X64321958Y-56267927D01*
X64254899Y-56170776D01*
X64228183Y-56132071D01*
X64133316Y-56048026D01*
X64100849Y-56019263D01*
X63950226Y-55940210D01*
X63785056Y-55899500D01*
X63614944Y-55899500D01*
X63449773Y-55940210D01*
X63299154Y-56019261D01*
X63292980Y-56023524D01*
X63292039Y-56022160D01*
X63236989Y-56048037D01*
X63217994Y-56049500D01*
X62632006Y-56049500D01*
X62564967Y-56029815D01*
X62552925Y-56020697D01*
X62550845Y-56019261D01*
X62400226Y-55940210D01*
X62235056Y-55899500D01*
X62064944Y-55899500D01*
X61899773Y-55940210D01*
X61749150Y-56019263D01*
X61621816Y-56132072D01*
X61525182Y-56272068D01*
X61464860Y-56431125D01*
X61464859Y-56431130D01*
X61444355Y-56600000D01*
X61464859Y-56768869D01*
X61464860Y-56768874D01*
X61525182Y-56927931D01*
X61587475Y-57018177D01*
X61621817Y-57067929D01*
X61727505Y-57161560D01*
X61749150Y-57180736D01*
X61897428Y-57258558D01*
X61899775Y-57259790D01*
X62064944Y-57300500D01*
X62235056Y-57300500D01*
X62400225Y-57259790D01*
X62400230Y-57259787D01*
X62403473Y-57258558D01*
X62447445Y-57250500D01*
X63112684Y-57250500D01*
X63179723Y-57270185D01*
X63225478Y-57322989D01*
X63235422Y-57392147D01*
X63206397Y-57455703D01*
X63194911Y-57467315D01*
X63121818Y-57532069D01*
X63025182Y-57672068D01*
X63025182Y-57672069D01*
X62971381Y-57813932D01*
X62943120Y-57857642D01*
X62281286Y-58519478D01*
X62169481Y-58631282D01*
X62169480Y-58631284D01*
X62128167Y-58702841D01*
X62090423Y-58768215D01*
X62049499Y-58920943D01*
X62049499Y-58920945D01*
X62049499Y-59089046D01*
X62049500Y-59089059D01*
X62049500Y-59848199D01*
X62029815Y-59915238D01*
X62027551Y-59918638D01*
X62025182Y-59922069D01*
X61964860Y-60081125D01*
X61964859Y-60081130D01*
X61944355Y-60250000D01*
X61964859Y-60418869D01*
X61964860Y-60418874D01*
X62025182Y-60577931D01*
X62025183Y-60577933D01*
X62067151Y-60638732D01*
X62089035Y-60705086D01*
X62071570Y-60772738D01*
X62020303Y-60820208D01*
X61951509Y-60832426D01*
X61896212Y-60812275D01*
X61823689Y-60763817D01*
X61823671Y-60763807D01*
X61641693Y-60688430D01*
X61641681Y-60688427D01*
X61448495Y-60650000D01*
X61300000Y-60650000D01*
X61300000Y-61400000D01*
X60800000Y-61400000D01*
X60800000Y-60731000D01*
X60819685Y-60663961D01*
X60872489Y-60618206D01*
X60924000Y-60607000D01*
X60967645Y-60607000D01*
X60967645Y-60606999D01*
X61007825Y-60537406D01*
X61061414Y-60372476D01*
X61061415Y-60372473D01*
X61079543Y-60200000D01*
X61061415Y-60027526D01*
X61061414Y-60027523D01*
X61007826Y-59862595D01*
X60983349Y-59820202D01*
X60463700Y-60339851D01*
X60402377Y-60373336D01*
X60361255Y-60370395D01*
X60363291Y-60369552D01*
X60419552Y-60313291D01*
X60450000Y-60239782D01*
X60450000Y-60160218D01*
X60419552Y-60086709D01*
X60363291Y-60030448D01*
X60289782Y-60000000D01*
X60243397Y-60000000D01*
X60308286Y-59887611D01*
X60346953Y-59768603D01*
X60377200Y-59719244D01*
X60630230Y-59466214D01*
X60506344Y-59411057D01*
X60438074Y-59396545D01*
X60376593Y-59363351D01*
X60342817Y-59302188D01*
X60347471Y-59232473D01*
X60389076Y-59176342D01*
X60438071Y-59153966D01*
X60506499Y-59139422D01*
X60665024Y-59068842D01*
X60805410Y-58966845D01*
X60921522Y-58837889D01*
X61008286Y-58687611D01*
X61061908Y-58522576D01*
X61080047Y-58350000D01*
X61061908Y-58177424D01*
X61008286Y-58012389D01*
X61008065Y-58012007D01*
X61008005Y-58011759D01*
X61005642Y-58006451D01*
X61006612Y-58006018D01*
X60991588Y-57944110D01*
X61006342Y-57893860D01*
X61005642Y-57893549D01*
X61007968Y-57888324D01*
X61008065Y-57887993D01*
X61008286Y-57887611D01*
X61061908Y-57722576D01*
X61080047Y-57550000D01*
X61061908Y-57377424D01*
X61008286Y-57212389D01*
X61008065Y-57212007D01*
X61008005Y-57211759D01*
X61005642Y-57206451D01*
X61006612Y-57206018D01*
X60991588Y-57144110D01*
X61006342Y-57093860D01*
X61005642Y-57093549D01*
X61007968Y-57088324D01*
X61008065Y-57087993D01*
X61008286Y-57087611D01*
X61061908Y-56922576D01*
X61080047Y-56750000D01*
X61061908Y-56577424D01*
X61008286Y-56412389D01*
X61008065Y-56412007D01*
X61008005Y-56411759D01*
X61005642Y-56406451D01*
X61006612Y-56406018D01*
X60991588Y-56344110D01*
X61006342Y-56293860D01*
X61005642Y-56293549D01*
X61007968Y-56288324D01*
X61008065Y-56287993D01*
X61008286Y-56287611D01*
X61061908Y-56122576D01*
X61080047Y-55950000D01*
X61061908Y-55777424D01*
X61008286Y-55612389D01*
X60921522Y-55462111D01*
X60805410Y-55333155D01*
X60665024Y-55231158D01*
X60665023Y-55231157D01*
X60506504Y-55160579D01*
X60506498Y-55160577D01*
X60438074Y-55146034D01*
X60376592Y-55112842D01*
X60342816Y-55051679D01*
X60347468Y-54981964D01*
X60389073Y-54925832D01*
X60438074Y-54903454D01*
X60506342Y-54888943D01*
X60506347Y-54888941D01*
X60630230Y-54833784D01*
X60630230Y-54833783D01*
X60377200Y-54580753D01*
X60346951Y-54531390D01*
X60308286Y-54412389D01*
X60243397Y-54300000D01*
X60289782Y-54300000D01*
X60363291Y-54269552D01*
X60419552Y-54213291D01*
X60450000Y-54139782D01*
X60450000Y-54060218D01*
X60419552Y-53986709D01*
X60363291Y-53930448D01*
X60289782Y-53900000D01*
X60210218Y-53900000D01*
X60136709Y-53930448D01*
X60080448Y-53986709D01*
X60050000Y-54060218D01*
X60050000Y-54074286D01*
X60039968Y-54061277D01*
X60033989Y-53991663D01*
X60066595Y-53929869D01*
X60067837Y-53928608D01*
X60162317Y-53834127D01*
X60223640Y-53800642D01*
X60293332Y-53805626D01*
X60337680Y-53834127D01*
X60983350Y-54479797D01*
X61007827Y-54437402D01*
X61061414Y-54272476D01*
X61061415Y-54272473D01*
X61079543Y-54100000D01*
X61061415Y-53927526D01*
X61061414Y-53927523D01*
X61007825Y-53762593D01*
X60967645Y-53693000D01*
X60924000Y-53693000D01*
X60856961Y-53673315D01*
X60811206Y-53620511D01*
X60800000Y-53569000D01*
X60800000Y-52900000D01*
X61300000Y-52900000D01*
X61300000Y-53650000D01*
X61448492Y-53650000D01*
X61448495Y-53649999D01*
X61641681Y-53611572D01*
X61641693Y-53611569D01*
X61823671Y-53536192D01*
X61823684Y-53536185D01*
X61987462Y-53426751D01*
X61987466Y-53426748D01*
X62126748Y-53287466D01*
X62126751Y-53287462D01*
X62236185Y-53123684D01*
X62236192Y-53123671D01*
X62311569Y-52941692D01*
X62311569Y-52941690D01*
X62319862Y-52900000D01*
X61399728Y-52900000D01*
X61491614Y-52861940D01*
X61561940Y-52791614D01*
X61600000Y-52699728D01*
X61600000Y-52600272D01*
X61561940Y-52508386D01*
X61491614Y-52438060D01*
X61399728Y-52400000D01*
X62319862Y-52400000D01*
X62311569Y-52358309D01*
X62311569Y-52358307D01*
X62236192Y-52176328D01*
X62236185Y-52176315D01*
X62126751Y-52012537D01*
X62126748Y-52012533D01*
X61987466Y-51873251D01*
X61987462Y-51873248D01*
X61823684Y-51763814D01*
X61823671Y-51763807D01*
X61763927Y-51739061D01*
X61709523Y-51695220D01*
X61687458Y-51628926D01*
X61704737Y-51561227D01*
X61755874Y-51513616D01*
X61811379Y-51500500D01*
X178200902Y-51500500D01*
X178267941Y-51520185D01*
X178313696Y-51572989D01*
X178323640Y-51642147D01*
X178294615Y-51705703D01*
X178288583Y-51712181D01*
X178119481Y-51881282D01*
X178119479Y-51881285D01*
X178069361Y-51968094D01*
X178069359Y-51968096D01*
X178040425Y-52018209D01*
X178040424Y-52018210D01*
X178040423Y-52018215D01*
X177999499Y-52170943D01*
X177999499Y-52170945D01*
X177999499Y-52339046D01*
X177999500Y-52339059D01*
X177999500Y-55398199D01*
X177979815Y-55465238D01*
X177977551Y-55468638D01*
X177975182Y-55472069D01*
X177914860Y-55631125D01*
X177914859Y-55631130D01*
X177894355Y-55800000D01*
X177914859Y-55968869D01*
X177914860Y-55968874D01*
X177975182Y-56127931D01*
X178037475Y-56218177D01*
X178071817Y-56267929D01*
X178171132Y-56355914D01*
X178199150Y-56380736D01*
X178349773Y-56459789D01*
X178349775Y-56459790D01*
X178514944Y-56500500D01*
X178685056Y-56500500D01*
X178850225Y-56459790D01*
X178929692Y-56418081D01*
X179000849Y-56380736D01*
X179000850Y-56380734D01*
X179000852Y-56380734D01*
X179128183Y-56267929D01*
X179224818Y-56127930D01*
X179285140Y-55968872D01*
X179305645Y-55800000D01*
X179285140Y-55631128D01*
X179224818Y-55472070D01*
X179222448Y-55468637D01*
X179221489Y-55465727D01*
X179221331Y-55465426D01*
X179221381Y-55465399D01*
X179200567Y-55402283D01*
X179200500Y-55398199D01*
X179200500Y-52550097D01*
X179220185Y-52483058D01*
X179236819Y-52462416D01*
X179462416Y-52236819D01*
X179523739Y-52203334D01*
X179550097Y-52200500D01*
X180619106Y-52200500D01*
X180686145Y-52220185D01*
X180731900Y-52272989D01*
X180741844Y-52342147D01*
X180739581Y-52352329D01*
X180739618Y-52352337D01*
X180730138Y-52400000D01*
X181650272Y-52400000D01*
X181558386Y-52438060D01*
X181488060Y-52508386D01*
X181450000Y-52600272D01*
X181450000Y-52699728D01*
X181488060Y-52791614D01*
X181558386Y-52861940D01*
X181650272Y-52900000D01*
X180730138Y-52900000D01*
X180738430Y-52941690D01*
X180738430Y-52941692D01*
X180813807Y-53123671D01*
X180813814Y-53123684D01*
X180923248Y-53287462D01*
X180923251Y-53287466D01*
X181062533Y-53426748D01*
X181062537Y-53426751D01*
X181226315Y-53536185D01*
X181226328Y-53536192D01*
X181408306Y-53611569D01*
X181408318Y-53611572D01*
X181601504Y-53649999D01*
X181601508Y-53650000D01*
X181750000Y-53650000D01*
X181750000Y-52900000D01*
X182250000Y-52900000D01*
X182250000Y-53569000D01*
X182230315Y-53636039D01*
X182177511Y-53681794D01*
X182126000Y-53693000D01*
X182082355Y-53693000D01*
X182042174Y-53762593D01*
X181988585Y-53927523D01*
X181988584Y-53927526D01*
X181970456Y-54100000D01*
X181988584Y-54272473D01*
X181988585Y-54272476D01*
X182042174Y-54437407D01*
X182066649Y-54479797D01*
X182586299Y-53960147D01*
X182647622Y-53926662D01*
X182688748Y-53929603D01*
X182686709Y-53930448D01*
X182630448Y-53986709D01*
X182600000Y-54060218D01*
X182600000Y-54139782D01*
X182630448Y-54213291D01*
X182686709Y-54269552D01*
X182760218Y-54300000D01*
X182806601Y-54300000D01*
X182741714Y-54412388D01*
X182741711Y-54412394D01*
X182703048Y-54531390D01*
X182672798Y-54580753D01*
X182419767Y-54833783D01*
X182543659Y-54888943D01*
X182611924Y-54903454D01*
X182673406Y-54936647D01*
X182707182Y-54997810D01*
X182702530Y-55067524D01*
X182660925Y-55123656D01*
X182611924Y-55146034D01*
X182543501Y-55160577D01*
X182543496Y-55160579D01*
X182384977Y-55231157D01*
X182384972Y-55231160D01*
X182244591Y-55333153D01*
X182244589Y-55333155D01*
X182128477Y-55462112D01*
X182041712Y-55612391D01*
X181988093Y-55777420D01*
X181988092Y-55777424D01*
X181969953Y-55950000D01*
X181988092Y-56122576D01*
X181988093Y-56122579D01*
X182041713Y-56287610D01*
X182041717Y-56287620D01*
X182041944Y-56288012D01*
X182042005Y-56288267D01*
X182044359Y-56293553D01*
X182043391Y-56293983D01*
X182058409Y-56355914D01*
X182043662Y-56406136D01*
X182044359Y-56406447D01*
X182042044Y-56411646D01*
X182041944Y-56411988D01*
X182041717Y-56412379D01*
X182041713Y-56412389D01*
X181988093Y-56577420D01*
X181988092Y-56577424D01*
X181969953Y-56750000D01*
X181988092Y-56922576D01*
X181988093Y-56922579D01*
X182041713Y-57087610D01*
X182041717Y-57087620D01*
X182041944Y-57088012D01*
X182042005Y-57088267D01*
X182044359Y-57093553D01*
X182043391Y-57093983D01*
X182058409Y-57155914D01*
X182043662Y-57206136D01*
X182044359Y-57206447D01*
X182042044Y-57211646D01*
X182041944Y-57211988D01*
X182041717Y-57212379D01*
X182041713Y-57212389D01*
X181990197Y-57370945D01*
X181988092Y-57377424D01*
X181969953Y-57550000D01*
X181988092Y-57722576D01*
X181988093Y-57722579D01*
X182041713Y-57887610D01*
X182041717Y-57887620D01*
X182041944Y-57888012D01*
X182042005Y-57888267D01*
X182044359Y-57893553D01*
X182043391Y-57893983D01*
X182058409Y-57955914D01*
X182043662Y-58006136D01*
X182044359Y-58006447D01*
X182042044Y-58011646D01*
X182041944Y-58011988D01*
X182041717Y-58012379D01*
X182041713Y-58012389D01*
X181990870Y-58168874D01*
X181988092Y-58177424D01*
X181969953Y-58350000D01*
X181988092Y-58522576D01*
X181988093Y-58522579D01*
X182041712Y-58687608D01*
X182128477Y-58837887D01*
X182128476Y-58837887D01*
X182203262Y-58920945D01*
X182244590Y-58966845D01*
X182384976Y-59068842D01*
X182543495Y-59139420D01*
X182543498Y-59139420D01*
X182543501Y-59139422D01*
X182611922Y-59153965D01*
X182673404Y-59187157D01*
X182707181Y-59248320D01*
X182702529Y-59318034D01*
X182660925Y-59374167D01*
X182611925Y-59396545D01*
X182543657Y-59411056D01*
X182419767Y-59466215D01*
X182672798Y-59719245D01*
X182703048Y-59768608D01*
X182730235Y-59852283D01*
X182741714Y-59887611D01*
X182777005Y-59948735D01*
X182806603Y-60000000D01*
X182760218Y-60000000D01*
X182686709Y-60030448D01*
X182630448Y-60086709D01*
X182600000Y-60160218D01*
X182600000Y-60239782D01*
X182630448Y-60313291D01*
X182686709Y-60369552D01*
X182760218Y-60400000D01*
X182839782Y-60400000D01*
X182913291Y-60369552D01*
X182969552Y-60313291D01*
X183000000Y-60239782D01*
X183000000Y-60225714D01*
X183010031Y-60238723D01*
X183016009Y-60308337D01*
X182983402Y-60370131D01*
X182982160Y-60371391D01*
X182887680Y-60465871D01*
X182826357Y-60499356D01*
X182756665Y-60494372D01*
X182712318Y-60465871D01*
X182066649Y-59820202D01*
X182042173Y-59862595D01*
X181988585Y-60027523D01*
X181988584Y-60027526D01*
X181970456Y-60200000D01*
X181988584Y-60372473D01*
X181988585Y-60372476D01*
X182042174Y-60537406D01*
X182082354Y-60606999D01*
X182082355Y-60607000D01*
X182126000Y-60607000D01*
X182193039Y-60626685D01*
X182238794Y-60679489D01*
X182250000Y-60731000D01*
X182250000Y-61400000D01*
X181750000Y-61400000D01*
X181750000Y-60650000D01*
X181601504Y-60650000D01*
X181408318Y-60688427D01*
X181408306Y-60688430D01*
X181226328Y-60763807D01*
X181226315Y-60763814D01*
X181062537Y-60873248D01*
X181062533Y-60873251D01*
X180923251Y-61012533D01*
X180923248Y-61012537D01*
X180813814Y-61176315D01*
X180813807Y-61176328D01*
X180738430Y-61358307D01*
X180738430Y-61358309D01*
X180730138Y-61400000D01*
X181650272Y-61400000D01*
X181558386Y-61438060D01*
X181488060Y-61508386D01*
X181450000Y-61600272D01*
X181450000Y-61699728D01*
X181488060Y-61791614D01*
X181558386Y-61861940D01*
X181650272Y-61900000D01*
X180730138Y-61900000D01*
X180738430Y-61941690D01*
X180738430Y-61941692D01*
X180813807Y-62123671D01*
X180813814Y-62123684D01*
X180923248Y-62287462D01*
X180923251Y-62287466D01*
X181062533Y-62426748D01*
X181062537Y-62426751D01*
X181226315Y-62536185D01*
X181226328Y-62536192D01*
X181408306Y-62611569D01*
X181408318Y-62611572D01*
X181601504Y-62649999D01*
X181601508Y-62650000D01*
X181750000Y-62650000D01*
X181750000Y-61900000D01*
X182250000Y-61900000D01*
X182250000Y-62650000D01*
X182398492Y-62650000D01*
X182398495Y-62649999D01*
X182591681Y-62611572D01*
X182591693Y-62611569D01*
X182773671Y-62536192D01*
X182773684Y-62536185D01*
X182937462Y-62426751D01*
X182937466Y-62426748D01*
X183076748Y-62287466D01*
X183076751Y-62287462D01*
X183186185Y-62123684D01*
X183186192Y-62123671D01*
X183261569Y-61941692D01*
X183261569Y-61941690D01*
X183269862Y-61900000D01*
X182349728Y-61900000D01*
X182441614Y-61861940D01*
X182511940Y-61791614D01*
X182550000Y-61699728D01*
X182550000Y-61600272D01*
X182511940Y-61508386D01*
X182441614Y-61438060D01*
X182349728Y-61400000D01*
X183225965Y-61400000D01*
X183273415Y-61409438D01*
X183277861Y-61411279D01*
X183277862Y-61411279D01*
X183277865Y-61411281D01*
X183424234Y-61450500D01*
X183424236Y-61450500D01*
X183575764Y-61450500D01*
X183575766Y-61450500D01*
X183722135Y-61411281D01*
X183741674Y-61400000D01*
X186230138Y-61400000D01*
X187150272Y-61400000D01*
X187058386Y-61438060D01*
X186988060Y-61508386D01*
X186950000Y-61600272D01*
X186950000Y-61699728D01*
X186988060Y-61791614D01*
X187058386Y-61861940D01*
X187150272Y-61900000D01*
X186230138Y-61900000D01*
X186238430Y-61941690D01*
X186238430Y-61941692D01*
X186313807Y-62123671D01*
X186313814Y-62123684D01*
X186423248Y-62287462D01*
X186423251Y-62287466D01*
X186562533Y-62426748D01*
X186562537Y-62426751D01*
X186726315Y-62536185D01*
X186726328Y-62536192D01*
X186908306Y-62611569D01*
X186908318Y-62611572D01*
X187101504Y-62649999D01*
X187101508Y-62650000D01*
X187350000Y-62650000D01*
X187350000Y-61900000D01*
X187850000Y-61900000D01*
X187850000Y-62650000D01*
X188098492Y-62650000D01*
X188098495Y-62649999D01*
X188291681Y-62611572D01*
X188291693Y-62611569D01*
X188473671Y-62536192D01*
X188473684Y-62536185D01*
X188637462Y-62426751D01*
X188637466Y-62426748D01*
X188776748Y-62287466D01*
X188776751Y-62287462D01*
X188886185Y-62123684D01*
X188886192Y-62123671D01*
X188961569Y-61941692D01*
X188961569Y-61941690D01*
X188969862Y-61900000D01*
X188049728Y-61900000D01*
X188141614Y-61861940D01*
X188211940Y-61791614D01*
X188250000Y-61699728D01*
X188250000Y-61600272D01*
X188211940Y-61508386D01*
X188141614Y-61438060D01*
X188049728Y-61400000D01*
X188969862Y-61400000D01*
X188961569Y-61358309D01*
X188961569Y-61358307D01*
X188886192Y-61176328D01*
X188886185Y-61176315D01*
X188776751Y-61012537D01*
X188776748Y-61012533D01*
X188637466Y-60873251D01*
X188637462Y-60873248D01*
X188473684Y-60763814D01*
X188473671Y-60763807D01*
X188291693Y-60688430D01*
X188291681Y-60688427D01*
X188098495Y-60650000D01*
X187850000Y-60650000D01*
X187850000Y-61400000D01*
X187350000Y-61400000D01*
X187350000Y-60650000D01*
X187101504Y-60650000D01*
X186908318Y-60688427D01*
X186908306Y-60688430D01*
X186726328Y-60763807D01*
X186726315Y-60763814D01*
X186562537Y-60873248D01*
X186562533Y-60873251D01*
X186423251Y-61012533D01*
X186423248Y-61012537D01*
X186313814Y-61176315D01*
X186313807Y-61176328D01*
X186238430Y-61358307D01*
X186238430Y-61358309D01*
X186230138Y-61400000D01*
X183741674Y-61400000D01*
X183853365Y-61335515D01*
X183960515Y-61228365D01*
X184036281Y-61097135D01*
X184075500Y-60950766D01*
X184075500Y-60799234D01*
X184036281Y-60652865D01*
X183960515Y-60521635D01*
X183897617Y-60458737D01*
X183864132Y-60397414D01*
X183869116Y-60327722D01*
X183910988Y-60271789D01*
X183912413Y-60270738D01*
X183915020Y-60268843D01*
X183915024Y-60268842D01*
X184055410Y-60166845D01*
X184171522Y-60037889D01*
X184258286Y-59887611D01*
X184311908Y-59722576D01*
X184330047Y-59550000D01*
X184311908Y-59377424D01*
X184258286Y-59212389D01*
X184258065Y-59212007D01*
X184258005Y-59211759D01*
X184255642Y-59206451D01*
X184256612Y-59206018D01*
X184241588Y-59144110D01*
X184256342Y-59093860D01*
X184255642Y-59093549D01*
X184257968Y-59088324D01*
X184258065Y-59087993D01*
X184258286Y-59087611D01*
X184311908Y-58922576D01*
X184330047Y-58750000D01*
X184311908Y-58577424D01*
X184258286Y-58412389D01*
X184258065Y-58412007D01*
X184258005Y-58411759D01*
X184255642Y-58406451D01*
X184256612Y-58406018D01*
X184241588Y-58344110D01*
X184256342Y-58293860D01*
X184255642Y-58293549D01*
X184257968Y-58288324D01*
X184258065Y-58287993D01*
X184258286Y-58287611D01*
X184311908Y-58122576D01*
X184330047Y-57950000D01*
X184311908Y-57777424D01*
X184258286Y-57612389D01*
X184171522Y-57462111D01*
X184055410Y-57333155D01*
X184055408Y-57333153D01*
X183966935Y-57268874D01*
X183941394Y-57250317D01*
X183898729Y-57194988D01*
X183892750Y-57125375D01*
X183925356Y-57063580D01*
X183941395Y-57049682D01*
X184045312Y-56974182D01*
X184111118Y-56950702D01*
X184118197Y-56950500D01*
X184213331Y-56950500D01*
X184213347Y-56950501D01*
X184220943Y-56950501D01*
X184379054Y-56950501D01*
X184379057Y-56950501D01*
X184531785Y-56909577D01*
X184603424Y-56868216D01*
X184668716Y-56830520D01*
X184780520Y-56718716D01*
X184780520Y-56718714D01*
X184790724Y-56708511D01*
X184790728Y-56708506D01*
X185108506Y-56390728D01*
X185108511Y-56390724D01*
X185118714Y-56380520D01*
X185118716Y-56380520D01*
X185230520Y-56268716D01*
X185246978Y-56240210D01*
X185287066Y-56170776D01*
X185287067Y-56170774D01*
X185309574Y-56131790D01*
X185309573Y-56131790D01*
X185309577Y-56131785D01*
X185350500Y-55979057D01*
X185350500Y-55820943D01*
X185350500Y-52539060D01*
X185350501Y-52539047D01*
X185350501Y-52370944D01*
X185350501Y-52370943D01*
X185309577Y-52218216D01*
X185285386Y-52176315D01*
X185230524Y-52081290D01*
X185230518Y-52081282D01*
X185117330Y-51968094D01*
X184861415Y-51712180D01*
X184827931Y-51650858D01*
X184832915Y-51581167D01*
X184874786Y-51525233D01*
X184940251Y-51500816D01*
X184949097Y-51500500D01*
X186738621Y-51500500D01*
X186805660Y-51520185D01*
X186851415Y-51572989D01*
X186861359Y-51642147D01*
X186832334Y-51705703D01*
X186786073Y-51739061D01*
X186726328Y-51763807D01*
X186726315Y-51763814D01*
X186562537Y-51873248D01*
X186562533Y-51873251D01*
X186423251Y-52012533D01*
X186423248Y-52012537D01*
X186313814Y-52176315D01*
X186313807Y-52176328D01*
X186238430Y-52358307D01*
X186238430Y-52358309D01*
X186230138Y-52400000D01*
X187150272Y-52400000D01*
X187058386Y-52438060D01*
X186988060Y-52508386D01*
X186950000Y-52600272D01*
X186950000Y-52699728D01*
X186988060Y-52791614D01*
X187058386Y-52861940D01*
X187150272Y-52900000D01*
X186230138Y-52900000D01*
X186238430Y-52941690D01*
X186238430Y-52941692D01*
X186313807Y-53123671D01*
X186313814Y-53123684D01*
X186423248Y-53287462D01*
X186423251Y-53287466D01*
X186562533Y-53426748D01*
X186562537Y-53426751D01*
X186726315Y-53536185D01*
X186726328Y-53536192D01*
X186908306Y-53611569D01*
X186908318Y-53611572D01*
X187101504Y-53649999D01*
X187101508Y-53650000D01*
X187350000Y-53650000D01*
X187350000Y-52900000D01*
X187850000Y-52900000D01*
X187850000Y-53650000D01*
X188098492Y-53650000D01*
X188098495Y-53649999D01*
X188291681Y-53611572D01*
X188291693Y-53611569D01*
X188473671Y-53536192D01*
X188473684Y-53536185D01*
X188637462Y-53426751D01*
X188637466Y-53426748D01*
X188776748Y-53287466D01*
X188776751Y-53287462D01*
X188886185Y-53123684D01*
X188886192Y-53123671D01*
X188961569Y-52941692D01*
X188961569Y-52941690D01*
X188969862Y-52900000D01*
X188049728Y-52900000D01*
X188141614Y-52861940D01*
X188211940Y-52791614D01*
X188250000Y-52699728D01*
X188250000Y-52600272D01*
X188211940Y-52508386D01*
X188141614Y-52438060D01*
X188049728Y-52400000D01*
X188969862Y-52400000D01*
X188961569Y-52358309D01*
X188961569Y-52358307D01*
X188886192Y-52176328D01*
X188886185Y-52176315D01*
X188776751Y-52012537D01*
X188776748Y-52012533D01*
X188637466Y-51873251D01*
X188637462Y-51873248D01*
X188473684Y-51763814D01*
X188473671Y-51763807D01*
X188413927Y-51739061D01*
X188359523Y-51695220D01*
X188337458Y-51628926D01*
X188354737Y-51561227D01*
X188405874Y-51513616D01*
X188461379Y-51500500D01*
X190950500Y-51500500D01*
X191017539Y-51520185D01*
X191063294Y-51572989D01*
X191074500Y-51624500D01*
X191074500Y-69010760D01*
X191054815Y-69077799D01*
X191002011Y-69123554D01*
X190932853Y-69133498D01*
X190869297Y-69104473D01*
X190862819Y-69098441D01*
X190857187Y-69092809D01*
X190742093Y-69006649D01*
X190742086Y-69006645D01*
X190607379Y-68956403D01*
X190607372Y-68956401D01*
X190547844Y-68950000D01*
X189900000Y-68950000D01*
X189900000Y-69866988D01*
X189842993Y-69834075D01*
X189715826Y-69800000D01*
X189584174Y-69800000D01*
X189457007Y-69834075D01*
X189400000Y-69866988D01*
X189400000Y-68950000D01*
X188752155Y-68950000D01*
X188692627Y-68956401D01*
X188692620Y-68956403D01*
X188557913Y-69006645D01*
X188557911Y-69006647D01*
X188449311Y-69087945D01*
X188383847Y-69112362D01*
X188315574Y-69097511D01*
X188300689Y-69087945D01*
X188192088Y-69006647D01*
X188192086Y-69006645D01*
X188057379Y-68956403D01*
X188057372Y-68956401D01*
X187997844Y-68950000D01*
X187350000Y-68950000D01*
X187350000Y-69866988D01*
X187292993Y-69834075D01*
X187165826Y-69800000D01*
X187034174Y-69800000D01*
X186907007Y-69834075D01*
X186850000Y-69866988D01*
X186850000Y-68950000D01*
X186202155Y-68950000D01*
X186142627Y-68956401D01*
X186142620Y-68956403D01*
X186007913Y-69006645D01*
X186007911Y-69006646D01*
X185892632Y-69092945D01*
X185827168Y-69117362D01*
X185758895Y-69102511D01*
X185744010Y-69092945D01*
X185642088Y-69016647D01*
X185642086Y-69016645D01*
X185507379Y-68966403D01*
X185507372Y-68966401D01*
X185447844Y-68960000D01*
X184800000Y-68960000D01*
X184800000Y-69876988D01*
X184742993Y-69844075D01*
X184615826Y-69810000D01*
X184484174Y-69810000D01*
X184357007Y-69844075D01*
X184300000Y-69876988D01*
X184300000Y-68960000D01*
X183652155Y-68960000D01*
X183592627Y-68966401D01*
X183592620Y-68966403D01*
X183457913Y-69016645D01*
X183457911Y-69016647D01*
X183349311Y-69097945D01*
X183283847Y-69122362D01*
X183215574Y-69107511D01*
X183200689Y-69097945D01*
X183092088Y-69016647D01*
X183092086Y-69016645D01*
X182957379Y-68966403D01*
X182957372Y-68966401D01*
X182897844Y-68960000D01*
X182250000Y-68960000D01*
X182250000Y-69876988D01*
X182192993Y-69844075D01*
X182065826Y-69810000D01*
X181934174Y-69810000D01*
X181807007Y-69844075D01*
X181750000Y-69876988D01*
X181750000Y-68960000D01*
X181102155Y-68960000D01*
X181042627Y-68966401D01*
X181042620Y-68966403D01*
X180907913Y-69016645D01*
X180907911Y-69016647D01*
X180789709Y-69105133D01*
X180724245Y-69129550D01*
X180655972Y-69114699D01*
X180641087Y-69105133D01*
X180640205Y-69104473D01*
X180555692Y-69041206D01*
X180542330Y-69031203D01*
X180542328Y-69031202D01*
X180407482Y-68980908D01*
X180407483Y-68980908D01*
X180347883Y-68974501D01*
X180347881Y-68974500D01*
X180347873Y-68974500D01*
X180347864Y-68974500D01*
X178552129Y-68974500D01*
X178552123Y-68974501D01*
X178492516Y-68980908D01*
X178357671Y-69031202D01*
X178357669Y-69031203D01*
X178249311Y-69112321D01*
X178183847Y-69136738D01*
X178115574Y-69121887D01*
X178100689Y-69112321D01*
X178090205Y-69104473D01*
X178005692Y-69041206D01*
X177992330Y-69031203D01*
X177992328Y-69031202D01*
X177857482Y-68980908D01*
X177857483Y-68980908D01*
X177797883Y-68974501D01*
X177797881Y-68974500D01*
X177797873Y-68974500D01*
X177797864Y-68974500D01*
X176002129Y-68974500D01*
X176002123Y-68974501D01*
X175942516Y-68980908D01*
X175807671Y-69031202D01*
X175807669Y-69031203D01*
X175692632Y-69117321D01*
X175627168Y-69141738D01*
X175558895Y-69126887D01*
X175544010Y-69117321D01*
X175442331Y-69041204D01*
X175442329Y-69041203D01*
X175442328Y-69041202D01*
X175307482Y-68990908D01*
X175307483Y-68990908D01*
X175247883Y-68984501D01*
X175247881Y-68984500D01*
X175247873Y-68984500D01*
X175247864Y-68984500D01*
X173452129Y-68984500D01*
X173452123Y-68984501D01*
X173392516Y-68990908D01*
X173257671Y-69041202D01*
X173257669Y-69041203D01*
X173172271Y-69105133D01*
X173159493Y-69114699D01*
X173149311Y-69122321D01*
X173083847Y-69146738D01*
X173015574Y-69131887D01*
X173000689Y-69122321D01*
X172990507Y-69114699D01*
X172892331Y-69041204D01*
X172892330Y-69041203D01*
X172892328Y-69041202D01*
X172757482Y-68990908D01*
X172757483Y-68990908D01*
X172697883Y-68984501D01*
X172697881Y-68984500D01*
X172697873Y-68984500D01*
X172697864Y-68984500D01*
X170902129Y-68984500D01*
X170902123Y-68984501D01*
X170842516Y-68990908D01*
X170707671Y-69041202D01*
X170707664Y-69041206D01*
X170592455Y-69127452D01*
X170592452Y-69127455D01*
X170506206Y-69242664D01*
X170506202Y-69242671D01*
X170455908Y-69377517D01*
X170449501Y-69437116D01*
X170449500Y-69437135D01*
X170449500Y-71232870D01*
X170449501Y-71232876D01*
X170455908Y-71292483D01*
X170506202Y-71427328D01*
X170506206Y-71427335D01*
X170592452Y-71542544D01*
X170592455Y-71542547D01*
X170707664Y-71628793D01*
X170707671Y-71628797D01*
X170839081Y-71677810D01*
X170895015Y-71719681D01*
X170919432Y-71785145D01*
X170904580Y-71853418D01*
X170883430Y-71881673D01*
X170761503Y-72003600D01*
X170625965Y-72197169D01*
X170625964Y-72197171D01*
X170526098Y-72411335D01*
X170526094Y-72411344D01*
X170464938Y-72639586D01*
X170464936Y-72639596D01*
X170444341Y-72874999D01*
X170444341Y-72875000D01*
X170464936Y-73110403D01*
X170464938Y-73110413D01*
X170526094Y-73338655D01*
X170526096Y-73338659D01*
X170526097Y-73338663D01*
X170609642Y-73517826D01*
X170625965Y-73552830D01*
X170625967Y-73552834D01*
X170734281Y-73707521D01*
X170761501Y-73746396D01*
X170761506Y-73746402D01*
X170928597Y-73913493D01*
X170928603Y-73913498D01*
X171114158Y-74043425D01*
X171157783Y-74098002D01*
X171164977Y-74167500D01*
X171133454Y-74229855D01*
X171114158Y-74246575D01*
X170928597Y-74376505D01*
X170761505Y-74543597D01*
X170625965Y-74737169D01*
X170625964Y-74737171D01*
X170526098Y-74951335D01*
X170526094Y-74951344D01*
X170464938Y-75179586D01*
X170464936Y-75179596D01*
X170444341Y-75414999D01*
X170444341Y-75415000D01*
X170464936Y-75650403D01*
X170464938Y-75650413D01*
X170526094Y-75878655D01*
X170526096Y-75878659D01*
X170526097Y-75878663D01*
X170609642Y-76057826D01*
X170625965Y-76092830D01*
X170625967Y-76092834D01*
X170679101Y-76168716D01*
X170761501Y-76286396D01*
X170761506Y-76286402D01*
X170928597Y-76453493D01*
X170928603Y-76453498D01*
X171114158Y-76583425D01*
X171157783Y-76638002D01*
X171164977Y-76707500D01*
X171133454Y-76769855D01*
X171114158Y-76786575D01*
X170928597Y-76916505D01*
X170761505Y-77083597D01*
X170625965Y-77277169D01*
X170625964Y-77277171D01*
X170526098Y-77491335D01*
X170526094Y-77491344D01*
X170464938Y-77719586D01*
X170464936Y-77719596D01*
X170444341Y-77954999D01*
X170444341Y-77955000D01*
X170464936Y-78190403D01*
X170464938Y-78190413D01*
X170526094Y-78418655D01*
X170526096Y-78418659D01*
X170526097Y-78418663D01*
X170609642Y-78597826D01*
X170625965Y-78632830D01*
X170625967Y-78632834D01*
X170734281Y-78787521D01*
X170761501Y-78826396D01*
X170761506Y-78826402D01*
X170928597Y-78993493D01*
X170928603Y-78993498D01*
X171114158Y-79123425D01*
X171157783Y-79178002D01*
X171164977Y-79247500D01*
X171133454Y-79309855D01*
X171114158Y-79326575D01*
X170928597Y-79456505D01*
X170761505Y-79623597D01*
X170625965Y-79817169D01*
X170625964Y-79817171D01*
X170526098Y-80031335D01*
X170526094Y-80031344D01*
X170464938Y-80259586D01*
X170464936Y-80259596D01*
X170444341Y-80494999D01*
X170444341Y-80495000D01*
X170464936Y-80730403D01*
X170464938Y-80730413D01*
X170526094Y-80958655D01*
X170526096Y-80958659D01*
X170526097Y-80958663D01*
X170609642Y-81137826D01*
X170625965Y-81172830D01*
X170625967Y-81172834D01*
X170734281Y-81327521D01*
X170761501Y-81366396D01*
X170761506Y-81366402D01*
X170928597Y-81533493D01*
X170928603Y-81533498D01*
X171114158Y-81663425D01*
X171157783Y-81718002D01*
X171164977Y-81787500D01*
X171133454Y-81849855D01*
X171114158Y-81866575D01*
X170928597Y-81996505D01*
X170761505Y-82163597D01*
X170625965Y-82357169D01*
X170625964Y-82357171D01*
X170526098Y-82571335D01*
X170526094Y-82571344D01*
X170464938Y-82799586D01*
X170464936Y-82799596D01*
X170444341Y-83034999D01*
X170444341Y-83035000D01*
X170464936Y-83270403D01*
X170464938Y-83270413D01*
X170526094Y-83498655D01*
X170526096Y-83498659D01*
X170526097Y-83498663D01*
X170609642Y-83677826D01*
X170625965Y-83712830D01*
X170625967Y-83712834D01*
X170680350Y-83790500D01*
X170761501Y-83906396D01*
X170761506Y-83906402D01*
X170928597Y-84073493D01*
X170928603Y-84073498D01*
X171114158Y-84203425D01*
X171157783Y-84258002D01*
X171164977Y-84327500D01*
X171133454Y-84389855D01*
X171114158Y-84406575D01*
X170928597Y-84536505D01*
X170761505Y-84703597D01*
X170625965Y-84897169D01*
X170625964Y-84897171D01*
X170526098Y-85111335D01*
X170526094Y-85111344D01*
X170464938Y-85339586D01*
X170464936Y-85339596D01*
X170444341Y-85574999D01*
X170444341Y-85575000D01*
X170464936Y-85810403D01*
X170464938Y-85810413D01*
X170526094Y-86038655D01*
X170526096Y-86038659D01*
X170526097Y-86038663D01*
X170609642Y-86217826D01*
X170625965Y-86252830D01*
X170625967Y-86252834D01*
X170719493Y-86386402D01*
X170761501Y-86446396D01*
X170761506Y-86446402D01*
X170928597Y-86613493D01*
X170928603Y-86613498D01*
X171114158Y-86743425D01*
X171157783Y-86798002D01*
X171164977Y-86867500D01*
X171133454Y-86929855D01*
X171114158Y-86946575D01*
X170928597Y-87076505D01*
X170761505Y-87243597D01*
X170625965Y-87437169D01*
X170625964Y-87437171D01*
X170526098Y-87651335D01*
X170526094Y-87651344D01*
X170464938Y-87879586D01*
X170464936Y-87879596D01*
X170444341Y-88114999D01*
X170444341Y-88115000D01*
X170464936Y-88350403D01*
X170464938Y-88350413D01*
X170526094Y-88578655D01*
X170526096Y-88578659D01*
X170526097Y-88578663D01*
X170609642Y-88757826D01*
X170625965Y-88792830D01*
X170625967Y-88792834D01*
X170734281Y-88947521D01*
X170761501Y-88986396D01*
X170761506Y-88986402D01*
X170928597Y-89153493D01*
X170928603Y-89153498D01*
X171114158Y-89283425D01*
X171157783Y-89338002D01*
X171164977Y-89407500D01*
X171133454Y-89469855D01*
X171114158Y-89486575D01*
X170928597Y-89616505D01*
X170761505Y-89783597D01*
X170625965Y-89977169D01*
X170625964Y-89977171D01*
X170526098Y-90191335D01*
X170526094Y-90191344D01*
X170464938Y-90419586D01*
X170464936Y-90419596D01*
X170444341Y-90654999D01*
X170444341Y-90655000D01*
X170464936Y-90890403D01*
X170464938Y-90890413D01*
X170526094Y-91118655D01*
X170526096Y-91118659D01*
X170526097Y-91118663D01*
X170609642Y-91297826D01*
X170625965Y-91332830D01*
X170625967Y-91332834D01*
X170722013Y-91470001D01*
X170761501Y-91526396D01*
X170761506Y-91526402D01*
X170928597Y-91693493D01*
X170928603Y-91693498D01*
X171114158Y-91823425D01*
X171157783Y-91878002D01*
X171164977Y-91947500D01*
X171133454Y-92009855D01*
X171114158Y-92026575D01*
X170928597Y-92156505D01*
X170761505Y-92323597D01*
X170625965Y-92517169D01*
X170625964Y-92517171D01*
X170526098Y-92731335D01*
X170526094Y-92731344D01*
X170464938Y-92959586D01*
X170464936Y-92959596D01*
X170444341Y-93194999D01*
X170444341Y-93195000D01*
X170464936Y-93430403D01*
X170464938Y-93430413D01*
X170526094Y-93658655D01*
X170526096Y-93658659D01*
X170526097Y-93658663D01*
X170609642Y-93837826D01*
X170625965Y-93872830D01*
X170625967Y-93872834D01*
X170720043Y-94007187D01*
X170761501Y-94066396D01*
X170761506Y-94066402D01*
X170782923Y-94087819D01*
X170816408Y-94149142D01*
X170811424Y-94218834D01*
X170769552Y-94274767D01*
X170704088Y-94299184D01*
X170695242Y-94299500D01*
X157241994Y-94299500D01*
X157174955Y-94279815D01*
X157129200Y-94227011D01*
X157119256Y-94157853D01*
X157148281Y-94094297D01*
X157207059Y-94056523D01*
X157209901Y-94055725D01*
X157328174Y-94024034D01*
X157328663Y-94023903D01*
X157542830Y-93924035D01*
X157736401Y-93788495D01*
X157903495Y-93621401D01*
X158039035Y-93427830D01*
X158138903Y-93213663D01*
X158200063Y-92985408D01*
X158220659Y-92750000D01*
X158200063Y-92514592D01*
X158138903Y-92286337D01*
X158039035Y-92072171D01*
X158007109Y-92026575D01*
X157903494Y-91878597D01*
X157736402Y-91711506D01*
X157736395Y-91711501D01*
X157542834Y-91575967D01*
X157542830Y-91575965D01*
X157487148Y-91550000D01*
X157379919Y-91499998D01*
X160969437Y-91499998D01*
X160969437Y-91500000D01*
X160989650Y-91731044D01*
X160989651Y-91731051D01*
X161049678Y-91955074D01*
X161049679Y-91955076D01*
X161049680Y-91955079D01*
X161147699Y-92165282D01*
X161280730Y-92355269D01*
X161444731Y-92519270D01*
X161634718Y-92652301D01*
X161844921Y-92750320D01*
X162068950Y-92810349D01*
X162233985Y-92824787D01*
X162299998Y-92830563D01*
X162300000Y-92830563D01*
X162300002Y-92830563D01*
X162363586Y-92825000D01*
X162531050Y-92810349D01*
X162755079Y-92750320D01*
X162965282Y-92652301D01*
X163155269Y-92519270D01*
X163311032Y-92363506D01*
X163372352Y-92330024D01*
X163442043Y-92335008D01*
X163497977Y-92376879D01*
X163517086Y-92425430D01*
X163519620Y-92424832D01*
X163521403Y-92432379D01*
X163571645Y-92567086D01*
X163571649Y-92567093D01*
X163657809Y-92682187D01*
X163657812Y-92682190D01*
X163772906Y-92768350D01*
X163772913Y-92768354D01*
X163907620Y-92818596D01*
X163907627Y-92818598D01*
X163967155Y-92824999D01*
X163967172Y-92825000D01*
X164590000Y-92825000D01*
X164590000Y-91990747D01*
X164627708Y-92012518D01*
X164767591Y-92050000D01*
X164912409Y-92050000D01*
X165052292Y-92012518D01*
X165090000Y-91990747D01*
X165090000Y-92825000D01*
X165712828Y-92825000D01*
X165712844Y-92824999D01*
X165772372Y-92818598D01*
X165772379Y-92818596D01*
X165907086Y-92768354D01*
X165907093Y-92768350D01*
X166022187Y-92682190D01*
X166022190Y-92682187D01*
X166108350Y-92567093D01*
X166108354Y-92567086D01*
X166158596Y-92432379D01*
X166158598Y-92432372D01*
X166164999Y-92372844D01*
X166165000Y-92372827D01*
X166165000Y-91750000D01*
X165330748Y-91750000D01*
X165352518Y-91712292D01*
X165390000Y-91572409D01*
X165390000Y-91427591D01*
X165352518Y-91287708D01*
X165330748Y-91250000D01*
X166165000Y-91250000D01*
X166165000Y-90627172D01*
X166164999Y-90627155D01*
X166158598Y-90567627D01*
X166158596Y-90567620D01*
X166108354Y-90432913D01*
X166108350Y-90432906D01*
X166022190Y-90317812D01*
X166022187Y-90317809D01*
X165907093Y-90231649D01*
X165907086Y-90231645D01*
X165772379Y-90181403D01*
X165772372Y-90181401D01*
X165712844Y-90175000D01*
X165090000Y-90175000D01*
X165090000Y-91009252D01*
X165052292Y-90987482D01*
X164912409Y-90950000D01*
X164767591Y-90950000D01*
X164627708Y-90987482D01*
X164590000Y-91009252D01*
X164590000Y-90175000D01*
X163967155Y-90175000D01*
X163907627Y-90181401D01*
X163907620Y-90181403D01*
X163772913Y-90231645D01*
X163772906Y-90231649D01*
X163657812Y-90317809D01*
X163657809Y-90317812D01*
X163571649Y-90432906D01*
X163571645Y-90432913D01*
X163521403Y-90567620D01*
X163519620Y-90575168D01*
X163516849Y-90574513D01*
X163495239Y-90626643D01*
X163437835Y-90666475D01*
X163368009Y-90668948D01*
X163311029Y-90636490D01*
X163155269Y-90480730D01*
X163112419Y-90450726D01*
X162965282Y-90347699D01*
X162755079Y-90249680D01*
X162755076Y-90249679D01*
X162755074Y-90249678D01*
X162531051Y-90189651D01*
X162531044Y-90189650D01*
X162300002Y-90169437D01*
X162299998Y-90169437D01*
X162068955Y-90189650D01*
X162068948Y-90189651D01*
X161844917Y-90249681D01*
X161634718Y-90347699D01*
X161634714Y-90347701D01*
X161444735Y-90480726D01*
X161444729Y-90480731D01*
X161280731Y-90644729D01*
X161280726Y-90644735D01*
X161147701Y-90834714D01*
X161147699Y-90834718D01*
X161049681Y-91044917D01*
X160989651Y-91268948D01*
X160989650Y-91268955D01*
X160969437Y-91499998D01*
X157379919Y-91499998D01*
X157328663Y-91476097D01*
X157328659Y-91476096D01*
X157328655Y-91476094D01*
X157100413Y-91414938D01*
X157100403Y-91414936D01*
X156865001Y-91394341D01*
X156864999Y-91394341D01*
X156629596Y-91414936D01*
X156629586Y-91414938D01*
X156401344Y-91476094D01*
X156401335Y-91476098D01*
X156187171Y-91575964D01*
X156187169Y-91575965D01*
X155993600Y-91711503D01*
X155871284Y-91833819D01*
X155809961Y-91867303D01*
X155740269Y-91862319D01*
X155684336Y-91820447D01*
X155667421Y-91789470D01*
X155618354Y-91657913D01*
X155618350Y-91657906D01*
X155532190Y-91542812D01*
X155532187Y-91542809D01*
X155417093Y-91456649D01*
X155417086Y-91456645D01*
X155282379Y-91406403D01*
X155282372Y-91406401D01*
X155222844Y-91400000D01*
X154575000Y-91400000D01*
X154575000Y-92316988D01*
X154517993Y-92284075D01*
X154390826Y-92250000D01*
X154259174Y-92250000D01*
X154132007Y-92284075D01*
X154075000Y-92316988D01*
X154075000Y-91400000D01*
X153427155Y-91400000D01*
X153367627Y-91406401D01*
X153367620Y-91406403D01*
X153232913Y-91456645D01*
X153232906Y-91456649D01*
X153117812Y-91542809D01*
X153117809Y-91542812D01*
X153031649Y-91657906D01*
X153031645Y-91657913D01*
X152981403Y-91792620D01*
X152981401Y-91792627D01*
X152975000Y-91852155D01*
X152975000Y-92500000D01*
X153891988Y-92500000D01*
X153859075Y-92557007D01*
X153825000Y-92684174D01*
X153825000Y-92815826D01*
X153859075Y-92942993D01*
X153891988Y-93000000D01*
X152975000Y-93000000D01*
X152975000Y-93647844D01*
X152981401Y-93707372D01*
X152981403Y-93707379D01*
X153031645Y-93842086D01*
X153031649Y-93842093D01*
X153117809Y-93957187D01*
X153117812Y-93957190D01*
X153232906Y-94043350D01*
X153232913Y-94043354D01*
X153275714Y-94059318D01*
X153331648Y-94101189D01*
X153356065Y-94166654D01*
X153341213Y-94234927D01*
X153291808Y-94284332D01*
X153232381Y-94299500D01*
X137311421Y-94299500D01*
X137244382Y-94279815D01*
X137198627Y-94227011D01*
X137188683Y-94157853D01*
X137217708Y-94094297D01*
X137259016Y-94063118D01*
X137342830Y-94024035D01*
X137536401Y-93888495D01*
X137703495Y-93721401D01*
X137839035Y-93527830D01*
X137938903Y-93313663D01*
X138000063Y-93085408D01*
X138020659Y-92850000D01*
X138020221Y-92844999D01*
X138007737Y-92702301D01*
X138000063Y-92614592D01*
X137943200Y-92402372D01*
X137938905Y-92386344D01*
X137938904Y-92386343D01*
X137938903Y-92386337D01*
X137839035Y-92172171D01*
X137834212Y-92165282D01*
X137703494Y-91978597D01*
X137536402Y-91811506D01*
X137536395Y-91811501D01*
X137342834Y-91675967D01*
X137342830Y-91675965D01*
X137326817Y-91668498D01*
X137128663Y-91576097D01*
X137128659Y-91576096D01*
X137128655Y-91576094D01*
X136900413Y-91514938D01*
X136900403Y-91514936D01*
X136729661Y-91499998D01*
X140819437Y-91499998D01*
X140819437Y-91500000D01*
X140839650Y-91731044D01*
X140839651Y-91731051D01*
X140899678Y-91955074D01*
X140899679Y-91955076D01*
X140899680Y-91955079D01*
X140997699Y-92165282D01*
X141130730Y-92355269D01*
X141294731Y-92519270D01*
X141484718Y-92652301D01*
X141694921Y-92750320D01*
X141918950Y-92810349D01*
X142083985Y-92824787D01*
X142149998Y-92830563D01*
X142150000Y-92830563D01*
X142150002Y-92830563D01*
X142213586Y-92825000D01*
X142381050Y-92810349D01*
X142605079Y-92750320D01*
X142815282Y-92652301D01*
X143005269Y-92519270D01*
X143161032Y-92363506D01*
X143222352Y-92330024D01*
X143292043Y-92335008D01*
X143347977Y-92376879D01*
X143367086Y-92425430D01*
X143369620Y-92424832D01*
X143371403Y-92432379D01*
X143421645Y-92567086D01*
X143421649Y-92567093D01*
X143507809Y-92682187D01*
X143507812Y-92682190D01*
X143622906Y-92768350D01*
X143622913Y-92768354D01*
X143757620Y-92818596D01*
X143757627Y-92818598D01*
X143817155Y-92824999D01*
X143817172Y-92825000D01*
X144440000Y-92825000D01*
X144440000Y-91990747D01*
X144477708Y-92012518D01*
X144617591Y-92050000D01*
X144762409Y-92050000D01*
X144902292Y-92012518D01*
X144940000Y-91990747D01*
X144940000Y-92825000D01*
X145562828Y-92825000D01*
X145562844Y-92824999D01*
X145622372Y-92818598D01*
X145622379Y-92818596D01*
X145757086Y-92768354D01*
X145757093Y-92768350D01*
X145872187Y-92682190D01*
X145872190Y-92682187D01*
X145958350Y-92567093D01*
X145958354Y-92567086D01*
X146008596Y-92432379D01*
X146008598Y-92432372D01*
X146014999Y-92372844D01*
X146015000Y-92372827D01*
X146015000Y-91750000D01*
X145180748Y-91750000D01*
X145202518Y-91712292D01*
X145240000Y-91572409D01*
X145240000Y-91427591D01*
X145202518Y-91287708D01*
X145180748Y-91250000D01*
X146015000Y-91250000D01*
X146015000Y-90627172D01*
X146014999Y-90627155D01*
X146008598Y-90567627D01*
X146008596Y-90567620D01*
X145958354Y-90432913D01*
X145958350Y-90432906D01*
X145872190Y-90317812D01*
X145872187Y-90317809D01*
X145757093Y-90231649D01*
X145757086Y-90231645D01*
X145622379Y-90181403D01*
X145622372Y-90181401D01*
X145562844Y-90175000D01*
X144940000Y-90175000D01*
X144940000Y-91009252D01*
X144902292Y-90987482D01*
X144762409Y-90950000D01*
X144617591Y-90950000D01*
X144477708Y-90987482D01*
X144440000Y-91009252D01*
X144440000Y-90175000D01*
X143817155Y-90175000D01*
X143757627Y-90181401D01*
X143757620Y-90181403D01*
X143622913Y-90231645D01*
X143622906Y-90231649D01*
X143507812Y-90317809D01*
X143507809Y-90317812D01*
X143421649Y-90432906D01*
X143421645Y-90432913D01*
X143371403Y-90567620D01*
X143369620Y-90575168D01*
X143366849Y-90574513D01*
X143345239Y-90626643D01*
X143287835Y-90666475D01*
X143218009Y-90668948D01*
X143161029Y-90636490D01*
X143005269Y-90480730D01*
X142962419Y-90450726D01*
X142815282Y-90347699D01*
X142605079Y-90249680D01*
X142605076Y-90249679D01*
X142605074Y-90249678D01*
X142381051Y-90189651D01*
X142381044Y-90189650D01*
X142150002Y-90169437D01*
X142149998Y-90169437D01*
X141918955Y-90189650D01*
X141918948Y-90189651D01*
X141694917Y-90249681D01*
X141484718Y-90347699D01*
X141484714Y-90347701D01*
X141294735Y-90480726D01*
X141294729Y-90480731D01*
X141130731Y-90644729D01*
X141130726Y-90644735D01*
X140997701Y-90834714D01*
X140997699Y-90834718D01*
X140899681Y-91044917D01*
X140839651Y-91268948D01*
X140839650Y-91268955D01*
X140819437Y-91499998D01*
X136729661Y-91499998D01*
X136665001Y-91494341D01*
X136664999Y-91494341D01*
X136429596Y-91514936D01*
X136429586Y-91514938D01*
X136201344Y-91576094D01*
X136201335Y-91576098D01*
X135987171Y-91675964D01*
X135987169Y-91675965D01*
X135793600Y-91811503D01*
X135671284Y-91933819D01*
X135609961Y-91967303D01*
X135540269Y-91962319D01*
X135484336Y-91920447D01*
X135467421Y-91889470D01*
X135418354Y-91757913D01*
X135418350Y-91757906D01*
X135332190Y-91642812D01*
X135332187Y-91642809D01*
X135217093Y-91556649D01*
X135217086Y-91556645D01*
X135082379Y-91506403D01*
X135082372Y-91506401D01*
X135022844Y-91500000D01*
X134375000Y-91500000D01*
X134375000Y-92416988D01*
X134317993Y-92384075D01*
X134190826Y-92350000D01*
X134059174Y-92350000D01*
X133932007Y-92384075D01*
X133875000Y-92416988D01*
X133875000Y-91500000D01*
X133227155Y-91500000D01*
X133167627Y-91506401D01*
X133167620Y-91506403D01*
X133032913Y-91556645D01*
X133032906Y-91556649D01*
X132917812Y-91642809D01*
X132917809Y-91642812D01*
X132831649Y-91757906D01*
X132831645Y-91757913D01*
X132781403Y-91892620D01*
X132781401Y-91892627D01*
X132775000Y-91952155D01*
X132775000Y-92600000D01*
X133691988Y-92600000D01*
X133659075Y-92657007D01*
X133625000Y-92784174D01*
X133625000Y-92915826D01*
X133659075Y-93042993D01*
X133691988Y-93100000D01*
X132775000Y-93100000D01*
X132775000Y-93747844D01*
X132781401Y-93807372D01*
X132781403Y-93807379D01*
X132831645Y-93942086D01*
X132831649Y-93942093D01*
X132917809Y-94057187D01*
X132943252Y-94076234D01*
X132985122Y-94132168D01*
X132990106Y-94201860D01*
X132956620Y-94263182D01*
X132895297Y-94296667D01*
X132868940Y-94299500D01*
X117411421Y-94299500D01*
X117344382Y-94279815D01*
X117298627Y-94227011D01*
X117288683Y-94157853D01*
X117317708Y-94094297D01*
X117359016Y-94063118D01*
X117442830Y-94024035D01*
X117636401Y-93888495D01*
X117803495Y-93721401D01*
X117939035Y-93527830D01*
X118038903Y-93313663D01*
X118100063Y-93085408D01*
X118120659Y-92850000D01*
X118120221Y-92844999D01*
X118107737Y-92702301D01*
X118100063Y-92614592D01*
X118043200Y-92402372D01*
X118038905Y-92386344D01*
X118038904Y-92386343D01*
X118038903Y-92386337D01*
X117939035Y-92172171D01*
X117934212Y-92165282D01*
X117803494Y-91978597D01*
X117636402Y-91811506D01*
X117636395Y-91811501D01*
X117442834Y-91675967D01*
X117442830Y-91675965D01*
X117426817Y-91668498D01*
X117228663Y-91576097D01*
X117228659Y-91576096D01*
X117228655Y-91576094D01*
X117131261Y-91549998D01*
X120719437Y-91549998D01*
X120719437Y-91550001D01*
X120739650Y-91781044D01*
X120739651Y-91781051D01*
X120799678Y-92005074D01*
X120799679Y-92005076D01*
X120799680Y-92005079D01*
X120897699Y-92215282D01*
X121030730Y-92405269D01*
X121194731Y-92569270D01*
X121384718Y-92702301D01*
X121594921Y-92800320D01*
X121818950Y-92860349D01*
X121983985Y-92874787D01*
X122049998Y-92880563D01*
X122050000Y-92880563D01*
X122050002Y-92880563D01*
X122113586Y-92875000D01*
X122281050Y-92860349D01*
X122505079Y-92800320D01*
X122715282Y-92702301D01*
X122905269Y-92569270D01*
X123061032Y-92413506D01*
X123122352Y-92380024D01*
X123192043Y-92385008D01*
X123247977Y-92426879D01*
X123267086Y-92475430D01*
X123269620Y-92474832D01*
X123271403Y-92482379D01*
X123321645Y-92617086D01*
X123321649Y-92617093D01*
X123407809Y-92732187D01*
X123407812Y-92732190D01*
X123522906Y-92818350D01*
X123522913Y-92818354D01*
X123657620Y-92868596D01*
X123657627Y-92868598D01*
X123717155Y-92874999D01*
X123717172Y-92875000D01*
X124340000Y-92875000D01*
X124340000Y-92040747D01*
X124377708Y-92062518D01*
X124517591Y-92100000D01*
X124662409Y-92100000D01*
X124802292Y-92062518D01*
X124840000Y-92040747D01*
X124840000Y-92875000D01*
X125462828Y-92875000D01*
X125462844Y-92874999D01*
X125522372Y-92868598D01*
X125522379Y-92868596D01*
X125657086Y-92818354D01*
X125657093Y-92818350D01*
X125772187Y-92732190D01*
X125772190Y-92732187D01*
X125858350Y-92617093D01*
X125858354Y-92617086D01*
X125908596Y-92482379D01*
X125908598Y-92482372D01*
X125914999Y-92422844D01*
X125915000Y-92422827D01*
X125915000Y-91800000D01*
X125080748Y-91800000D01*
X125102518Y-91762292D01*
X125140000Y-91622409D01*
X125140000Y-91477591D01*
X125102518Y-91337708D01*
X125080748Y-91300000D01*
X125915000Y-91300000D01*
X125915000Y-90677172D01*
X125914999Y-90677155D01*
X125908598Y-90617627D01*
X125908596Y-90617620D01*
X125858354Y-90482913D01*
X125858350Y-90482906D01*
X125772190Y-90367812D01*
X125772187Y-90367809D01*
X125657093Y-90281649D01*
X125657086Y-90281645D01*
X125522379Y-90231403D01*
X125522372Y-90231401D01*
X125462844Y-90225000D01*
X124840000Y-90225000D01*
X124840000Y-91059252D01*
X124802292Y-91037482D01*
X124662409Y-91000000D01*
X124517591Y-91000000D01*
X124377708Y-91037482D01*
X124340000Y-91059252D01*
X124340000Y-90225000D01*
X123717155Y-90225000D01*
X123657627Y-90231401D01*
X123657620Y-90231403D01*
X123522913Y-90281645D01*
X123522906Y-90281649D01*
X123407812Y-90367809D01*
X123407809Y-90367812D01*
X123321649Y-90482906D01*
X123321645Y-90482913D01*
X123271403Y-90617620D01*
X123269620Y-90625168D01*
X123266849Y-90624513D01*
X123245239Y-90676643D01*
X123187835Y-90716475D01*
X123118009Y-90718948D01*
X123061029Y-90686490D01*
X122905269Y-90530730D01*
X122862419Y-90500726D01*
X122715282Y-90397699D01*
X122505079Y-90299680D01*
X122505076Y-90299679D01*
X122505074Y-90299678D01*
X122281051Y-90239651D01*
X122281044Y-90239650D01*
X122050002Y-90219437D01*
X122049998Y-90219437D01*
X121818955Y-90239650D01*
X121818948Y-90239651D01*
X121594917Y-90299681D01*
X121384718Y-90397699D01*
X121384714Y-90397701D01*
X121194735Y-90530726D01*
X121194729Y-90530731D01*
X121030731Y-90694729D01*
X121030726Y-90694735D01*
X120897701Y-90884714D01*
X120897699Y-90884718D01*
X120799681Y-91094917D01*
X120739651Y-91318948D01*
X120739650Y-91318955D01*
X120719437Y-91549998D01*
X117131261Y-91549998D01*
X117000413Y-91514938D01*
X117000403Y-91514936D01*
X116765001Y-91494341D01*
X116764999Y-91494341D01*
X116529596Y-91514936D01*
X116529586Y-91514938D01*
X116301344Y-91576094D01*
X116301335Y-91576098D01*
X116087171Y-91675964D01*
X116087169Y-91675965D01*
X115893600Y-91811503D01*
X115771284Y-91933819D01*
X115709961Y-91967303D01*
X115640269Y-91962319D01*
X115584336Y-91920447D01*
X115567421Y-91889470D01*
X115518354Y-91757913D01*
X115518350Y-91757906D01*
X115432190Y-91642812D01*
X115432187Y-91642809D01*
X115317093Y-91556649D01*
X115317086Y-91556645D01*
X115182379Y-91506403D01*
X115182372Y-91506401D01*
X115122844Y-91500000D01*
X114475000Y-91500000D01*
X114475000Y-92416988D01*
X114417993Y-92384075D01*
X114290826Y-92350000D01*
X114159174Y-92350000D01*
X114032007Y-92384075D01*
X113975000Y-92416988D01*
X113975000Y-91500000D01*
X113327155Y-91500000D01*
X113267627Y-91506401D01*
X113267620Y-91506403D01*
X113132913Y-91556645D01*
X113132906Y-91556649D01*
X113017812Y-91642809D01*
X113017809Y-91642812D01*
X112931649Y-91757906D01*
X112931645Y-91757913D01*
X112881403Y-91892620D01*
X112881401Y-91892627D01*
X112875000Y-91952155D01*
X112875000Y-92600000D01*
X113791988Y-92600000D01*
X113759075Y-92657007D01*
X113725000Y-92784174D01*
X113725000Y-92915826D01*
X113759075Y-93042993D01*
X113791988Y-93100000D01*
X112875000Y-93100000D01*
X112875000Y-93747844D01*
X112881401Y-93807372D01*
X112881403Y-93807379D01*
X112931645Y-93942086D01*
X112931649Y-93942093D01*
X113017809Y-94057187D01*
X113043252Y-94076234D01*
X113085122Y-94132168D01*
X113090106Y-94201860D01*
X113056620Y-94263182D01*
X112995297Y-94296667D01*
X112968940Y-94299500D01*
X97154196Y-94299500D01*
X97087157Y-94279815D01*
X97041402Y-94227011D01*
X97031458Y-94157853D01*
X97060483Y-94094297D01*
X97101791Y-94063118D01*
X97292830Y-93974035D01*
X97486401Y-93838495D01*
X97653495Y-93671401D01*
X97789035Y-93477830D01*
X97888903Y-93263663D01*
X97950063Y-93035408D01*
X97970659Y-92800000D01*
X97970221Y-92794999D01*
X97963559Y-92718851D01*
X97950063Y-92564592D01*
X97892564Y-92350000D01*
X97888905Y-92336344D01*
X97888904Y-92336343D01*
X97888903Y-92336337D01*
X97789035Y-92122171D01*
X97788570Y-92121506D01*
X97653494Y-91928597D01*
X97486402Y-91761506D01*
X97486395Y-91761501D01*
X97292834Y-91625967D01*
X97292830Y-91625965D01*
X97185890Y-91576098D01*
X97078663Y-91526097D01*
X97078659Y-91526096D01*
X97078655Y-91526094D01*
X96869298Y-91469998D01*
X100699437Y-91469998D01*
X100699437Y-91470001D01*
X100719650Y-91701044D01*
X100719651Y-91701051D01*
X100779678Y-91925074D01*
X100779679Y-91925076D01*
X100779680Y-91925079D01*
X100877699Y-92135282D01*
X101010730Y-92325269D01*
X101174731Y-92489270D01*
X101364718Y-92622301D01*
X101574921Y-92720320D01*
X101798950Y-92780349D01*
X101963985Y-92794787D01*
X102029998Y-92800563D01*
X102030000Y-92800563D01*
X102030002Y-92800563D01*
X102093586Y-92795000D01*
X102261050Y-92780349D01*
X102485079Y-92720320D01*
X102695282Y-92622301D01*
X102885269Y-92489270D01*
X103041032Y-92333506D01*
X103102352Y-92300024D01*
X103172043Y-92305008D01*
X103227977Y-92346879D01*
X103247086Y-92395430D01*
X103249620Y-92394832D01*
X103251403Y-92402379D01*
X103301645Y-92537086D01*
X103301649Y-92537093D01*
X103387809Y-92652187D01*
X103387812Y-92652190D01*
X103502906Y-92738350D01*
X103502913Y-92738354D01*
X103637620Y-92788596D01*
X103637627Y-92788598D01*
X103697155Y-92794999D01*
X103697172Y-92795000D01*
X104320000Y-92795000D01*
X104320000Y-91960747D01*
X104357708Y-91982518D01*
X104497591Y-92020000D01*
X104642409Y-92020000D01*
X104782292Y-91982518D01*
X104820000Y-91960747D01*
X104820000Y-92795000D01*
X105442828Y-92795000D01*
X105442844Y-92794999D01*
X105502372Y-92788598D01*
X105502379Y-92788596D01*
X105637086Y-92738354D01*
X105637093Y-92738350D01*
X105752187Y-92652190D01*
X105752190Y-92652187D01*
X105838350Y-92537093D01*
X105838354Y-92537086D01*
X105888596Y-92402379D01*
X105888598Y-92402372D01*
X105894999Y-92342844D01*
X105895000Y-92342827D01*
X105895000Y-91720000D01*
X105060748Y-91720000D01*
X105082518Y-91682292D01*
X105120000Y-91542409D01*
X105120000Y-91397591D01*
X105082518Y-91257708D01*
X105060748Y-91220000D01*
X105895000Y-91220000D01*
X105895000Y-90597172D01*
X105894999Y-90597155D01*
X105888598Y-90537627D01*
X105888596Y-90537620D01*
X105838354Y-90402913D01*
X105838350Y-90402906D01*
X105752190Y-90287812D01*
X105752187Y-90287809D01*
X105637093Y-90201649D01*
X105637086Y-90201645D01*
X105502379Y-90151403D01*
X105502372Y-90151401D01*
X105442844Y-90145000D01*
X104820000Y-90145000D01*
X104820000Y-90979252D01*
X104782292Y-90957482D01*
X104642409Y-90920000D01*
X104497591Y-90920000D01*
X104357708Y-90957482D01*
X104320000Y-90979252D01*
X104320000Y-90145000D01*
X103697155Y-90145000D01*
X103637627Y-90151401D01*
X103637620Y-90151403D01*
X103502913Y-90201645D01*
X103502906Y-90201649D01*
X103387812Y-90287809D01*
X103387809Y-90287812D01*
X103301649Y-90402906D01*
X103301645Y-90402913D01*
X103251403Y-90537620D01*
X103249620Y-90545168D01*
X103246849Y-90544513D01*
X103225239Y-90596643D01*
X103167835Y-90636475D01*
X103098009Y-90638948D01*
X103041029Y-90606490D01*
X102885269Y-90450730D01*
X102840805Y-90419596D01*
X102695282Y-90317699D01*
X102485079Y-90219680D01*
X102485076Y-90219679D01*
X102485074Y-90219678D01*
X102261051Y-90159651D01*
X102261044Y-90159650D01*
X102030002Y-90139437D01*
X102029998Y-90139437D01*
X101798955Y-90159650D01*
X101798948Y-90159651D01*
X101574917Y-90219681D01*
X101364718Y-90317699D01*
X101364714Y-90317701D01*
X101174735Y-90450726D01*
X101174729Y-90450731D01*
X101010731Y-90614729D01*
X101010726Y-90614735D01*
X100877701Y-90804714D01*
X100877699Y-90804718D01*
X100779681Y-91014917D01*
X100719651Y-91238948D01*
X100719650Y-91238955D01*
X100699437Y-91469998D01*
X96869298Y-91469998D01*
X96850413Y-91464938D01*
X96850403Y-91464936D01*
X96615001Y-91444341D01*
X96614999Y-91444341D01*
X96379596Y-91464936D01*
X96379586Y-91464938D01*
X96151344Y-91526094D01*
X96151335Y-91526098D01*
X95937171Y-91625964D01*
X95937169Y-91625965D01*
X95743600Y-91761503D01*
X95621284Y-91883819D01*
X95559961Y-91917303D01*
X95490269Y-91912319D01*
X95434336Y-91870447D01*
X95417421Y-91839470D01*
X95368354Y-91707913D01*
X95368350Y-91707906D01*
X95282190Y-91592812D01*
X95282187Y-91592809D01*
X95167093Y-91506649D01*
X95167086Y-91506645D01*
X95032379Y-91456403D01*
X95032372Y-91456401D01*
X94972844Y-91450000D01*
X94325000Y-91450000D01*
X94325000Y-92366988D01*
X94267993Y-92334075D01*
X94140826Y-92300000D01*
X94009174Y-92300000D01*
X93882007Y-92334075D01*
X93825000Y-92366988D01*
X93825000Y-91450000D01*
X93177155Y-91450000D01*
X93117627Y-91456401D01*
X93117620Y-91456403D01*
X92982913Y-91506645D01*
X92982906Y-91506649D01*
X92867812Y-91592809D01*
X92867809Y-91592812D01*
X92781649Y-91707906D01*
X92781645Y-91707913D01*
X92731403Y-91842620D01*
X92731401Y-91842627D01*
X92725000Y-91902155D01*
X92725000Y-92550000D01*
X93641988Y-92550000D01*
X93609075Y-92607007D01*
X93575000Y-92734174D01*
X93575000Y-92865826D01*
X93609075Y-92992993D01*
X93641988Y-93050000D01*
X92725000Y-93050000D01*
X92725000Y-93697844D01*
X92731401Y-93757372D01*
X92731403Y-93757379D01*
X92781645Y-93892086D01*
X92781649Y-93892093D01*
X92867809Y-94007187D01*
X92867812Y-94007190D01*
X92960042Y-94076234D01*
X93001913Y-94132168D01*
X93006897Y-94201859D01*
X92973411Y-94263182D01*
X92912088Y-94296666D01*
X92885731Y-94299500D01*
X77061421Y-94299500D01*
X76994382Y-94279815D01*
X76948627Y-94227011D01*
X76938683Y-94157853D01*
X76967708Y-94094297D01*
X77009016Y-94063118D01*
X77092830Y-94024035D01*
X77286401Y-93888495D01*
X77453495Y-93721401D01*
X77589035Y-93527830D01*
X77688903Y-93313663D01*
X77750063Y-93085408D01*
X77770659Y-92850000D01*
X77770221Y-92844999D01*
X77757737Y-92702301D01*
X77750063Y-92614592D01*
X77693200Y-92402372D01*
X77688905Y-92386344D01*
X77688904Y-92386343D01*
X77688903Y-92386337D01*
X77589035Y-92172171D01*
X77584212Y-92165282D01*
X77453494Y-91978597D01*
X77286402Y-91811506D01*
X77286395Y-91811501D01*
X77092834Y-91675967D01*
X77092830Y-91675965D01*
X77076817Y-91668498D01*
X76878663Y-91576097D01*
X76878659Y-91576096D01*
X76878655Y-91576094D01*
X76669298Y-91519998D01*
X80499437Y-91519998D01*
X80499437Y-91520001D01*
X80519650Y-91751044D01*
X80519651Y-91751051D01*
X80579678Y-91975074D01*
X80579679Y-91975076D01*
X80579680Y-91975079D01*
X80677699Y-92185282D01*
X80810730Y-92375269D01*
X80974731Y-92539270D01*
X81164718Y-92672301D01*
X81374921Y-92770320D01*
X81598950Y-92830349D01*
X81763985Y-92844787D01*
X81829998Y-92850563D01*
X81830000Y-92850563D01*
X81830002Y-92850563D01*
X81893586Y-92845000D01*
X82061050Y-92830349D01*
X82285079Y-92770320D01*
X82495282Y-92672301D01*
X82685269Y-92539270D01*
X82841032Y-92383506D01*
X82902352Y-92350024D01*
X82972043Y-92355008D01*
X83027977Y-92396879D01*
X83047086Y-92445430D01*
X83049620Y-92444832D01*
X83051403Y-92452379D01*
X83101645Y-92587086D01*
X83101649Y-92587093D01*
X83187809Y-92702187D01*
X83187812Y-92702190D01*
X83302906Y-92788350D01*
X83302913Y-92788354D01*
X83437620Y-92838596D01*
X83437627Y-92838598D01*
X83497155Y-92844999D01*
X83497172Y-92845000D01*
X84120000Y-92845000D01*
X84120000Y-92010747D01*
X84157708Y-92032518D01*
X84297591Y-92070000D01*
X84442409Y-92070000D01*
X84582292Y-92032518D01*
X84620000Y-92010747D01*
X84620000Y-92845000D01*
X85242828Y-92845000D01*
X85242844Y-92844999D01*
X85302372Y-92838598D01*
X85302379Y-92838596D01*
X85437086Y-92788354D01*
X85437093Y-92788350D01*
X85552187Y-92702190D01*
X85552190Y-92702187D01*
X85638350Y-92587093D01*
X85638354Y-92587086D01*
X85688596Y-92452379D01*
X85688598Y-92452372D01*
X85694999Y-92392844D01*
X85695000Y-92392827D01*
X85695000Y-91770000D01*
X84860748Y-91770000D01*
X84882518Y-91732292D01*
X84920000Y-91592409D01*
X84920000Y-91447591D01*
X84882518Y-91307708D01*
X84860748Y-91270000D01*
X85695000Y-91270000D01*
X85695000Y-90647172D01*
X85694999Y-90647155D01*
X85688598Y-90587627D01*
X85688596Y-90587620D01*
X85638354Y-90452913D01*
X85638350Y-90452906D01*
X85552190Y-90337812D01*
X85552187Y-90337809D01*
X85437093Y-90251649D01*
X85437086Y-90251645D01*
X85302379Y-90201403D01*
X85302372Y-90201401D01*
X85242844Y-90195000D01*
X84620000Y-90195000D01*
X84620000Y-91029252D01*
X84582292Y-91007482D01*
X84442409Y-90970000D01*
X84297591Y-90970000D01*
X84157708Y-91007482D01*
X84120000Y-91029252D01*
X84120000Y-90195000D01*
X83497155Y-90195000D01*
X83437627Y-90201401D01*
X83437620Y-90201403D01*
X83302913Y-90251645D01*
X83302906Y-90251649D01*
X83187812Y-90337809D01*
X83187809Y-90337812D01*
X83101649Y-90452906D01*
X83101645Y-90452913D01*
X83051403Y-90587620D01*
X83049620Y-90595168D01*
X83046849Y-90594513D01*
X83025239Y-90646643D01*
X82967835Y-90686475D01*
X82898009Y-90688948D01*
X82841029Y-90656490D01*
X82685269Y-90500730D01*
X82659814Y-90482906D01*
X82495282Y-90367699D01*
X82285079Y-90269680D01*
X82285076Y-90269679D01*
X82285074Y-90269678D01*
X82061051Y-90209651D01*
X82061044Y-90209650D01*
X81830002Y-90189437D01*
X81829998Y-90189437D01*
X81598955Y-90209650D01*
X81598948Y-90209651D01*
X81374917Y-90269681D01*
X81164718Y-90367699D01*
X81164714Y-90367701D01*
X80974735Y-90500726D01*
X80974729Y-90500731D01*
X80810731Y-90664729D01*
X80810726Y-90664735D01*
X80677701Y-90854714D01*
X80677699Y-90854718D01*
X80579681Y-91064917D01*
X80519651Y-91288948D01*
X80519650Y-91288955D01*
X80499437Y-91519998D01*
X76669298Y-91519998D01*
X76650413Y-91514938D01*
X76650403Y-91514936D01*
X76415001Y-91494341D01*
X76414999Y-91494341D01*
X76179596Y-91514936D01*
X76179586Y-91514938D01*
X75951344Y-91576094D01*
X75951335Y-91576098D01*
X75737171Y-91675964D01*
X75737169Y-91675965D01*
X75543600Y-91811503D01*
X75421284Y-91933819D01*
X75359961Y-91967303D01*
X75290269Y-91962319D01*
X75234336Y-91920447D01*
X75217421Y-91889470D01*
X75168354Y-91757913D01*
X75168350Y-91757906D01*
X75082190Y-91642812D01*
X75082187Y-91642809D01*
X74967093Y-91556649D01*
X74967086Y-91556645D01*
X74832379Y-91506403D01*
X74832372Y-91506401D01*
X74772844Y-91500000D01*
X74125000Y-91500000D01*
X74125000Y-92416988D01*
X74067993Y-92384075D01*
X73940826Y-92350000D01*
X73809174Y-92350000D01*
X73682007Y-92384075D01*
X73625000Y-92416988D01*
X73625000Y-91500000D01*
X72977155Y-91500000D01*
X72917627Y-91506401D01*
X72917620Y-91506403D01*
X72782913Y-91556645D01*
X72782906Y-91556649D01*
X72667812Y-91642809D01*
X72667809Y-91642812D01*
X72581649Y-91757906D01*
X72581645Y-91757913D01*
X72531403Y-91892620D01*
X72531401Y-91892627D01*
X72525000Y-91952155D01*
X72525000Y-92600000D01*
X73441988Y-92600000D01*
X73409075Y-92657007D01*
X73375000Y-92784174D01*
X73375000Y-92915826D01*
X73409075Y-93042993D01*
X73441988Y-93100000D01*
X72525000Y-93100000D01*
X72525000Y-93747844D01*
X72531401Y-93807372D01*
X72531403Y-93807379D01*
X72581645Y-93942086D01*
X72581649Y-93942093D01*
X72667809Y-94057187D01*
X72693252Y-94076234D01*
X72735122Y-94132168D01*
X72740106Y-94201860D01*
X72706620Y-94263182D01*
X72645297Y-94296667D01*
X72618940Y-94299500D01*
X52273596Y-94299500D01*
X52206557Y-94279815D01*
X52160802Y-94227011D01*
X52149596Y-94175788D01*
X52125500Y-83790500D01*
X52125500Y-73250000D01*
X64744355Y-73250000D01*
X64764859Y-73418869D01*
X64764860Y-73418874D01*
X64825182Y-73577931D01*
X64887475Y-73668177D01*
X64921817Y-73717929D01*
X65013722Y-73799349D01*
X65049150Y-73830736D01*
X65199773Y-73909789D01*
X65199775Y-73909790D01*
X65364944Y-73950500D01*
X65535056Y-73950500D01*
X65700225Y-73909790D01*
X65786128Y-73864703D01*
X65843754Y-73850500D01*
X68113331Y-73850500D01*
X68113347Y-73850501D01*
X68120943Y-73850501D01*
X68279055Y-73850501D01*
X68279057Y-73850501D01*
X68293406Y-73846656D01*
X68363254Y-73848317D01*
X68421117Y-73887478D01*
X68448623Y-73951706D01*
X68449500Y-73966430D01*
X68449500Y-74549903D01*
X68429815Y-74616942D01*
X68413181Y-74637584D01*
X67887584Y-75163181D01*
X67826261Y-75196666D01*
X67799903Y-75199500D01*
X65943754Y-75199500D01*
X65886128Y-75185296D01*
X65842459Y-75162376D01*
X65800224Y-75140209D01*
X65635056Y-75099500D01*
X65464944Y-75099500D01*
X65299773Y-75140210D01*
X65149150Y-75219263D01*
X65021816Y-75332072D01*
X64925182Y-75472068D01*
X64864860Y-75631125D01*
X64864859Y-75631130D01*
X64844355Y-75800000D01*
X64864859Y-75968869D01*
X64864860Y-75968874D01*
X64925182Y-76127931D01*
X64968199Y-76190251D01*
X65021817Y-76267929D01*
X65085718Y-76324540D01*
X65149150Y-76380736D01*
X65299773Y-76459789D01*
X65299775Y-76459790D01*
X65464944Y-76500500D01*
X65635056Y-76500500D01*
X65800225Y-76459790D01*
X65886128Y-76414703D01*
X65943754Y-76400500D01*
X68013331Y-76400500D01*
X68013347Y-76400501D01*
X68020943Y-76400501D01*
X68179054Y-76400501D01*
X68179057Y-76400501D01*
X68331785Y-76359577D01*
X68392477Y-76324536D01*
X68468716Y-76280520D01*
X68580520Y-76168716D01*
X68580520Y-76168714D01*
X68590725Y-76158510D01*
X68590728Y-76158505D01*
X68637820Y-76111413D01*
X68699143Y-76077930D01*
X68768835Y-76082915D01*
X68824768Y-76124787D01*
X68849184Y-76190251D01*
X68849500Y-76199096D01*
X68849500Y-80049901D01*
X68829815Y-80116940D01*
X68813182Y-80137582D01*
X68737584Y-80213181D01*
X68676261Y-80246666D01*
X68649902Y-80249500D01*
X65943754Y-80249500D01*
X65886128Y-80235296D01*
X65842459Y-80212376D01*
X65800224Y-80190209D01*
X65635056Y-80149500D01*
X65464944Y-80149500D01*
X65299773Y-80190210D01*
X65149150Y-80269263D01*
X65021816Y-80382072D01*
X64925182Y-80522068D01*
X64864860Y-80681125D01*
X64864859Y-80681130D01*
X64844355Y-80850000D01*
X64864859Y-81018869D01*
X64864860Y-81018874D01*
X64925182Y-81177931D01*
X64987475Y-81268177D01*
X65021817Y-81317929D01*
X65127505Y-81411560D01*
X65149150Y-81430736D01*
X65297313Y-81508498D01*
X65299775Y-81509790D01*
X65464944Y-81550500D01*
X65635056Y-81550500D01*
X65800225Y-81509790D01*
X65886128Y-81464703D01*
X65943754Y-81450500D01*
X68822541Y-81450500D01*
X68889580Y-81470185D01*
X68935335Y-81522989D01*
X68945636Y-81589450D01*
X68944355Y-81599997D01*
X68944355Y-81599999D01*
X68964859Y-81768869D01*
X68964860Y-81768874D01*
X69025182Y-81927931D01*
X69065614Y-81986506D01*
X69121817Y-82067929D01*
X69249148Y-82180734D01*
X69249150Y-82180735D01*
X69375947Y-82247284D01*
X69426159Y-82295868D01*
X69442134Y-82363887D01*
X69418799Y-82429745D01*
X69406003Y-82444761D01*
X69087582Y-82763182D01*
X69026261Y-82796666D01*
X68999903Y-82799500D01*
X66043754Y-82799500D01*
X65986128Y-82785296D01*
X65942459Y-82762376D01*
X65900224Y-82740209D01*
X65735056Y-82699500D01*
X65564944Y-82699500D01*
X65399773Y-82740210D01*
X65249150Y-82819263D01*
X65121816Y-82932072D01*
X65025182Y-83072068D01*
X64964860Y-83231125D01*
X64964859Y-83231130D01*
X64944355Y-83400000D01*
X64964859Y-83568869D01*
X64964860Y-83568874D01*
X65025182Y-83727931D01*
X65068199Y-83790251D01*
X65121817Y-83867929D01*
X65212059Y-83947876D01*
X65249150Y-83980736D01*
X65378254Y-84048495D01*
X65399775Y-84059790D01*
X65564944Y-84100500D01*
X65735056Y-84100500D01*
X65900225Y-84059790D01*
X65986128Y-84014703D01*
X66043754Y-84000500D01*
X69213331Y-84000500D01*
X69213347Y-84000501D01*
X69220943Y-84000501D01*
X69379054Y-84000501D01*
X69379057Y-84000501D01*
X69531785Y-83959577D01*
X69595358Y-83922873D01*
X69668716Y-83880520D01*
X69780520Y-83768716D01*
X69780520Y-83768714D01*
X69790725Y-83758510D01*
X69790728Y-83758505D01*
X69837820Y-83711413D01*
X69899143Y-83677930D01*
X69968835Y-83682915D01*
X70024768Y-83724787D01*
X70049184Y-83790251D01*
X70049500Y-83799096D01*
X70049500Y-84899903D01*
X70029815Y-84966942D01*
X70013181Y-84987584D01*
X69687584Y-85313181D01*
X69626261Y-85346666D01*
X69599903Y-85349500D01*
X66093754Y-85349500D01*
X66036128Y-85335296D01*
X65992459Y-85312376D01*
X65950224Y-85290209D01*
X65785056Y-85249500D01*
X65614944Y-85249500D01*
X65449773Y-85290210D01*
X65299150Y-85369263D01*
X65171816Y-85482072D01*
X65075182Y-85622068D01*
X65075182Y-85622069D01*
X65014860Y-85781124D01*
X65014859Y-85781129D01*
X65008699Y-85831859D01*
X65005379Y-85849001D01*
X64999500Y-85870942D01*
X64999500Y-85900125D01*
X64998596Y-85915071D01*
X64994355Y-85950000D01*
X64997835Y-85978663D01*
X64998596Y-85984926D01*
X64999500Y-85999873D01*
X64999500Y-86029062D01*
X65005378Y-86050998D01*
X65008699Y-86068141D01*
X65014859Y-86118870D01*
X65014860Y-86118875D01*
X65075182Y-86277930D01*
X65075182Y-86277931D01*
X65119982Y-86342834D01*
X65171817Y-86417929D01*
X65275265Y-86509576D01*
X65299150Y-86530736D01*
X65449773Y-86609789D01*
X65449775Y-86609790D01*
X65614944Y-86650500D01*
X65785056Y-86650500D01*
X65950225Y-86609790D01*
X66036128Y-86564703D01*
X66093754Y-86550500D01*
X69813331Y-86550500D01*
X69813347Y-86550501D01*
X69820943Y-86550501D01*
X69979054Y-86550501D01*
X69979057Y-86550501D01*
X70131785Y-86509577D01*
X70192477Y-86474536D01*
X70268716Y-86430520D01*
X70380520Y-86318716D01*
X70380520Y-86318714D01*
X70390724Y-86308511D01*
X70390728Y-86308506D01*
X71008506Y-85690728D01*
X71008511Y-85690724D01*
X71018714Y-85680520D01*
X71018716Y-85680520D01*
X71130520Y-85568716D01*
X71161533Y-85514999D01*
X77994341Y-85514999D01*
X77994341Y-85515000D01*
X78014936Y-85750403D01*
X78014938Y-85750413D01*
X78076094Y-85978655D01*
X78076096Y-85978659D01*
X78076097Y-85978663D01*
X78149582Y-86136252D01*
X78175965Y-86192830D01*
X78175967Y-86192834D01*
X78256959Y-86308501D01*
X78311505Y-86386401D01*
X78478599Y-86553495D01*
X78550011Y-86603498D01*
X78672165Y-86689032D01*
X78672167Y-86689033D01*
X78672170Y-86689035D01*
X78886337Y-86788903D01*
X78886343Y-86788904D01*
X78886344Y-86788905D01*
X78918422Y-86797500D01*
X79114592Y-86850063D01*
X79302918Y-86866539D01*
X79349999Y-86870659D01*
X79350000Y-86870659D01*
X79350001Y-86870659D01*
X79391844Y-86866998D01*
X79585408Y-86850063D01*
X79813663Y-86788903D01*
X80027830Y-86689035D01*
X80221401Y-86553495D01*
X80388495Y-86386401D01*
X80524035Y-86192830D01*
X80623903Y-85978663D01*
X80685063Y-85750408D01*
X80701285Y-85564999D01*
X98044341Y-85564999D01*
X98044341Y-85565000D01*
X98064936Y-85800403D01*
X98064938Y-85800413D01*
X98126094Y-86028655D01*
X98126096Y-86028659D01*
X98126097Y-86028663D01*
X98207337Y-86202882D01*
X98225965Y-86242830D01*
X98225967Y-86242834D01*
X98326490Y-86386395D01*
X98361505Y-86436401D01*
X98528599Y-86603495D01*
X98600011Y-86653498D01*
X98722165Y-86739032D01*
X98722167Y-86739033D01*
X98722170Y-86739035D01*
X98936337Y-86838903D01*
X98936343Y-86838904D01*
X98936344Y-86838905D01*
X98977980Y-86850061D01*
X99164592Y-86900063D01*
X99346349Y-86915965D01*
X99399999Y-86920659D01*
X99400000Y-86920659D01*
X99400001Y-86920659D01*
X99453651Y-86915965D01*
X99635408Y-86900063D01*
X99863663Y-86838903D01*
X100077830Y-86739035D01*
X100271401Y-86603495D01*
X100438495Y-86436401D01*
X100574035Y-86242830D01*
X100673903Y-86028663D01*
X100735063Y-85800408D01*
X100753472Y-85589999D01*
X118144341Y-85589999D01*
X118144341Y-85590000D01*
X118164936Y-85825403D01*
X118164938Y-85825413D01*
X118226094Y-86053655D01*
X118226096Y-86053659D01*
X118226097Y-86053663D01*
X118303056Y-86218701D01*
X118325965Y-86267830D01*
X118325967Y-86267834D01*
X118378483Y-86342834D01*
X118461505Y-86461401D01*
X118628599Y-86628495D01*
X118664300Y-86653493D01*
X118822165Y-86764032D01*
X118822167Y-86764033D01*
X118822170Y-86764035D01*
X119036337Y-86863903D01*
X119036343Y-86863904D01*
X119036344Y-86863905D01*
X119049761Y-86867500D01*
X119264592Y-86925063D01*
X119446349Y-86940965D01*
X119499999Y-86945659D01*
X119500000Y-86945659D01*
X119500001Y-86945659D01*
X119553651Y-86940965D01*
X119735408Y-86925063D01*
X119963663Y-86863903D01*
X120177830Y-86764035D01*
X120371401Y-86628495D01*
X120538495Y-86461401D01*
X120674035Y-86267830D01*
X120773903Y-86053663D01*
X120835063Y-85825408D01*
X120853472Y-85614999D01*
X138094341Y-85614999D01*
X138094341Y-85615000D01*
X138114936Y-85850403D01*
X138114938Y-85850413D01*
X138176094Y-86078655D01*
X138176096Y-86078659D01*
X138176097Y-86078663D01*
X138253056Y-86243701D01*
X138275965Y-86292830D01*
X138275967Y-86292834D01*
X138310975Y-86342830D01*
X138411505Y-86486401D01*
X138578599Y-86653495D01*
X138650011Y-86703498D01*
X138772165Y-86789032D01*
X138772167Y-86789033D01*
X138772170Y-86789035D01*
X138986337Y-86888903D01*
X138986343Y-86888904D01*
X138986344Y-86888905D01*
X139008550Y-86894855D01*
X139214592Y-86950063D01*
X139402918Y-86966539D01*
X139449999Y-86970659D01*
X139450000Y-86970659D01*
X139450001Y-86970659D01*
X139489234Y-86967226D01*
X139685408Y-86950063D01*
X139913663Y-86888903D01*
X140127830Y-86789035D01*
X140321401Y-86653495D01*
X140488495Y-86486401D01*
X140624035Y-86292830D01*
X140723903Y-86078663D01*
X140785063Y-85850408D01*
X140801285Y-85664999D01*
X158344341Y-85664999D01*
X158344341Y-85665000D01*
X158364936Y-85900403D01*
X158364938Y-85900413D01*
X158426094Y-86128655D01*
X158426096Y-86128659D01*
X158426097Y-86128663D01*
X158509957Y-86308501D01*
X158525965Y-86342830D01*
X158525967Y-86342834D01*
X158598486Y-86446401D01*
X158661505Y-86536401D01*
X158828599Y-86703495D01*
X158885625Y-86743425D01*
X159022165Y-86839032D01*
X159022167Y-86839033D01*
X159022170Y-86839035D01*
X159236337Y-86938903D01*
X159236343Y-86938904D01*
X159236344Y-86938905D01*
X159277980Y-86950061D01*
X159464592Y-87000063D01*
X159652918Y-87016539D01*
X159699999Y-87020659D01*
X159700000Y-87020659D01*
X159700001Y-87020659D01*
X159739234Y-87017226D01*
X159935408Y-87000063D01*
X160163663Y-86938903D01*
X160377830Y-86839035D01*
X160571401Y-86703495D01*
X160738495Y-86536401D01*
X160874035Y-86342830D01*
X160973903Y-86128663D01*
X161035063Y-85900408D01*
X161055659Y-85665000D01*
X161035063Y-85429592D01*
X160973903Y-85201337D01*
X160874035Y-84987171D01*
X160849940Y-84952760D01*
X160738496Y-84793600D01*
X160688495Y-84743599D01*
X160616567Y-84671671D01*
X160583084Y-84610351D01*
X160588068Y-84540659D01*
X160629939Y-84484725D01*
X160660915Y-84467810D01*
X160792331Y-84418796D01*
X160907546Y-84332546D01*
X160993796Y-84217331D01*
X161044091Y-84082483D01*
X161050500Y-84022873D01*
X161050499Y-82227128D01*
X161044091Y-82167517D01*
X161038899Y-82153597D01*
X160993797Y-82032671D01*
X160993793Y-82032664D01*
X160907547Y-81917455D01*
X160907544Y-81917452D01*
X160792335Y-81831206D01*
X160792328Y-81831202D01*
X160657482Y-81780908D01*
X160657483Y-81780908D01*
X160597883Y-81774501D01*
X160597881Y-81774500D01*
X160597873Y-81774500D01*
X160597864Y-81774500D01*
X158802129Y-81774500D01*
X158802123Y-81774501D01*
X158742516Y-81780908D01*
X158607671Y-81831202D01*
X158607664Y-81831206D01*
X158492455Y-81917452D01*
X158492452Y-81917455D01*
X158406206Y-82032664D01*
X158406202Y-82032671D01*
X158355908Y-82167517D01*
X158349501Y-82227116D01*
X158349501Y-82227123D01*
X158349500Y-82227135D01*
X158349500Y-84022870D01*
X158349501Y-84022876D01*
X158355908Y-84082483D01*
X158406202Y-84217328D01*
X158406206Y-84217335D01*
X158492452Y-84332544D01*
X158492455Y-84332547D01*
X158607664Y-84418793D01*
X158607671Y-84418797D01*
X158739081Y-84467810D01*
X158795015Y-84509681D01*
X158819432Y-84575145D01*
X158804580Y-84643418D01*
X158783430Y-84671673D01*
X158661503Y-84793600D01*
X158525965Y-84987169D01*
X158525964Y-84987171D01*
X158426098Y-85201335D01*
X158426094Y-85201344D01*
X158364938Y-85429586D01*
X158364936Y-85429596D01*
X158344341Y-85664999D01*
X140801285Y-85664999D01*
X140805659Y-85615000D01*
X140785063Y-85379592D01*
X140723903Y-85151337D01*
X140624035Y-84937171D01*
X140619938Y-84931320D01*
X140488496Y-84743600D01*
X140438490Y-84693594D01*
X140366567Y-84621671D01*
X140333084Y-84560351D01*
X140338068Y-84490659D01*
X140379939Y-84434725D01*
X140410915Y-84417810D01*
X140542331Y-84368796D01*
X140657546Y-84282546D01*
X140743796Y-84167331D01*
X140794091Y-84032483D01*
X140800500Y-83972873D01*
X140800499Y-82177128D01*
X140794091Y-82117517D01*
X140784766Y-82092516D01*
X140743797Y-81982671D01*
X140743793Y-81982664D01*
X140657547Y-81867455D01*
X140657544Y-81867452D01*
X140542335Y-81781206D01*
X140542328Y-81781202D01*
X140407482Y-81730908D01*
X140407483Y-81730908D01*
X140347883Y-81724501D01*
X140347881Y-81724500D01*
X140347873Y-81724500D01*
X140347864Y-81724500D01*
X138552129Y-81724500D01*
X138552123Y-81724501D01*
X138492516Y-81730908D01*
X138357671Y-81781202D01*
X138357664Y-81781206D01*
X138242455Y-81867452D01*
X138242452Y-81867455D01*
X138156206Y-81982664D01*
X138156202Y-81982671D01*
X138105908Y-82117517D01*
X138100954Y-82163599D01*
X138099501Y-82177123D01*
X138099500Y-82177135D01*
X138099500Y-83972870D01*
X138099501Y-83972876D01*
X138105908Y-84032483D01*
X138156202Y-84167328D01*
X138156206Y-84167335D01*
X138242452Y-84282544D01*
X138242455Y-84282547D01*
X138357664Y-84368793D01*
X138357671Y-84368797D01*
X138489081Y-84417810D01*
X138545015Y-84459681D01*
X138569432Y-84525145D01*
X138554580Y-84593418D01*
X138533430Y-84621673D01*
X138411503Y-84743600D01*
X138275965Y-84937169D01*
X138275964Y-84937171D01*
X138176098Y-85151335D01*
X138176094Y-85151344D01*
X138114938Y-85379586D01*
X138114936Y-85379596D01*
X138094341Y-85614999D01*
X120853472Y-85614999D01*
X120855659Y-85590000D01*
X120853796Y-85568712D01*
X120841817Y-85431786D01*
X120835063Y-85354592D01*
X120773903Y-85126337D01*
X120674035Y-84912171D01*
X120672931Y-84910595D01*
X120538496Y-84718600D01*
X120488490Y-84668594D01*
X120416567Y-84596671D01*
X120383084Y-84535351D01*
X120388068Y-84465659D01*
X120429939Y-84409725D01*
X120460915Y-84392810D01*
X120592331Y-84343796D01*
X120707546Y-84257546D01*
X120793796Y-84142331D01*
X120844091Y-84007483D01*
X120850500Y-83947873D01*
X120850499Y-82152128D01*
X120844091Y-82092517D01*
X120838351Y-82077128D01*
X120793797Y-81957671D01*
X120793793Y-81957664D01*
X120707547Y-81842455D01*
X120707544Y-81842452D01*
X120592335Y-81756206D01*
X120592328Y-81756202D01*
X120457482Y-81705908D01*
X120457483Y-81705908D01*
X120397883Y-81699501D01*
X120397881Y-81699500D01*
X120397873Y-81699500D01*
X120397864Y-81699500D01*
X118602129Y-81699500D01*
X118602123Y-81699501D01*
X118542516Y-81705908D01*
X118407671Y-81756202D01*
X118407664Y-81756206D01*
X118292455Y-81842452D01*
X118292452Y-81842455D01*
X118206206Y-81957664D01*
X118206202Y-81957671D01*
X118155908Y-82092517D01*
X118150954Y-82138599D01*
X118149501Y-82152123D01*
X118149500Y-82152135D01*
X118149500Y-83947870D01*
X118149501Y-83947876D01*
X118155908Y-84007483D01*
X118206202Y-84142328D01*
X118206206Y-84142335D01*
X118292452Y-84257544D01*
X118292455Y-84257547D01*
X118407664Y-84343793D01*
X118407671Y-84343797D01*
X118539081Y-84392810D01*
X118595015Y-84434681D01*
X118619432Y-84500145D01*
X118604580Y-84568418D01*
X118583430Y-84596673D01*
X118461503Y-84718600D01*
X118325965Y-84912169D01*
X118325964Y-84912171D01*
X118226098Y-85126335D01*
X118226094Y-85126344D01*
X118164938Y-85354586D01*
X118164936Y-85354596D01*
X118144341Y-85589999D01*
X100753472Y-85589999D01*
X100755659Y-85565000D01*
X100735063Y-85329592D01*
X100679156Y-85120943D01*
X100673905Y-85101344D01*
X100673904Y-85101343D01*
X100673903Y-85101337D01*
X100574035Y-84887171D01*
X100573424Y-84886299D01*
X100438496Y-84693600D01*
X100388314Y-84643418D01*
X100316567Y-84571671D01*
X100283084Y-84510351D01*
X100288068Y-84440659D01*
X100329939Y-84384725D01*
X100360915Y-84367810D01*
X100492331Y-84318796D01*
X100607546Y-84232546D01*
X100693796Y-84117331D01*
X100744091Y-83982483D01*
X100750500Y-83922873D01*
X100750499Y-82127128D01*
X100744091Y-82067517D01*
X100731094Y-82032671D01*
X100693797Y-81932671D01*
X100693793Y-81932664D01*
X100607547Y-81817455D01*
X100607544Y-81817452D01*
X100492335Y-81731206D01*
X100492328Y-81731202D01*
X100357482Y-81680908D01*
X100357483Y-81680908D01*
X100297883Y-81674501D01*
X100297881Y-81674500D01*
X100297873Y-81674500D01*
X100297864Y-81674500D01*
X98502129Y-81674500D01*
X98502123Y-81674501D01*
X98442516Y-81680908D01*
X98307671Y-81731202D01*
X98307664Y-81731206D01*
X98192455Y-81817452D01*
X98192452Y-81817455D01*
X98106206Y-81932664D01*
X98106202Y-81932671D01*
X98055908Y-82067517D01*
X98050533Y-82117516D01*
X98049501Y-82127123D01*
X98049500Y-82127135D01*
X98049500Y-83922870D01*
X98049501Y-83922872D01*
X98055908Y-83982483D01*
X98106202Y-84117328D01*
X98106206Y-84117335D01*
X98192452Y-84232544D01*
X98192455Y-84232547D01*
X98307664Y-84318793D01*
X98307671Y-84318797D01*
X98439081Y-84367810D01*
X98495015Y-84409681D01*
X98519432Y-84475145D01*
X98504580Y-84543418D01*
X98483430Y-84571673D01*
X98361503Y-84693600D01*
X98225965Y-84887169D01*
X98225964Y-84887171D01*
X98126098Y-85101335D01*
X98126094Y-85101344D01*
X98064938Y-85329586D01*
X98064936Y-85329596D01*
X98044341Y-85564999D01*
X80701285Y-85564999D01*
X80705659Y-85515000D01*
X80685063Y-85279592D01*
X80623903Y-85051337D01*
X80524035Y-84837171D01*
X80493526Y-84793600D01*
X80388496Y-84643600D01*
X80338314Y-84593418D01*
X80266567Y-84521671D01*
X80233084Y-84460351D01*
X80238068Y-84390659D01*
X80279939Y-84334725D01*
X80310915Y-84317810D01*
X80442331Y-84268796D01*
X80557546Y-84182546D01*
X80643796Y-84067331D01*
X80694091Y-83932483D01*
X80700500Y-83872873D01*
X80700499Y-82077128D01*
X80694091Y-82017517D01*
X80686254Y-81996506D01*
X80643797Y-81882671D01*
X80643793Y-81882664D01*
X80557547Y-81767455D01*
X80557544Y-81767452D01*
X80442335Y-81681206D01*
X80442328Y-81681202D01*
X80307482Y-81630908D01*
X80307483Y-81630908D01*
X80247883Y-81624501D01*
X80247881Y-81624500D01*
X80247873Y-81624500D01*
X80247864Y-81624500D01*
X78452129Y-81624500D01*
X78452123Y-81624501D01*
X78392516Y-81630908D01*
X78257671Y-81681202D01*
X78257664Y-81681206D01*
X78142455Y-81767452D01*
X78142452Y-81767455D01*
X78056206Y-81882664D01*
X78056202Y-81882671D01*
X78005908Y-82017517D01*
X78000533Y-82067516D01*
X77999501Y-82077123D01*
X77999500Y-82077135D01*
X77999500Y-83872870D01*
X77999501Y-83872876D01*
X78005908Y-83932483D01*
X78056202Y-84067328D01*
X78056206Y-84067335D01*
X78142452Y-84182544D01*
X78142455Y-84182547D01*
X78257664Y-84268793D01*
X78257671Y-84268797D01*
X78389081Y-84317810D01*
X78445015Y-84359681D01*
X78469432Y-84425145D01*
X78454580Y-84493418D01*
X78433430Y-84521673D01*
X78311503Y-84643600D01*
X78175965Y-84837169D01*
X78175964Y-84837171D01*
X78076098Y-85051335D01*
X78076094Y-85051344D01*
X78014938Y-85279586D01*
X78014936Y-85279596D01*
X77994341Y-85514999D01*
X71161533Y-85514999D01*
X71183784Y-85476459D01*
X71209577Y-85431785D01*
X71250500Y-85279057D01*
X71250500Y-85120943D01*
X71250500Y-66450097D01*
X71270185Y-66383058D01*
X71286819Y-66362416D01*
X71812416Y-65836819D01*
X71873739Y-65803334D01*
X71900097Y-65800500D01*
X76356246Y-65800500D01*
X76413871Y-65814703D01*
X76499775Y-65859790D01*
X76664944Y-65900500D01*
X76835056Y-65900500D01*
X77000225Y-65859790D01*
X77086128Y-65814703D01*
X77143754Y-65800500D01*
X96206246Y-65800500D01*
X96263871Y-65814703D01*
X96349775Y-65859790D01*
X96514944Y-65900500D01*
X96685056Y-65900500D01*
X96850225Y-65859790D01*
X96936128Y-65814703D01*
X96993754Y-65800500D01*
X116306246Y-65800500D01*
X116363871Y-65814703D01*
X116449775Y-65859790D01*
X116614944Y-65900500D01*
X116785056Y-65900500D01*
X116950225Y-65859790D01*
X117036128Y-65814703D01*
X117093754Y-65800500D01*
X136806246Y-65800500D01*
X136863871Y-65814703D01*
X136949775Y-65859790D01*
X137114944Y-65900500D01*
X137285056Y-65900500D01*
X137450225Y-65859790D01*
X137536128Y-65814703D01*
X137593754Y-65800500D01*
X156806246Y-65800500D01*
X156863871Y-65814703D01*
X156949775Y-65859790D01*
X157114944Y-65900500D01*
X157285056Y-65900500D01*
X157450225Y-65859790D01*
X157536128Y-65814703D01*
X157593754Y-65800500D01*
X157779055Y-65800500D01*
X157779057Y-65800500D01*
X157931784Y-65759577D01*
X158068716Y-65680520D01*
X158180520Y-65568716D01*
X158259577Y-65431784D01*
X158300500Y-65279057D01*
X158300500Y-65120943D01*
X158285618Y-65065404D01*
X158287281Y-64995557D01*
X158289437Y-64989377D01*
X158335140Y-64868872D01*
X158355645Y-64700000D01*
X158335140Y-64531128D01*
X158311376Y-64468468D01*
X158306010Y-64398808D01*
X158339157Y-64337302D01*
X158400295Y-64303480D01*
X158427319Y-64300500D01*
X161456246Y-64300500D01*
X161513871Y-64314703D01*
X161599775Y-64359790D01*
X161764944Y-64400500D01*
X161935056Y-64400500D01*
X162100225Y-64359790D01*
X162207514Y-64303480D01*
X162250849Y-64280736D01*
X162250850Y-64280734D01*
X162250852Y-64280734D01*
X162378183Y-64167929D01*
X162474818Y-64027930D01*
X162519016Y-63911387D01*
X162561192Y-63855686D01*
X162577322Y-63845568D01*
X162700852Y-63780734D01*
X162828183Y-63667929D01*
X162924818Y-63527930D01*
X162985140Y-63368872D01*
X163005645Y-63200000D01*
X162985140Y-63031128D01*
X162924818Y-62872070D01*
X162828183Y-62732071D01*
X162700852Y-62619266D01*
X162700849Y-62619264D01*
X162698650Y-62617316D01*
X162661523Y-62558126D01*
X162662291Y-62488261D01*
X162700708Y-62429901D01*
X162764579Y-62401576D01*
X162780877Y-62400500D01*
X163364944Y-62400500D01*
X163535056Y-62400500D01*
X166774506Y-62400500D01*
X166840477Y-62419506D01*
X166850474Y-62425787D01*
X166850475Y-62425787D01*
X166850478Y-62425789D01*
X167020745Y-62485368D01*
X167020750Y-62485369D01*
X167199996Y-62505565D01*
X167200000Y-62505565D01*
X167200004Y-62505565D01*
X167379249Y-62485369D01*
X167379252Y-62485368D01*
X167379255Y-62485368D01*
X167549522Y-62425789D01*
X167702262Y-62329816D01*
X167829816Y-62202262D01*
X167925789Y-62049522D01*
X167985368Y-61879255D01*
X167987319Y-61861940D01*
X168005565Y-61700003D01*
X168005565Y-61699996D01*
X167985369Y-61520750D01*
X167985368Y-61520745D01*
X167947065Y-61411281D01*
X167925789Y-61350478D01*
X167916386Y-61335514D01*
X167872575Y-61265789D01*
X167829816Y-61197738D01*
X167702262Y-61070184D01*
X167652191Y-61038722D01*
X167549523Y-60974211D01*
X167379254Y-60914631D01*
X167379249Y-60914630D01*
X167200004Y-60894435D01*
X167199996Y-60894435D01*
X167020750Y-60914630D01*
X167020745Y-60914631D01*
X166850474Y-60974212D01*
X166840477Y-60980494D01*
X166774506Y-60999500D01*
X132525494Y-60999500D01*
X132459523Y-60980494D01*
X132449525Y-60974212D01*
X132279254Y-60914631D01*
X132279249Y-60914630D01*
X132100004Y-60894435D01*
X132099996Y-60894435D01*
X131920750Y-60914630D01*
X131920745Y-60914631D01*
X131750474Y-60974212D01*
X131740477Y-60980494D01*
X131674506Y-60999500D01*
X127725494Y-60999500D01*
X127659523Y-60980494D01*
X127649525Y-60974212D01*
X127479254Y-60914631D01*
X127479249Y-60914630D01*
X127300004Y-60894435D01*
X127299996Y-60894435D01*
X127120750Y-60914630D01*
X127120745Y-60914631D01*
X126950474Y-60974212D01*
X126940477Y-60980494D01*
X126874506Y-60999500D01*
X107575494Y-60999500D01*
X107509523Y-60980494D01*
X107499525Y-60974212D01*
X107329254Y-60914631D01*
X107329249Y-60914630D01*
X107150004Y-60894435D01*
X107149996Y-60894435D01*
X106970750Y-60914630D01*
X106970745Y-60914631D01*
X106800474Y-60974212D01*
X106790477Y-60980494D01*
X106724506Y-60999500D01*
X87825494Y-60999500D01*
X87759523Y-60980494D01*
X87749525Y-60974212D01*
X87579254Y-60914631D01*
X87579249Y-60914630D01*
X87400004Y-60894435D01*
X87399996Y-60894435D01*
X87220750Y-60914630D01*
X87220745Y-60914631D01*
X87050474Y-60974212D01*
X87040477Y-60980494D01*
X86974506Y-60999500D01*
X72441519Y-60999500D01*
X72374480Y-60979815D01*
X72353838Y-60963181D01*
X71791367Y-60400710D01*
X71762006Y-60353983D01*
X71757061Y-60339851D01*
X71725789Y-60250478D01*
X71629816Y-60097738D01*
X71502262Y-59970184D01*
X71468126Y-59948735D01*
X71349523Y-59874211D01*
X71179254Y-59814631D01*
X71179249Y-59814630D01*
X71000004Y-59794435D01*
X70999996Y-59794435D01*
X70820750Y-59814630D01*
X70820745Y-59814631D01*
X70650476Y-59874211D01*
X70497737Y-59970184D01*
X70370184Y-60097737D01*
X70274211Y-60250476D01*
X70214631Y-60420745D01*
X70214630Y-60420750D01*
X70194435Y-60599996D01*
X70194435Y-60600003D01*
X70214630Y-60779249D01*
X70214631Y-60779254D01*
X70274211Y-60949523D01*
X70293245Y-60979815D01*
X70370184Y-61102262D01*
X70497738Y-61229816D01*
X70650478Y-61325789D01*
X70753984Y-61362007D01*
X70800710Y-61391367D01*
X71653453Y-62244111D01*
X71653454Y-62244112D01*
X71768192Y-62320777D01*
X71865153Y-62360939D01*
X71919557Y-62404780D01*
X71941622Y-62471074D01*
X71924343Y-62538773D01*
X71873206Y-62586384D01*
X71817701Y-62599500D01*
X70729057Y-62599500D01*
X70570942Y-62599500D01*
X70418215Y-62640423D01*
X70418214Y-62640423D01*
X70418212Y-62640424D01*
X70418209Y-62640425D01*
X70368096Y-62669359D01*
X70368095Y-62669360D01*
X70324689Y-62694420D01*
X70281285Y-62719479D01*
X70281282Y-62719481D01*
X69862181Y-63138583D01*
X69800858Y-63172068D01*
X69731166Y-63167084D01*
X69675233Y-63125212D01*
X69650816Y-63059748D01*
X69650500Y-63050902D01*
X69650500Y-60000097D01*
X69670185Y-59933058D01*
X69686819Y-59912416D01*
X70062416Y-59536819D01*
X70123739Y-59503334D01*
X70150097Y-59500500D01*
X76156246Y-59500500D01*
X76213871Y-59514703D01*
X76299775Y-59559790D01*
X76464944Y-59600500D01*
X76635056Y-59600500D01*
X76800225Y-59559790D01*
X76886128Y-59514703D01*
X76943754Y-59500500D01*
X96106246Y-59500500D01*
X96163871Y-59514703D01*
X96249775Y-59559790D01*
X96414944Y-59600500D01*
X96585056Y-59600500D01*
X96750225Y-59559790D01*
X96836128Y-59514703D01*
X96893754Y-59500500D01*
X116306246Y-59500500D01*
X116363871Y-59514703D01*
X116449775Y-59559790D01*
X116614944Y-59600500D01*
X116785056Y-59600500D01*
X116950225Y-59559790D01*
X117036128Y-59514703D01*
X117093754Y-59500500D01*
X136656246Y-59500500D01*
X136713871Y-59514703D01*
X136799775Y-59559790D01*
X136964944Y-59600500D01*
X137135056Y-59600500D01*
X137300225Y-59559790D01*
X137386128Y-59514703D01*
X137443754Y-59500500D01*
X156806246Y-59500500D01*
X156863871Y-59514703D01*
X156949775Y-59559790D01*
X157114944Y-59600500D01*
X157285056Y-59600500D01*
X157450225Y-59559790D01*
X157536128Y-59514703D01*
X157593754Y-59500500D01*
X157779055Y-59500500D01*
X157779057Y-59500500D01*
X157931784Y-59459577D01*
X158068716Y-59380520D01*
X158180520Y-59268716D01*
X158259577Y-59131784D01*
X158300500Y-58979057D01*
X158300500Y-58820943D01*
X158285618Y-58765404D01*
X158287281Y-58695557D01*
X158289437Y-58689377D01*
X158335140Y-58568872D01*
X158355645Y-58400000D01*
X158335140Y-58231128D01*
X158311376Y-58168468D01*
X158306010Y-58098808D01*
X158339157Y-58037302D01*
X158400295Y-58003480D01*
X158427319Y-58000500D01*
X161963331Y-58000500D01*
X161963347Y-58000501D01*
X161970943Y-58000501D01*
X162129054Y-58000501D01*
X162129057Y-58000501D01*
X162281785Y-57959577D01*
X162342477Y-57924536D01*
X162418716Y-57880520D01*
X162478767Y-57820467D01*
X162536774Y-57787752D01*
X162650225Y-57759790D01*
X162800852Y-57680734D01*
X162928183Y-57567929D01*
X162975071Y-57500000D01*
X177794355Y-57500000D01*
X177814859Y-57668869D01*
X177814860Y-57668874D01*
X177875182Y-57827931D01*
X177920775Y-57893983D01*
X177971817Y-57967929D01*
X178077505Y-58061560D01*
X178099150Y-58080736D01*
X178249773Y-58159789D01*
X178249775Y-58159790D01*
X178414944Y-58200500D01*
X178585056Y-58200500D01*
X178750225Y-58159790D01*
X178836128Y-58114703D01*
X178893754Y-58100500D01*
X180275681Y-58100500D01*
X180342720Y-58120185D01*
X180377729Y-58154057D01*
X180421817Y-58217929D01*
X180501277Y-58288324D01*
X180549150Y-58330736D01*
X180693413Y-58406451D01*
X180699775Y-58409790D01*
X180864944Y-58450500D01*
X181035056Y-58450500D01*
X181200225Y-58409790D01*
X181314144Y-58350000D01*
X181350849Y-58330736D01*
X181350850Y-58330734D01*
X181350852Y-58330734D01*
X181478183Y-58217929D01*
X181574818Y-58077930D01*
X181635140Y-57918872D01*
X181655645Y-57750000D01*
X181635140Y-57581128D01*
X181574818Y-57422070D01*
X181478183Y-57282071D01*
X181363797Y-57180734D01*
X181350849Y-57169263D01*
X181200227Y-57090210D01*
X181153126Y-57078601D01*
X181095121Y-57045885D01*
X181068717Y-57019481D01*
X181068709Y-57019475D01*
X180977550Y-56966845D01*
X180977548Y-56966844D01*
X180931790Y-56940425D01*
X180931789Y-56940424D01*
X180919263Y-56937067D01*
X180779057Y-56899499D01*
X180620943Y-56899499D01*
X180613347Y-56899499D01*
X180613331Y-56899500D01*
X178893754Y-56899500D01*
X178836128Y-56885296D01*
X178792459Y-56862376D01*
X178750224Y-56840209D01*
X178585056Y-56799500D01*
X178414944Y-56799500D01*
X178249773Y-56840210D01*
X178099150Y-56919263D01*
X177971816Y-57032072D01*
X177875182Y-57172068D01*
X177814860Y-57331125D01*
X177814859Y-57331130D01*
X177794355Y-57500000D01*
X162975071Y-57500000D01*
X163024818Y-57427930D01*
X163085140Y-57268872D01*
X163105645Y-57100000D01*
X163085140Y-56931128D01*
X163080641Y-56919266D01*
X163050659Y-56840209D01*
X163024818Y-56772070D01*
X163022608Y-56768869D01*
X162980939Y-56708501D01*
X162928183Y-56632071D01*
X162804592Y-56522579D01*
X162800849Y-56519263D01*
X162650226Y-56440210D01*
X162485056Y-56399500D01*
X162314944Y-56399500D01*
X162309891Y-56399500D01*
X162242852Y-56379815D01*
X162227664Y-56368316D01*
X162213665Y-56355914D01*
X162172298Y-56319266D01*
X162172296Y-56319265D01*
X162172295Y-56319264D01*
X162021672Y-56240210D01*
X161856502Y-56199500D01*
X161686390Y-56199500D01*
X161521221Y-56240209D01*
X161466921Y-56268709D01*
X161435317Y-56285296D01*
X161377692Y-56299500D01*
X142593754Y-56299500D01*
X142536128Y-56285296D01*
X142492459Y-56262376D01*
X142450224Y-56240209D01*
X142285056Y-56199500D01*
X142114944Y-56199500D01*
X141949775Y-56240209D01*
X141895475Y-56268709D01*
X141863871Y-56285296D01*
X141806246Y-56299500D01*
X122443754Y-56299500D01*
X122386128Y-56285296D01*
X122342459Y-56262376D01*
X122300224Y-56240209D01*
X122135056Y-56199500D01*
X121964944Y-56199500D01*
X121799775Y-56240209D01*
X121745475Y-56268709D01*
X121713871Y-56285296D01*
X121656246Y-56299500D01*
X102393754Y-56299500D01*
X102336128Y-56285296D01*
X102292459Y-56262376D01*
X102250224Y-56240209D01*
X102085056Y-56199500D01*
X101914944Y-56199500D01*
X101749775Y-56240209D01*
X101695475Y-56268709D01*
X101663871Y-56285296D01*
X101606246Y-56299500D01*
X81843754Y-56299500D01*
X81786128Y-56285296D01*
X81742459Y-56262376D01*
X81700224Y-56240209D01*
X81535056Y-56199500D01*
X81364944Y-56199500D01*
X81199775Y-56240209D01*
X81145475Y-56268709D01*
X81113871Y-56285296D01*
X81056246Y-56299500D01*
X68220940Y-56299500D01*
X68180019Y-56310464D01*
X68180019Y-56310465D01*
X68147181Y-56319264D01*
X68068214Y-56340423D01*
X68068209Y-56340426D01*
X67931290Y-56419475D01*
X67931282Y-56419481D01*
X67269481Y-57081282D01*
X67269475Y-57081290D01*
X67233088Y-57144316D01*
X67233088Y-57144318D01*
X67190423Y-57218214D01*
X67181821Y-57250318D01*
X67149499Y-57370943D01*
X67149499Y-57370945D01*
X67149499Y-57539046D01*
X67149500Y-57539059D01*
X67149500Y-69249902D01*
X67129815Y-69316941D01*
X67113181Y-69337583D01*
X66387584Y-70063181D01*
X66326261Y-70096666D01*
X66299903Y-70099500D01*
X65993754Y-70099500D01*
X65936128Y-70085296D01*
X65874278Y-70052834D01*
X65850224Y-70040209D01*
X65685056Y-69999500D01*
X65514944Y-69999500D01*
X65349773Y-70040210D01*
X65199150Y-70119263D01*
X65071816Y-70232072D01*
X64975182Y-70372068D01*
X64914860Y-70531125D01*
X64914859Y-70531130D01*
X64894355Y-70700000D01*
X64914859Y-70868869D01*
X64914860Y-70868874D01*
X64975182Y-71027931D01*
X65037475Y-71118177D01*
X65071817Y-71167929D01*
X65153406Y-71240210D01*
X65199150Y-71280736D01*
X65349773Y-71359789D01*
X65349775Y-71359790D01*
X65514944Y-71400500D01*
X65685056Y-71400500D01*
X65850225Y-71359790D01*
X65936128Y-71314703D01*
X65993754Y-71300500D01*
X66513331Y-71300500D01*
X66513347Y-71300501D01*
X66520943Y-71300501D01*
X66679054Y-71300501D01*
X66679057Y-71300501D01*
X66831785Y-71259577D01*
X66895358Y-71222873D01*
X66968716Y-71180520D01*
X67080520Y-71068716D01*
X67080520Y-71068714D01*
X67090724Y-71058511D01*
X67090727Y-71058506D01*
X67437820Y-70711414D01*
X67499142Y-70677930D01*
X67568834Y-70682914D01*
X67624767Y-70724786D01*
X67649184Y-70790250D01*
X67649500Y-70799096D01*
X67649500Y-71139151D01*
X67629815Y-71206190D01*
X67583127Y-71248947D01*
X67449149Y-71319265D01*
X67321816Y-71432072D01*
X67225182Y-71572068D01*
X67164860Y-71731125D01*
X67164859Y-71731130D01*
X67144355Y-71900000D01*
X67164859Y-72068869D01*
X67164860Y-72068874D01*
X67225182Y-72227931D01*
X67321818Y-72367930D01*
X67394911Y-72432685D01*
X67432038Y-72491874D01*
X67431270Y-72561739D01*
X67392853Y-72620099D01*
X67328982Y-72648424D01*
X67312684Y-72649500D01*
X65843754Y-72649500D01*
X65786128Y-72635296D01*
X65742459Y-72612376D01*
X65700224Y-72590209D01*
X65535056Y-72549500D01*
X65364944Y-72549500D01*
X65199773Y-72590210D01*
X65049150Y-72669263D01*
X64921816Y-72782072D01*
X64825182Y-72922068D01*
X64764860Y-73081125D01*
X64764859Y-73081130D01*
X64744355Y-73250000D01*
X52125500Y-73250000D01*
X52125500Y-61400000D01*
X54080138Y-61400000D01*
X55000272Y-61400000D01*
X54908386Y-61438060D01*
X54838060Y-61508386D01*
X54800000Y-61600272D01*
X54800000Y-61699728D01*
X54838060Y-61791614D01*
X54908386Y-61861940D01*
X55000272Y-61900000D01*
X54080138Y-61900000D01*
X54088430Y-61941690D01*
X54088430Y-61941692D01*
X54163807Y-62123671D01*
X54163814Y-62123684D01*
X54273248Y-62287462D01*
X54273251Y-62287466D01*
X54412533Y-62426748D01*
X54412537Y-62426751D01*
X54576315Y-62536185D01*
X54576328Y-62536192D01*
X54758306Y-62611569D01*
X54758318Y-62611572D01*
X54951504Y-62649999D01*
X54951508Y-62650000D01*
X55200000Y-62650000D01*
X55200000Y-61900000D01*
X55700000Y-61900000D01*
X55700000Y-62650000D01*
X55948492Y-62650000D01*
X55948495Y-62649999D01*
X56141681Y-62611572D01*
X56141693Y-62611569D01*
X56323671Y-62536192D01*
X56323684Y-62536185D01*
X56487462Y-62426751D01*
X56487466Y-62426748D01*
X56626748Y-62287466D01*
X56626751Y-62287462D01*
X56736185Y-62123684D01*
X56736192Y-62123671D01*
X56811569Y-61941692D01*
X56811569Y-61941690D01*
X56819862Y-61900000D01*
X55899728Y-61900000D01*
X55991614Y-61861940D01*
X56061940Y-61791614D01*
X56100000Y-61699728D01*
X56100000Y-61600272D01*
X56061940Y-61508386D01*
X55991614Y-61438060D01*
X55899728Y-61400000D01*
X56819862Y-61400000D01*
X56811569Y-61358309D01*
X56811569Y-61358307D01*
X56736192Y-61176328D01*
X56736185Y-61176315D01*
X56626751Y-61012537D01*
X56626748Y-61012533D01*
X56487466Y-60873251D01*
X56487462Y-60873248D01*
X56323684Y-60763814D01*
X56323671Y-60763807D01*
X56141693Y-60688430D01*
X56141681Y-60688427D01*
X55948495Y-60650000D01*
X55700000Y-60650000D01*
X55700000Y-61400000D01*
X55200000Y-61400000D01*
X55200000Y-60650000D01*
X54951504Y-60650000D01*
X54758318Y-60688427D01*
X54758306Y-60688430D01*
X54576328Y-60763807D01*
X54576315Y-60763814D01*
X54412537Y-60873248D01*
X54412533Y-60873251D01*
X54273251Y-61012533D01*
X54273248Y-61012537D01*
X54163814Y-61176315D01*
X54163807Y-61176328D01*
X54088430Y-61358307D01*
X54088430Y-61358309D01*
X54080138Y-61400000D01*
X52125500Y-61400000D01*
X52125500Y-51624500D01*
X52145185Y-51557461D01*
X52197989Y-51511706D01*
X52249500Y-51500500D01*
X54588621Y-51500500D01*
X54655660Y-51520185D01*
G37*
%TD.AperFunction*%
%TA.AperFunction,Conductor*%
G36*
X184084075Y-70117007D02*
G01*
X184050000Y-70244174D01*
X184050000Y-70375826D01*
X184084075Y-70502993D01*
X184116988Y-70560000D01*
X182433012Y-70560000D01*
X182465925Y-70502993D01*
X182500000Y-70375826D01*
X182500000Y-70244174D01*
X182465925Y-70117007D01*
X182433012Y-70060000D01*
X184116988Y-70060000D01*
X184084075Y-70117007D01*
G37*
%TD.AperFunction*%
%TA.AperFunction,Conductor*%
G36*
X186634075Y-70107007D02*
G01*
X186600000Y-70234174D01*
X186600000Y-70365826D01*
X186634075Y-70492993D01*
X186666988Y-70550000D01*
X185921120Y-70550000D01*
X185907996Y-70557166D01*
X185881638Y-70560000D01*
X184983012Y-70560000D01*
X185015925Y-70502993D01*
X185050000Y-70375826D01*
X185050000Y-70244174D01*
X185015925Y-70117007D01*
X184983012Y-70060000D01*
X185728880Y-70060000D01*
X185742004Y-70052834D01*
X185768362Y-70050000D01*
X186666988Y-70050000D01*
X186634075Y-70107007D01*
G37*
%TD.AperFunction*%
%TA.AperFunction,Conductor*%
G36*
X189184075Y-70107007D02*
G01*
X189150000Y-70234174D01*
X189150000Y-70365826D01*
X189184075Y-70492993D01*
X189216988Y-70550000D01*
X187533012Y-70550000D01*
X187565925Y-70492993D01*
X187600000Y-70365826D01*
X187600000Y-70234174D01*
X187565925Y-70107007D01*
X187533012Y-70050000D01*
X189216988Y-70050000D01*
X189184075Y-70107007D01*
G37*
%TD.AperFunction*%
%TD*%
M02*
