M48
; DRILL file {KiCad 8.0.3-8.0.3-0~ubuntu22.04.1} date 2024-12-02T08:44:35+0100
; FORMAT={-:-/ absolute / inch / decimal}
; #@! TF.CreationDate,2024-12-02T08:44:35+01:00
; #@! TF.GenerationSoftware,Kicad,Pcbnew,8.0.3-8.0.3-0~ubuntu22.04.1
; #@! TF.FileFunction,Plated,1,2,PTH
FMAT,2
INCH
; #@! TA.AperFunction,Plated,PTH,ViaDrill
T1C0.0079
; #@! TA.AperFunction,Plated,PTH,ViaDrill
T2C0.0118
; #@! TA.AperFunction,Plated,PTH,ComponentDrill
T3C0.0157
; #@! TA.AperFunction,Plated,PTH,ComponentDrill
T4C0.0197
; #@! TA.AperFunction,Plated,PTH,ComponentDrill
T5C0.0394
; #@! TA.AperFunction,Plated,PTH,ComponentDrill
T6C0.0433
%
G90
G05
T1
X2.4469Y-2.2283
X2.4665Y-2.372
X2.5059Y-2.2835
X2.5079Y-2.2283
X2.5768Y-2.8839
X2.5807Y-2.9843
X2.5807Y-3.1831
X2.5827Y-2.7835
X2.5846Y-3.2835
X2.5866Y-3.3839
X2.6713Y-2.8307
X2.7421Y-3.2126
X2.9882Y-2.3386
X2.9921Y-2.6024
X3.0138Y-2.3189
X3.0217Y-2.5669
X3.0335Y-2.2992
X3.0413Y-2.5472
X3.1043Y-2.1929
X3.1358Y-2.3701
X3.1358Y-2.6201
X3.2047Y-2.4882
X3.2067Y-2.2402
X3.2205Y-2.5079
X3.2244Y-2.2598
X3.2736Y-2.4291
X3.7697Y-2.3386
X3.7815Y-2.6063
X3.7992Y-2.3189
X3.8031Y-2.5669
X3.8189Y-2.2992
X3.8248Y-2.5472
X3.8858Y-2.1909
X3.8976Y-2.6201
X3.9449Y-2.3701
X3.9862Y-2.4882
X3.9941Y-2.2598
X4.0039Y-2.5079
X4.0157Y-2.2402
X4.0531Y-2.4291
X4.3878Y-2.4291
X4.563Y-2.6201
X4.5669Y-2.3386
X4.5945Y-2.3189
X4.5945Y-2.5669
X4.6122Y-2.2992
X4.6142Y-2.5472
X4.6476Y-2.378
X4.7067Y-2.3681
X4.7067Y-2.622
X4.748Y-2.3799
X4.7776Y-2.4882
X4.7835Y-2.2598
X4.7913Y-2.5079
X4.8051Y-2.2402
X4.8445Y-2.4291
X5.3957Y-2.3189
X5.4016Y-2.5669
X5.4134Y-2.2992
X5.4173Y-2.5472
X5.5807Y-2.2598
X5.5886Y-2.4882
X5.5984Y-2.2402
X5.606Y-2.5079
X5.6457Y-2.4291
X5.9705Y-2.4291
X6.189Y-2.3189
X6.189Y-2.5669
X6.2067Y-2.2992
X6.2067Y-2.5472
X6.369Y-2.2402
X6.372Y-2.5079
X6.3898Y-2.4882
X6.3937Y-2.248
X6.435Y-2.4291
X7.0276Y-2.2638
X7.0315Y-2.1969
X7.124Y-2.2736
T2
X2.1083Y-3.6673
X2.1358Y-2.561
X2.3819Y-2.5669
X2.6673Y-3.6654
X2.7008Y-2.0866
X2.7953Y-2.3858
X2.8268Y-2.7283
X2.8524Y-2.3681
X2.8878Y-3.4862
X2.8898Y-3.1713
X3.1988Y-2.7283
X3.3642Y-2.7264
X3.4055Y-3.1693
X3.4311Y-3.5276
X3.4409Y-2.4291
X3.4783Y-2.185
X3.5866Y-2.3642
X3.624Y-2.8051
X3.6654Y-3.4882
X3.8287Y-3.1496
X3.9232Y-3.1496
X4.1496Y-2.687
X4.2067Y-3.1437
X4.2185Y-2.4291
X4.2205Y-3.4291
X4.2795Y-2.1909
X4.3661Y-2.8307
X4.376Y-2.3819
X4.3898Y-3.1496
X4.3976Y-3.4744
X4.6516Y-2.187
X4.9528Y-3.126
X4.9902Y-2.872
X5.0118Y-2.4291
X5.0354Y-3.4626
X5.126Y-2.185
X5.1732Y-2.372
X5.2008Y-2.4291
X5.2028Y-2.874
X5.2106Y-3.1555
X5.2205Y-3.4567
X5.3465Y-2.372
X5.3465Y-2.6398
X5.4429Y-2.187
X5.498Y-2.3799
X5.498Y-2.6299
X5.7717Y-3.1476
X5.8091Y-3.4803
X5.8307Y-2.8602
X5.9449Y-2.3701
X5.9724Y-3.1516
X5.9724Y-3.4724
X5.9862Y-2.8839
X6.1378Y-2.372
X6.1378Y-2.6358
X6.2382Y-2.187
X6.248Y-2.4508
X6.3583Y-2.3701
X6.5827Y-2.4291
X6.6122Y-3.4705
X6.622Y-3.1535
X6.6437Y-2.9134
X6.7224Y-2.0669
X6.7224Y-2.2559
X6.7283Y-2.5728
X6.9193Y-2.5768
X7.3622Y-2.5787
T3
X2.3445Y-2.1555
X2.3445Y-2.187
X2.3445Y-2.2185
X2.3445Y-2.2815
X2.3445Y-2.313
X2.3445Y-2.3445
X2.372Y-2.1299
X2.372Y-2.2028
X2.372Y-2.2343
X2.372Y-2.2657
X2.372Y-2.2972
X2.372Y-2.3701
X7.1969Y-2.1299
X7.1969Y-2.2028
X7.1969Y-2.2343
X7.1969Y-2.2657
X7.1969Y-2.2972
X7.1969Y-2.3701
X7.2244Y-2.1555
X7.2244Y-2.187
X7.2244Y-2.2185
X7.2244Y-2.2815
X7.2244Y-2.313
X7.2244Y-2.3445
T5
X2.9085Y-3.6555
X3.0085Y-3.6555
X3.124Y-3.2667
X3.124Y-3.3667
X3.7037Y-3.6535
X3.8037Y-3.6535
X3.9134Y-3.2687
X3.9134Y-3.3687
X4.497Y-3.6555
X4.597Y-3.6555
X4.7047Y-3.2697
X4.7047Y-3.3697
X5.2805Y-3.6555
X5.3805Y-3.6555
X5.4902Y-3.2707
X5.4902Y-3.3707
X6.0758Y-3.6516
X6.1758Y-3.6516
X6.2874Y-3.2726
X6.2874Y-3.3726
X6.7638Y-2.7691
X6.7638Y-2.8691
X6.7638Y-2.9691
X6.7638Y-3.0691
X6.7638Y-3.1691
X6.7638Y-3.2691
X6.7638Y-3.3691
X6.7638Y-3.4691
X6.7638Y-3.5691
X6.7638Y-3.6691
X6.8642Y-2.7691
X6.8642Y-2.8691
X6.8642Y-2.9691
X6.8642Y-3.0691
X6.8642Y-3.1691
X6.8642Y-3.2691
X6.8642Y-3.3691
X6.8642Y-3.4691
X6.8642Y-3.5691
X6.8642Y-3.6691
X6.9646Y-2.7687
X6.9646Y-2.8687
X6.9646Y-2.9687
X6.9646Y-3.0687
X6.9646Y-3.1687
X6.9646Y-3.2687
X6.9646Y-3.3687
X6.9646Y-3.4687
X6.9646Y-3.5687
X6.9646Y-3.6687
X7.065Y-2.7687
X7.065Y-2.8687
X7.065Y-2.9687
X7.065Y-3.0687
X7.065Y-3.1687
X7.065Y-3.2687
X7.065Y-3.3687
X7.065Y-3.4687
X7.065Y-3.5687
X7.065Y-3.6687
X7.1654Y-2.7681
X7.1654Y-2.8681
X7.1654Y-2.9681
X7.1654Y-3.0681
X7.1654Y-3.1681
X7.1654Y-3.2681
X7.1654Y-3.3681
X7.1654Y-3.4681
X7.1654Y-3.5681
X7.1654Y-3.6681
X7.2657Y-2.7681
X7.2657Y-2.8681
X7.2657Y-2.9681
X7.2657Y-3.0681
X7.2657Y-3.1681
X7.2657Y-3.2681
X7.2657Y-3.3681
X7.2657Y-3.4681
X7.2657Y-3.5681
X7.2657Y-3.6681
X7.3661Y-2.7677
X7.3661Y-2.8677
X7.3661Y-2.9677
X7.3661Y-3.0677
X7.3661Y-3.1677
X7.3661Y-3.2677
X7.3661Y-3.3677
X7.3661Y-3.4677
X7.3661Y-3.5677
X7.3661Y-3.6677
X7.4665Y-2.7677
X7.4665Y-2.8677
X7.4665Y-2.9677
X7.4665Y-3.0677
X7.4665Y-3.1677
X7.4665Y-3.2677
X7.4665Y-3.3677
X7.4665Y-3.4677
X7.4665Y-3.5677
X7.4665Y-3.6677
T6
X3.2217Y-3.6031
X3.3217Y-3.6031
X4.0169Y-3.6012
X4.1169Y-3.6012
X4.8051Y-3.6043
X4.9051Y-3.6043
X5.5965Y-3.6024
X5.6965Y-3.6024
X6.3898Y-3.6024
X6.4898Y-3.6024
T4
G00X2.1988Y-2.0728
M15
G01X2.1673Y-2.0728
M16
G05
G00X2.1988Y-2.4272
M15
G01X2.1673Y-2.4272
M16
G05
G00X2.4154Y-2.0728
M15
G01X2.3917Y-2.0728
M16
G05
G00X2.4154Y-2.4272
M15
G01X2.3917Y-2.4272
M16
G05
G00X7.1535Y-2.0728
M15
G01X7.1772Y-2.0728
M16
G05
G00X7.1535Y-2.4272
M15
G01X7.1772Y-2.4272
M16
G05
G00X7.3701Y-2.0728
M15
G01X7.4016Y-2.0728
M16
G05
G00X7.3701Y-2.4272
M15
G01X7.4016Y-2.4272
M16
G05
M30
