%TF.GenerationSoftware,KiCad,Pcbnew,8.0.3-8.0.3-0~ubuntu22.04.1*%
%TF.CreationDate,2024-12-02T08:44:27+01:00*%
%TF.ProjectId,BreakoutboardRT9532,42726561-6b6f-4757-9462-6f6172645254,rev?*%
%TF.SameCoordinates,Original*%
%TF.FileFunction,Soldermask,Bot*%
%TF.FilePolarity,Negative*%
%FSLAX46Y46*%
G04 Gerber Fmt 4.6, Leading zero omitted, Abs format (unit mm)*
G04 Created by KiCad (PCBNEW 8.0.3-8.0.3-0~ubuntu22.04.1) date 2024-12-02 08:44:27*
%MOMM*%
%LPD*%
G01*
G04 APERTURE LIST*
%ADD10R,1.650000X1.650000*%
%ADD11C,1.650000*%
%ADD12R,1.700000X1.700000*%
%ADD13O,1.700000X1.700000*%
%ADD14O,2.004000X1.204000*%
%ADD15O,1.804000X1.204000*%
%ADD16C,0.854000*%
%ADD17C,0.650000*%
G04 APERTURE END LIST*
D10*
%TO.C,J17*%
X164840000Y-91500000D03*
D11*
X162300000Y-91500000D03*
%TD*%
D10*
%TO.C,J16*%
X144690000Y-91500000D03*
D11*
X142150000Y-91500000D03*
%TD*%
D10*
%TO.C,J15*%
X124590000Y-91550000D03*
D11*
X122050000Y-91550000D03*
%TD*%
D10*
%TO.C,J14*%
X104570000Y-91470000D03*
D11*
X102030000Y-91470000D03*
%TD*%
D10*
%TO.C,J13*%
X84370000Y-91520000D03*
D11*
X81830000Y-91520000D03*
%TD*%
D12*
%TO.C,J12*%
X154325000Y-92750000D03*
D13*
X156865000Y-92750000D03*
%TD*%
D12*
%TO.C,J11*%
X159700000Y-83125000D03*
D13*
X159700000Y-85665000D03*
%TD*%
D12*
%TO.C,REF\u002A\u002A*%
X189650000Y-70300000D03*
D13*
X189650000Y-72840000D03*
X189650000Y-75380000D03*
X189650000Y-77920000D03*
X189650000Y-80460000D03*
X189650000Y-83000000D03*
X189650000Y-85540000D03*
X189650000Y-88080000D03*
X189650000Y-90620000D03*
X189650000Y-93160000D03*
%TD*%
D12*
%TO.C,REF\u002A\u002A*%
X187100000Y-70300000D03*
D13*
X187100000Y-72840000D03*
X187100000Y-75380000D03*
X187100000Y-77920000D03*
X187100000Y-80460000D03*
X187100000Y-83000000D03*
X187100000Y-85540000D03*
X187100000Y-88080000D03*
X187100000Y-90620000D03*
X187100000Y-93160000D03*
%TD*%
D12*
%TO.C,REF\u002A\u002A*%
X184550000Y-70310000D03*
D13*
X184550000Y-72850000D03*
X184550000Y-75390000D03*
X184550000Y-77930000D03*
X184550000Y-80470000D03*
X184550000Y-83010000D03*
X184550000Y-85550000D03*
X184550000Y-88090000D03*
X184550000Y-90630000D03*
X184550000Y-93170000D03*
%TD*%
D12*
%TO.C,REF\u002A\u002A*%
X182000000Y-70310000D03*
D13*
X182000000Y-72850000D03*
X182000000Y-75390000D03*
X182000000Y-77930000D03*
X182000000Y-80470000D03*
X182000000Y-83010000D03*
X182000000Y-85550000D03*
X182000000Y-88090000D03*
X182000000Y-90630000D03*
X182000000Y-93170000D03*
%TD*%
D12*
%TO.C,REF\u002A\u002A*%
X179450000Y-70325000D03*
D13*
X179450000Y-72865000D03*
X179450000Y-75405000D03*
X179450000Y-77945000D03*
X179450000Y-80485000D03*
X179450000Y-83025000D03*
X179450000Y-85565000D03*
X179450000Y-88105000D03*
X179450000Y-90645000D03*
X179450000Y-93185000D03*
%TD*%
D12*
%TO.C,REF\u002A\u002A*%
X176900000Y-70325000D03*
D13*
X176900000Y-72865000D03*
X176900000Y-75405000D03*
X176900000Y-77945000D03*
X176900000Y-80485000D03*
X176900000Y-83025000D03*
X176900000Y-85565000D03*
X176900000Y-88105000D03*
X176900000Y-90645000D03*
X176900000Y-93185000D03*
%TD*%
D12*
%TO.C,REF\u002A\u002A*%
X174350000Y-70335000D03*
D13*
X174350000Y-72875000D03*
X174350000Y-75415000D03*
X174350000Y-77955000D03*
X174350000Y-80495000D03*
X174350000Y-83035000D03*
X174350000Y-85575000D03*
X174350000Y-88115000D03*
X174350000Y-90655000D03*
X174350000Y-93195000D03*
%TD*%
D12*
%TO.C,REF\u002A\u002A*%
X171800000Y-70335000D03*
D13*
X171800000Y-72875000D03*
X171800000Y-75415000D03*
X171800000Y-77955000D03*
X171800000Y-80495000D03*
X171800000Y-83035000D03*
X171800000Y-85575000D03*
X171800000Y-88115000D03*
X171800000Y-90655000D03*
X171800000Y-93195000D03*
%TD*%
%TO.C,J10*%
X136665000Y-92850000D03*
D12*
X134125000Y-92850000D03*
%TD*%
%TO.C,J9*%
X114225000Y-92850000D03*
D13*
X116765000Y-92850000D03*
%TD*%
D12*
%TO.C,J8*%
X94075000Y-92800000D03*
D13*
X96615000Y-92800000D03*
%TD*%
D12*
%TO.C,J7*%
X73875000Y-92850000D03*
D13*
X76415000Y-92850000D03*
%TD*%
D12*
%TO.C,J6*%
X139450000Y-83075000D03*
D13*
X139450000Y-85615000D03*
%TD*%
D12*
%TO.C,J5*%
X119500000Y-83050000D03*
D13*
X119500000Y-85590000D03*
%TD*%
D12*
%TO.C,J4*%
X99400000Y-83025000D03*
D13*
X99400000Y-85565000D03*
%TD*%
D12*
%TO.C,J3*%
X79350000Y-82975000D03*
D13*
X79350000Y-85515000D03*
%TD*%
D14*
%TO.C,J2*%
X187600000Y-61650000D03*
X187600000Y-52650000D03*
D15*
X182000000Y-61650000D03*
X182000000Y-52650000D03*
D16*
X182800000Y-60200000D03*
X182800000Y-54100000D03*
X183500000Y-59550000D03*
X183500000Y-54750000D03*
X183500000Y-58750000D03*
X183500000Y-55550000D03*
X183500000Y-57950000D03*
X183500000Y-56350000D03*
X182800000Y-58350000D03*
X182800000Y-55950000D03*
X182800000Y-57550000D03*
X182800000Y-56750000D03*
D17*
X183500000Y-60875000D03*
X183500000Y-53425000D03*
%TD*%
D14*
%TO.C,J1*%
X55450000Y-52650000D03*
X55450000Y-61650000D03*
D15*
X61050000Y-52650000D03*
X61050000Y-61650000D03*
D16*
X60250000Y-54100000D03*
X60250000Y-60200000D03*
X59550000Y-54750000D03*
X59550000Y-59550000D03*
X59550000Y-55550000D03*
X59550000Y-58750000D03*
X59550000Y-56350000D03*
X59550000Y-57950000D03*
X60250000Y-55950000D03*
X60250000Y-58350000D03*
X60250000Y-56750000D03*
X60250000Y-57550000D03*
D17*
X59550000Y-53425000D03*
X59550000Y-60875000D03*
%TD*%
M02*
