%TF.GenerationSoftware,KiCad,Pcbnew,8.0.3-8.0.3-0~ubuntu22.04.1*%
%TF.CreationDate,2024-12-02T08:44:27+01:00*%
%TF.ProjectId,BreakoutboardRT9532,42726561-6b6f-4757-9462-6f6172645254,rev?*%
%TF.SameCoordinates,Original*%
%TF.FileFunction,Paste,Top*%
%TF.FilePolarity,Positive*%
%FSLAX46Y46*%
G04 Gerber Fmt 4.6, Leading zero omitted, Abs format (unit mm)*
G04 Created by KiCad (PCBNEW 8.0.3-8.0.3-0~ubuntu22.04.1) date 2024-12-02 08:44:27*
%MOMM*%
%LPD*%
G01*
G04 APERTURE LIST*
G04 Aperture macros list*
%AMRoundRect*
0 Rectangle with rounded corners*
0 $1 Rounding radius*
0 $2 $3 $4 $5 $6 $7 $8 $9 X,Y pos of 4 corners*
0 Add a 4 corners polygon primitive as box body*
4,1,4,$2,$3,$4,$5,$6,$7,$8,$9,$2,$3,0*
0 Add four circle primitives for the rounded corners*
1,1,$1+$1,$2,$3*
1,1,$1+$1,$4,$5*
1,1,$1+$1,$6,$7*
1,1,$1+$1,$8,$9*
0 Add four rect primitives between the rounded corners*
20,1,$1+$1,$2,$3,$4,$5,0*
20,1,$1+$1,$4,$5,$6,$7,0*
20,1,$1+$1,$6,$7,$8,$9,0*
20,1,$1+$1,$8,$9,$2,$3,0*%
G04 Aperture macros list end*
%ADD10RoundRect,0.225000X-0.225000X-0.250000X0.225000X-0.250000X0.225000X0.250000X-0.225000X0.250000X0*%
%ADD11RoundRect,0.225000X0.225000X0.250000X-0.225000X0.250000X-0.225000X-0.250000X0.225000X-0.250000X0*%
%ADD12RoundRect,0.200000X-0.275000X0.200000X-0.275000X-0.200000X0.275000X-0.200000X0.275000X0.200000X0*%
%ADD13R,0.300000X0.700000*%
%ADD14R,1.700000X1.000000*%
%ADD15RoundRect,0.218750X0.218750X0.256250X-0.218750X0.256250X-0.218750X-0.256250X0.218750X-0.256250X0*%
%ADD16RoundRect,0.237500X-0.300000X-0.237500X0.300000X-0.237500X0.300000X0.237500X-0.300000X0.237500X0*%
%ADD17RoundRect,0.150000X0.150000X-0.512500X0.150000X0.512500X-0.150000X0.512500X-0.150000X-0.512500X0*%
%ADD18RoundRect,0.200000X0.200000X0.275000X-0.200000X0.275000X-0.200000X-0.275000X0.200000X-0.275000X0*%
%ADD19R,0.240000X0.900000*%
%ADD20R,0.900000X0.240000*%
%ADD21R,0.900000X1.400000*%
%ADD22C,0.226000*%
%ADD23RoundRect,0.237500X0.300000X0.237500X-0.300000X0.237500X-0.300000X-0.237500X0.300000X-0.237500X0*%
%ADD24RoundRect,0.200000X0.275000X-0.200000X0.275000X0.200000X-0.275000X0.200000X-0.275000X-0.200000X0*%
%ADD25R,0.600000X1.150000*%
%ADD26RoundRect,0.218750X-0.218750X-0.256250X0.218750X-0.256250X0.218750X0.256250X-0.218750X0.256250X0*%
%ADD27R,2.160000X1.520000*%
%ADD28RoundRect,0.200000X-0.200000X-0.275000X0.200000X-0.275000X0.200000X0.275000X-0.200000X0.275000X0*%
%ADD29R,0.700000X0.350000*%
%ADD30R,0.300000X0.750000*%
%ADD31R,2.550000X0.850000*%
%ADD32RoundRect,0.250000X1.000000X0.650000X-1.000000X0.650000X-1.000000X-0.650000X1.000000X-0.650000X0*%
%ADD33RoundRect,0.250000X-0.650000X1.000000X-0.650000X-1.000000X0.650000X-1.000000X0.650000X1.000000X0*%
G04 APERTURE END LIST*
D10*
%TO.C,R56*%
X93212500Y-77050000D03*
X94762500Y-77050000D03*
%TD*%
D11*
%TO.C,R55*%
X94762500Y-75300000D03*
X93212500Y-75300000D03*
%TD*%
D12*
%TO.C,R54*%
X101350000Y-75225000D03*
X101350000Y-76875000D03*
%TD*%
D11*
%TO.C,R16*%
X99825000Y-69650000D03*
X98275000Y-69650000D03*
%TD*%
D13*
%TO.C,IC14*%
X100800000Y-71400000D03*
X100300000Y-71400000D03*
X99800000Y-71400000D03*
X99300000Y-71400000D03*
X99300000Y-73500000D03*
X99800000Y-73500000D03*
X100300000Y-73500000D03*
X100800000Y-73500000D03*
D14*
X100050000Y-72450000D03*
%TD*%
D15*
%TO.C,D8*%
X97825000Y-77050000D03*
X96250000Y-77050000D03*
%TD*%
%TO.C,D5*%
X97825000Y-75300000D03*
X96250000Y-75300000D03*
%TD*%
D16*
%TO.C,C6*%
X104175000Y-73350000D03*
X102450000Y-73350000D03*
%TD*%
%TO.C,C4*%
X102450000Y-71550000D03*
X104175000Y-71550000D03*
%TD*%
D17*
%TO.C,U2*%
X159150000Y-75087500D03*
X160100000Y-75087500D03*
X161050000Y-75087500D03*
X161050000Y-72812500D03*
X159150000Y-72812500D03*
%TD*%
D11*
%TO.C,R53*%
X164975000Y-66500000D03*
X163425000Y-66500000D03*
%TD*%
D10*
%TO.C,R52*%
X163425000Y-64900000D03*
X164975000Y-64900000D03*
%TD*%
D11*
%TO.C,R51*%
X165025000Y-60150000D03*
X163475000Y-60150000D03*
%TD*%
D10*
%TO.C,R50*%
X163475000Y-58600000D03*
X165025000Y-58600000D03*
%TD*%
D11*
%TO.C,R49*%
X156075000Y-63550000D03*
X154525000Y-63550000D03*
%TD*%
D10*
%TO.C,R48*%
X154525000Y-61900000D03*
X156075000Y-61900000D03*
%TD*%
D11*
%TO.C,R47*%
X156125000Y-57150000D03*
X154575000Y-57150000D03*
%TD*%
D10*
%TO.C,R46*%
X154575000Y-55600000D03*
X156125000Y-55600000D03*
%TD*%
D18*
%TO.C,R45*%
X155725000Y-77150000D03*
X154075000Y-77150000D03*
%TD*%
D19*
%TO.C,IC13*%
X159550000Y-62650000D03*
D20*
X158500000Y-63200000D03*
X158500000Y-63700000D03*
X158500000Y-64200000D03*
X158500000Y-64700000D03*
X158500000Y-65200000D03*
D19*
X159550000Y-65750000D03*
X160050000Y-65750000D03*
D20*
X161100000Y-65200000D03*
X161100000Y-64700000D03*
X161100000Y-64200000D03*
X161100000Y-63700000D03*
X161100000Y-63200000D03*
D19*
X160050000Y-62650000D03*
D21*
X159800000Y-64200000D03*
%TD*%
D19*
%TO.C,IC12*%
X159550000Y-56350000D03*
D20*
X158500000Y-56900000D03*
X158500000Y-57400000D03*
X158500000Y-57900000D03*
X158500000Y-58400000D03*
X158500000Y-58900000D03*
D19*
X159550000Y-59450000D03*
X160050000Y-59450000D03*
D20*
X161100000Y-58900000D03*
X161100000Y-58400000D03*
X161100000Y-57900000D03*
X161100000Y-57400000D03*
X161100000Y-56900000D03*
D19*
X160050000Y-56350000D03*
D21*
X159800000Y-57900000D03*
%TD*%
D15*
%TO.C,D7*%
X158787500Y-77150000D03*
X157212500Y-77150000D03*
%TD*%
D16*
%TO.C,C19*%
X163487500Y-62650000D03*
X165212500Y-62650000D03*
%TD*%
%TO.C,C18*%
X163537500Y-55600000D03*
X165262500Y-55600000D03*
%TD*%
%TO.C,C17*%
X162787500Y-72650000D03*
X164512500Y-72650000D03*
%TD*%
D11*
%TO.C,R44*%
X144875000Y-66450000D03*
X143325000Y-66450000D03*
%TD*%
D10*
%TO.C,R43*%
X143325000Y-64900000D03*
X144875000Y-64900000D03*
%TD*%
D11*
%TO.C,R42*%
X144825000Y-60200000D03*
X143275000Y-60200000D03*
%TD*%
D10*
%TO.C,R41*%
X143275000Y-58650000D03*
X144825000Y-58650000D03*
%TD*%
D11*
%TO.C,R40*%
X135975000Y-63450000D03*
X134425000Y-63450000D03*
%TD*%
D10*
%TO.C,R39*%
X134425000Y-61900000D03*
X135975000Y-61900000D03*
%TD*%
D11*
%TO.C,R38*%
X135975000Y-57200000D03*
X134425000Y-57200000D03*
%TD*%
D10*
%TO.C,R37*%
X134425000Y-55600000D03*
X135975000Y-55600000D03*
%TD*%
D11*
%TO.C,R36*%
X141725000Y-71850000D03*
X140175000Y-71850000D03*
%TD*%
%TO.C,R35*%
X144375000Y-75400000D03*
X142825000Y-75400000D03*
%TD*%
D10*
%TO.C,R34*%
X139825000Y-77400000D03*
X141375000Y-77400000D03*
%TD*%
D19*
%TO.C,IC11*%
X139400000Y-62650000D03*
D20*
X138350000Y-63200000D03*
X138350000Y-63700000D03*
X138350000Y-64200000D03*
X138350000Y-64700000D03*
X138350000Y-65200000D03*
D19*
X139400000Y-65750000D03*
X139900000Y-65750000D03*
D20*
X140950000Y-65200000D03*
X140950000Y-64700000D03*
X140950000Y-64200000D03*
X140950000Y-63700000D03*
X140950000Y-63200000D03*
D19*
X139900000Y-62650000D03*
D21*
X139650000Y-64200000D03*
%TD*%
D19*
%TO.C,IC10*%
X139400000Y-56350000D03*
D20*
X138350000Y-56900000D03*
X138350000Y-57400000D03*
X138350000Y-57900000D03*
X138350000Y-58400000D03*
X138350000Y-58900000D03*
D19*
X139400000Y-59450000D03*
X139900000Y-59450000D03*
D20*
X140950000Y-58900000D03*
X140950000Y-58400000D03*
X140950000Y-57900000D03*
X140950000Y-57400000D03*
X140950000Y-56900000D03*
D19*
X139900000Y-56350000D03*
D21*
X139650000Y-57900000D03*
%TD*%
D22*
%TO.C,IC9*%
X139050000Y-75400000D03*
X139050000Y-75000000D03*
X139450000Y-75400000D03*
X139450000Y-75000000D03*
X139850000Y-75400000D03*
X139850000Y-75000000D03*
%TD*%
D16*
%TO.C,C16*%
X143387500Y-62650000D03*
X145112500Y-62650000D03*
%TD*%
%TO.C,C15*%
X143387500Y-55600000D03*
X145112500Y-55600000D03*
%TD*%
%TO.C,C14*%
X143387500Y-71850000D03*
X145112500Y-71850000D03*
%TD*%
%TO.C,C13*%
X136225000Y-77400000D03*
X137950000Y-77400000D03*
%TD*%
D23*
%TO.C,C12*%
X138275000Y-71850000D03*
X136550000Y-71850000D03*
%TD*%
D11*
%TO.C,R33*%
X124525000Y-66450000D03*
X122975000Y-66450000D03*
%TD*%
D10*
%TO.C,R32*%
X122975000Y-64850000D03*
X124525000Y-64850000D03*
%TD*%
D11*
%TO.C,R31*%
X124575000Y-60050000D03*
X123025000Y-60050000D03*
%TD*%
D10*
%TO.C,R30*%
X123025000Y-58450000D03*
X124575000Y-58450000D03*
%TD*%
D11*
%TO.C,R29*%
X115625000Y-63500000D03*
X114075000Y-63500000D03*
%TD*%
D10*
%TO.C,R28*%
X114075000Y-61900000D03*
X115625000Y-61900000D03*
%TD*%
D11*
%TO.C,R27*%
X115575000Y-57200000D03*
X114025000Y-57200000D03*
%TD*%
D10*
%TO.C,R26*%
X114025000Y-55600000D03*
X115575000Y-55600000D03*
%TD*%
D24*
%TO.C,R25*%
X115700000Y-72575000D03*
X115700000Y-70925000D03*
%TD*%
D19*
%TO.C,IC8*%
X119050000Y-62650000D03*
D20*
X118000000Y-63200000D03*
X118000000Y-63700000D03*
X118000000Y-64200000D03*
X118000000Y-64700000D03*
X118000000Y-65200000D03*
D19*
X119050000Y-65750000D03*
X119550000Y-65750000D03*
D20*
X120600000Y-65200000D03*
X120600000Y-64700000D03*
X120600000Y-64200000D03*
X120600000Y-63700000D03*
X120600000Y-63200000D03*
D19*
X119550000Y-62650000D03*
D21*
X119300000Y-64200000D03*
%TD*%
%TO.C,IC7*%
X119300000Y-57900000D03*
D19*
X119550000Y-56350000D03*
D20*
X120600000Y-56900000D03*
X120600000Y-57400000D03*
X120600000Y-57900000D03*
X120600000Y-58400000D03*
X120600000Y-58900000D03*
D19*
X119550000Y-59450000D03*
X119050000Y-59450000D03*
D20*
X118000000Y-58900000D03*
X118000000Y-58400000D03*
X118000000Y-57900000D03*
X118000000Y-57400000D03*
X118000000Y-56900000D03*
D19*
X119050000Y-56350000D03*
%TD*%
D25*
%TO.C,IC6*%
X119200000Y-74150000D03*
X120150000Y-74150000D03*
X121100000Y-74150000D03*
X121100000Y-71650000D03*
X119200000Y-71650000D03*
%TD*%
D15*
%TO.C,D6*%
X117237500Y-74250000D03*
X115662500Y-74250000D03*
%TD*%
D16*
%TO.C,C11*%
X123037500Y-62650000D03*
X124762500Y-62650000D03*
%TD*%
%TO.C,C10*%
X123087500Y-55600000D03*
X124812500Y-55600000D03*
%TD*%
%TO.C,C9*%
X122987500Y-71600000D03*
X124712500Y-71600000D03*
%TD*%
D26*
%TO.C,D4*%
X77737500Y-77950000D03*
X76162500Y-77950000D03*
%TD*%
%TO.C,D3*%
X77737500Y-76400000D03*
X76162500Y-76400000D03*
%TD*%
D27*
%TO.C,SW1*%
X55620000Y-70710000D03*
X55620000Y-73250000D03*
X55620000Y-75790000D03*
X55620000Y-78330000D03*
X55620000Y-80870000D03*
X55620000Y-83410000D03*
X55620000Y-85950000D03*
X55620000Y-88490000D03*
X63880000Y-88490000D03*
X63880000Y-85950000D03*
X63880000Y-83410000D03*
X63880000Y-80870000D03*
X63880000Y-78330000D03*
X63880000Y-75790000D03*
X63880000Y-73250000D03*
X63880000Y-70710000D03*
%TD*%
D11*
%TO.C,R24*%
X104425000Y-66450000D03*
X102875000Y-66450000D03*
%TD*%
D10*
%TO.C,R23*%
X102875000Y-64850000D03*
X104425000Y-64850000D03*
%TD*%
D11*
%TO.C,R22*%
X104475000Y-60150000D03*
X102925000Y-60150000D03*
%TD*%
D10*
%TO.C,R21*%
X102925000Y-58550000D03*
X104475000Y-58550000D03*
%TD*%
D11*
%TO.C,R20*%
X95625000Y-63450000D03*
X94075000Y-63450000D03*
%TD*%
D10*
%TO.C,R19*%
X94075000Y-61900000D03*
X95625000Y-61900000D03*
%TD*%
D11*
%TO.C,R18*%
X95525000Y-57250000D03*
X93975000Y-57250000D03*
%TD*%
D10*
%TO.C,R17*%
X93975000Y-55600000D03*
X95525000Y-55600000D03*
%TD*%
D19*
%TO.C,IC5*%
X99000000Y-62650000D03*
D20*
X97950000Y-63200000D03*
X97950000Y-63700000D03*
X97950000Y-64200000D03*
X97950000Y-64700000D03*
X97950000Y-65200000D03*
D19*
X99000000Y-65750000D03*
X99500000Y-65750000D03*
D20*
X100550000Y-65200000D03*
X100550000Y-64700000D03*
X100550000Y-64200000D03*
X100550000Y-63700000D03*
X100550000Y-63200000D03*
D19*
X99500000Y-62650000D03*
D21*
X99250000Y-64200000D03*
%TD*%
D19*
%TO.C,IC4*%
X99000000Y-56350000D03*
D20*
X97950000Y-56900000D03*
X97950000Y-57400000D03*
X97950000Y-57900000D03*
X97950000Y-58400000D03*
X97950000Y-58900000D03*
D19*
X99000000Y-59450000D03*
X99500000Y-59450000D03*
D20*
X100550000Y-58900000D03*
X100550000Y-58400000D03*
X100550000Y-57900000D03*
X100550000Y-57400000D03*
X100550000Y-56900000D03*
D19*
X99500000Y-56350000D03*
D21*
X99250000Y-57900000D03*
%TD*%
D16*
%TO.C,C8*%
X102937500Y-62650000D03*
X104662500Y-62650000D03*
%TD*%
%TO.C,C7*%
X102937500Y-55600000D03*
X104662500Y-55600000D03*
%TD*%
D18*
%TO.C,R1*%
X76375000Y-72250000D03*
X74725000Y-72250000D03*
%TD*%
D11*
%TO.C,R15*%
X83075000Y-66500000D03*
X84625000Y-66500000D03*
%TD*%
D10*
%TO.C,R14*%
X83075000Y-64900000D03*
X84625000Y-64900000D03*
%TD*%
D11*
%TO.C,R13*%
X84675000Y-60200000D03*
X83125000Y-60200000D03*
%TD*%
D10*
%TO.C,R12*%
X83125000Y-58550000D03*
X84675000Y-58550000D03*
%TD*%
D11*
%TO.C,R11*%
X75675000Y-63500000D03*
X74125000Y-63500000D03*
%TD*%
D10*
%TO.C,R10*%
X74125000Y-61900000D03*
X75675000Y-61900000D03*
%TD*%
D11*
%TO.C,R9*%
X75675000Y-57250000D03*
X74125000Y-57250000D03*
%TD*%
D10*
%TO.C,R8*%
X74125000Y-55600000D03*
X75675000Y-55600000D03*
%TD*%
D16*
%TO.C,C5*%
X84862500Y-62650000D03*
X83137500Y-62650000D03*
%TD*%
%TO.C,C3*%
X83137500Y-55600000D03*
X84862500Y-55600000D03*
%TD*%
D21*
%TO.C,IC2*%
X79400000Y-64200000D03*
D19*
X79650000Y-62650000D03*
D20*
X80700000Y-63200000D03*
X80700000Y-63700000D03*
X80700000Y-64200000D03*
X80700000Y-64700000D03*
X80700000Y-65200000D03*
D19*
X79650000Y-65750000D03*
X79150000Y-65750000D03*
D20*
X78100000Y-65200000D03*
X78100000Y-64700000D03*
X78100000Y-64200000D03*
X78100000Y-63700000D03*
X78100000Y-63200000D03*
D19*
X79150000Y-62650000D03*
%TD*%
%TO.C,IC3*%
X79150000Y-56350000D03*
D20*
X78100000Y-56900000D03*
X78100000Y-57400000D03*
X78100000Y-57900000D03*
X78100000Y-58400000D03*
X78100000Y-58900000D03*
D19*
X79150000Y-59450000D03*
X79650000Y-59450000D03*
D20*
X80700000Y-58900000D03*
X80700000Y-58400000D03*
X80700000Y-57900000D03*
X80700000Y-57400000D03*
X80700000Y-56900000D03*
D19*
X79650000Y-56350000D03*
D21*
X79400000Y-57900000D03*
%TD*%
D10*
%TO.C,R7*%
X79325000Y-76400000D03*
X80875000Y-76400000D03*
%TD*%
%TO.C,R6*%
X80875000Y-77950000D03*
X79325000Y-77950000D03*
%TD*%
D18*
%TO.C,R5*%
X177350000Y-55800000D03*
X175700000Y-55800000D03*
%TD*%
%TO.C,R4*%
X177325000Y-57500000D03*
X175675000Y-57500000D03*
%TD*%
D28*
%TO.C,R3*%
X64475000Y-58000000D03*
X66125000Y-58000000D03*
%TD*%
%TO.C,R2*%
X64475000Y-56400000D03*
X66125000Y-56400000D03*
%TD*%
D29*
%TO.C,J2*%
X181690000Y-59900000D03*
X181690000Y-59400000D03*
X181690000Y-58900000D03*
X181690000Y-58400000D03*
X181690000Y-57900000D03*
X181690000Y-57400000D03*
X181690000Y-56900000D03*
X181690000Y-56400000D03*
X181690000Y-55900000D03*
X181690000Y-55400000D03*
X181690000Y-54900000D03*
X181690000Y-54400000D03*
%TD*%
%TO.C,J1*%
X61360000Y-54400000D03*
X61360000Y-54900000D03*
X61360000Y-55400000D03*
X61360000Y-55900000D03*
X61360000Y-56400000D03*
X61360000Y-56900000D03*
X61360000Y-57400000D03*
X61360000Y-57900000D03*
X61360000Y-58400000D03*
X61360000Y-58900000D03*
X61360000Y-59400000D03*
X61360000Y-59900000D03*
%TD*%
D30*
%TO.C,IC1*%
X80150000Y-72150000D03*
X79650000Y-72150000D03*
X79150000Y-72150000D03*
X78650000Y-72150000D03*
X78150000Y-72150000D03*
X78150000Y-74150000D03*
X78650000Y-74150000D03*
X79150000Y-74150000D03*
X79650000Y-74150000D03*
X80150000Y-74150000D03*
D31*
X79150000Y-73150000D03*
%TD*%
D32*
%TO.C,D2*%
X178400000Y-60650000D03*
X174400000Y-60650000D03*
%TD*%
D33*
%TO.C,D1*%
X65100000Y-61300000D03*
X65100000Y-65300000D03*
%TD*%
D16*
%TO.C,C2*%
X82025000Y-74050000D03*
X83750000Y-74050000D03*
%TD*%
%TO.C,C1*%
X82037500Y-72250000D03*
X83762500Y-72250000D03*
%TD*%
M02*
