%TF.GenerationSoftware,KiCad,Pcbnew,8.0.8-8.0.8-0~ubuntu22.04.1*%
%TF.CreationDate,2025-02-05T10:07:57+01:00*%
%TF.ProjectId,MMBCloneProMax,4d4d4243-6c6f-46e6-9550-726f4d61782e,rev?*%
%TF.SameCoordinates,Original*%
%TF.FileFunction,Copper,L2,Bot*%
%TF.FilePolarity,Positive*%
%FSLAX46Y46*%
G04 Gerber Fmt 4.6, Leading zero omitted, Abs format (unit mm)*
G04 Created by KiCad (PCBNEW 8.0.8-8.0.8-0~ubuntu22.04.1) date 2025-02-05 10:07:57*
%MOMM*%
%LPD*%
G01*
G04 APERTURE LIST*
G04 Aperture macros list*
%AMHorizOval*
0 Thick line with rounded ends*
0 $1 width*
0 $2 $3 position (X,Y) of the first rounded end (center of the circle)*
0 $4 $5 position (X,Y) of the second rounded end (center of the circle)*
0 Add line between two ends*
20,1,$1,$2,$3,$4,$5,0*
0 Add two circle primitives to create the rounded ends*
1,1,$1,$2,$3*
1,1,$1,$4,$5*%
G04 Aperture macros list end*
%TA.AperFunction,ComponentPad*%
%ADD10R,1.700000X1.700000*%
%TD*%
%TA.AperFunction,ComponentPad*%
%ADD11O,1.700000X1.700000*%
%TD*%
%TA.AperFunction,ComponentPad*%
%ADD12R,1.650000X1.650000*%
%TD*%
%TA.AperFunction,ComponentPad*%
%ADD13C,1.650000*%
%TD*%
%TA.AperFunction,ComponentPad*%
%ADD14C,0.650000*%
%TD*%
%TA.AperFunction,ComponentPad*%
%ADD15HorizOval,1.000000X-0.327661X0.229431X0.327661X-0.229431X0*%
%TD*%
%TA.AperFunction,ComponentPad*%
%ADD16HorizOval,1.000000X-0.245746X0.172073X0.245746X-0.172073X0*%
%TD*%
%TA.AperFunction,ViaPad*%
%ADD17C,0.600000*%
%TD*%
%TA.AperFunction,ViaPad*%
%ADD18C,0.400000*%
%TD*%
%TA.AperFunction,Conductor*%
%ADD19C,0.200000*%
%TD*%
G04 APERTURE END LIST*
D10*
%TO.P,J18,1,Pin_1*%
%TO.N,Net-(J18-Pin_1)*%
X154244999Y-113645000D03*
D11*
%TO.P,J18,2,Pin_2*%
%TO.N,Net-(J18-Pin_2)*%
X154244999Y-116185000D03*
%TD*%
D12*
%TO.P,J7,1,Pin_1*%
%TO.N,GND*%
X123445000Y-98570000D03*
D13*
%TO.P,J7,2,Pin_2*%
%TO.N,Net-(J6-Pin_2)*%
X120905000Y-98570000D03*
%TD*%
D10*
%TO.P,J4,1,Pin_1*%
%TO.N,Net-(J4-Pin_1)*%
X69275000Y-106100000D03*
D11*
%TO.P,J4,2,Pin_2*%
%TO.N,Net-(J4-Pin_2)*%
X69275000Y-103560000D03*
%TD*%
D12*
%TO.P,J11,1,Pin_1*%
%TO.N,GND*%
X213120000Y-98520000D03*
D13*
%TO.P,J11,2,Pin_2*%
%TO.N,Net-(J10-Pin_2)*%
X210580000Y-98520000D03*
%TD*%
D10*
%TO.P,J12,1,Pin_1*%
%TO.N,Net-(J12-Pin_1)*%
X247175000Y-97300000D03*
D11*
%TO.P,J12,2,Pin_2*%
%TO.N,Net-(J12-Pin_2)*%
X247175000Y-99840000D03*
%TD*%
D12*
%TO.P,J23,1,Pin_1*%
%TO.N,GND*%
X234830000Y-121305000D03*
D13*
%TO.P,J23,2,Pin_2*%
%TO.N,Net-(J22-Pin_2)*%
X237370000Y-121305000D03*
%TD*%
D14*
%TO.P,J1,B1,GND__2*%
%TO.N,GND*%
X47461242Y-106839041D03*
%TO.P,J1,B2,SSTXP2*%
%TO.N,unconnected-(J1-SSTXP2-PadB2)*%
X47260661Y-105905088D03*
%TO.P,J1,B3,SSTXN2*%
%TO.N,unconnected-(J1-SSTXN2-PadB3)*%
X47719522Y-105249767D03*
%TO.P,J1,B4,VBUS__2*%
%TO.N,VBUS*%
X48522359Y-105323609D03*
%TO.P,J1,B5,CC2*%
%TO.N,Net-(J1-CC2)*%
X48178383Y-104594445D03*
%TO.P,J1,B6,DP2*%
%TO.N,unconnected-(J1-DP2-PadB6)*%
X48981220Y-104668288D03*
%TO.P,J1,B7,DN2*%
%TO.N,unconnected-(J1-DN2-PadB7)*%
X49440081Y-104012966D03*
%TO.P,J1,B8,SBU2*%
%TO.N,unconnected-(J1-SBU2-PadB8)*%
X49096105Y-103283802D03*
%TO.P,J1,B9,VBUS__3*%
%TO.N,VBUS*%
X49898941Y-103357644D03*
%TO.P,J1,B10,SSRXN1*%
%TO.N,unconnected-(J1-SSRXN1-PadB10)*%
X49554966Y-102628480D03*
%TO.P,J1,B11,SSRXP1*%
%TO.N,unconnected-(J1-SSRXP1-PadB11)*%
X50013828Y-101973159D03*
%TO.P,J1,B12,GND__3*%
%TO.N,GND*%
X50960059Y-101842213D03*
D15*
%TO.P,J1,SH1,SHIELD*%
X47859815Y-97901276D03*
%TO.P,J1,SH2,SHIELD__1*%
X42697627Y-105273644D03*
D16*
%TO.P,J1,SH3,SHIELD__2*%
X52447066Y-101113304D03*
%TO.P,J1,SH4,SHIELD__3*%
X47284878Y-108485672D03*
%TD*%
D12*
%TO.P,J15,1,Pin_1*%
%TO.N,GND*%
X55255000Y-121280000D03*
D13*
%TO.P,J15,2,Pin_2*%
%TO.N,Net-(J14-Pin_2)*%
X57795000Y-121280000D03*
%TD*%
D10*
%TO.P,J10,1,Pin_1*%
%TO.N,Net-(J10-Pin_1)*%
X204030000Y-105995000D03*
D11*
%TO.P,J10,2,Pin_2*%
%TO.N,Net-(J10-Pin_2)*%
X204030000Y-103455000D03*
%TD*%
D10*
%TO.P,J22,1,Pin_1*%
%TO.N,Net-(J22-Pin_1)*%
X243774999Y-113600000D03*
D11*
%TO.P,J22,2,Pin_2*%
%TO.N,Net-(J22-Pin_2)*%
X243774999Y-116140000D03*
%TD*%
D12*
%TO.P,J19,1,Pin_1*%
%TO.N,GND*%
X145300000Y-121350000D03*
D13*
%TO.P,J19,2,Pin_2*%
%TO.N,Net-(J18-Pin_2)*%
X147840000Y-121350000D03*
%TD*%
D10*
%TO.P,J16,1,Pin_1*%
%TO.N,Net-(J16-Pin_1)*%
X109019999Y-113720000D03*
D11*
%TO.P,J16,2,Pin_2*%
%TO.N,Net-(J16-Pin_2)*%
X109019999Y-116260000D03*
%TD*%
D10*
%TO.P,J6,1,Pin_1*%
%TO.N,Net-(J6-Pin_1)*%
X114355000Y-106045000D03*
D11*
%TO.P,J6,2,Pin_2*%
%TO.N,Net-(J6-Pin_2)*%
X114355000Y-103505000D03*
%TD*%
D12*
%TO.P,J17,1,Pin_1*%
%TO.N,GND*%
X100075000Y-121425000D03*
D13*
%TO.P,J17,2,Pin_2*%
%TO.N,Net-(J16-Pin_2)*%
X102615000Y-121425000D03*
%TD*%
D12*
%TO.P,J21,1,Pin_1*%
%TO.N,GND*%
X189880000Y-121255000D03*
D13*
%TO.P,J21,2,Pin_2*%
%TO.N,Net-(J20-Pin_2)*%
X192420000Y-121255000D03*
%TD*%
D12*
%TO.P,J9,1,Pin_1*%
%TO.N,GND*%
X168320000Y-98545000D03*
D13*
%TO.P,J9,2,Pin_2*%
%TO.N,Net-(J8-Pin_2)*%
X165780000Y-98545000D03*
%TD*%
D10*
%TO.P,J20,1,Pin_1*%
%TO.N,Net-(J20-Pin_1)*%
X198824999Y-113550000D03*
D11*
%TO.P,J20,2,Pin_2*%
%TO.N,Net-(J20-Pin_2)*%
X198824999Y-116090000D03*
%TD*%
D12*
%TO.P,J5,1,Pin_1*%
%TO.N,GND*%
X78365000Y-98625000D03*
D13*
%TO.P,J5,2,Pin_2*%
%TO.N,Net-(J4-Pin_2)*%
X75825000Y-98625000D03*
%TD*%
D10*
%TO.P,J14,1,Pin_1*%
%TO.N,Net-(J14-Pin_1)*%
X64200000Y-113575000D03*
D11*
%TO.P,J14,2,Pin_2*%
%TO.N,Net-(J14-Pin_2)*%
X64200000Y-116115000D03*
%TD*%
D10*
%TO.P,J8,1,Pin_1*%
%TO.N,Net-(J8-Pin_1)*%
X159230000Y-106020000D03*
D11*
%TO.P,J8,2,Pin_2*%
%TO.N,Net-(J8-Pin_2)*%
X159230000Y-103480000D03*
%TD*%
D12*
%TO.P,J13,1,Pin_1*%
%TO.N,GND*%
X253065000Y-98670000D03*
D13*
%TO.P,J13,2,Pin_2*%
%TO.N,Net-(J12-Pin_2)*%
X250525000Y-98670000D03*
%TD*%
D17*
%TO.N,GND*%
X235500000Y-113200000D03*
X100800000Y-113300000D03*
X190600000Y-113200000D03*
X55900000Y-113200000D03*
X146000000Y-113300000D03*
X54100000Y-107700000D03*
X77900000Y-106800000D03*
X123000000Y-106700000D03*
X167900000Y-106700000D03*
X212700000Y-106700000D03*
X240100000Y-107700000D03*
X243300000Y-103600000D03*
X196800000Y-112300000D03*
X106100000Y-107325000D03*
X196850000Y-115350000D03*
X213775000Y-117850000D03*
X181250000Y-107525000D03*
X225150000Y-107725000D03*
X136275000Y-107800000D03*
X138850000Y-118725000D03*
X251775000Y-116100000D03*
X116750000Y-123375000D03*
X91350000Y-101900000D03*
X257075000Y-96900000D03*
X107045000Y-117495000D03*
X116855000Y-102245000D03*
X218000000Y-107650000D03*
X195825000Y-102325000D03*
X45800000Y-118125000D03*
X71925000Y-123375000D03*
X45775000Y-123025000D03*
X261800000Y-96925000D03*
X91525000Y-107325000D03*
X176425000Y-123300000D03*
X131325000Y-112600000D03*
X131500000Y-123300000D03*
X161675000Y-117800000D03*
X221575000Y-118025000D03*
X206825000Y-112600000D03*
X168525000Y-123475000D03*
X183600000Y-112625000D03*
X150850000Y-107800000D03*
X241800000Y-115400000D03*
X99150000Y-102075000D03*
X256850000Y-100300000D03*
X150850000Y-102600000D03*
X195825000Y-107525000D03*
X128925000Y-107775000D03*
X213950000Y-112600000D03*
X261750000Y-100200000D03*
X99250000Y-96450000D03*
X152270000Y-117420000D03*
X232775000Y-102475000D03*
X266775000Y-96700000D03*
X143900000Y-102550000D03*
X34625000Y-123050000D03*
X93850000Y-112625000D03*
X28525000Y-123175000D03*
X188875000Y-102275000D03*
X224975000Y-102300000D03*
X221575000Y-123300000D03*
X136100000Y-97100000D03*
X161705000Y-104445000D03*
X176425000Y-118025000D03*
X206825000Y-123375000D03*
X63675000Y-96825000D03*
X206530000Y-102195000D03*
X248175000Y-122975000D03*
X60800000Y-98450000D03*
X116750000Y-117800000D03*
X176250000Y-112600000D03*
X221400000Y-112600000D03*
X206505000Y-104420000D03*
X57575000Y-96775000D03*
X136100000Y-102375000D03*
X217625000Y-101600000D03*
X84175000Y-107300000D03*
X181075000Y-102100000D03*
X60700000Y-106175000D03*
X86500000Y-112600000D03*
X79050000Y-112600000D03*
X261625000Y-103525000D03*
X144000000Y-96925000D03*
X98975000Y-107325000D03*
X173900000Y-107500000D03*
X50600000Y-118100000D03*
X123700000Y-117850000D03*
X106100000Y-102125000D03*
X78775000Y-123475000D03*
X161675000Y-112600000D03*
X228925000Y-118725000D03*
X107045000Y-115520000D03*
X34375000Y-118250000D03*
X241800000Y-117375000D03*
X116830000Y-104470000D03*
X50750000Y-96575000D03*
X168800000Y-112600000D03*
X161675000Y-123375000D03*
X181075000Y-96825000D03*
X106100000Y-96550000D03*
X138675000Y-112625000D03*
X86675000Y-123300000D03*
X123875000Y-112600000D03*
X195825000Y-96750000D03*
X84000000Y-101200000D03*
X152270000Y-115445000D03*
X173725000Y-101400000D03*
X128750000Y-101675000D03*
X131500000Y-118025000D03*
X71750000Y-104525000D03*
X86675000Y-118025000D03*
X78875000Y-117850000D03*
X94025000Y-118725000D03*
X91350000Y-96625000D03*
X62225000Y-117350000D03*
X188975000Y-96650000D03*
X161730000Y-102220000D03*
X116750000Y-112600000D03*
X168625000Y-117850000D03*
X183775000Y-118725000D03*
X123600000Y-123475000D03*
X188700000Y-107525000D03*
X232875000Y-96850000D03*
X71925000Y-117800000D03*
X150850000Y-97025000D03*
X60700000Y-102300000D03*
X143725000Y-107800000D03*
X213675000Y-123475000D03*
X62225000Y-115375000D03*
X206825000Y-117800000D03*
X196850000Y-117325000D03*
X224975000Y-97025000D03*
X71775000Y-102300000D03*
D18*
%TO.N,Net-(J1-CC2)*%
X50775000Y-105975000D03*
%TD*%
D19*
%TO.N,Net-(J1-CC2)*%
X46750000Y-110775000D02*
X44650000Y-108675000D01*
X44650000Y-107435405D02*
X47490960Y-104594445D01*
X44650000Y-108675000D02*
X44650000Y-107435405D01*
X47490960Y-104594445D02*
X48178383Y-104594445D01*
X47750000Y-110775000D02*
X46750000Y-110775000D01*
X50775000Y-107750000D02*
X47750000Y-110775000D01*
X50775000Y-105975000D02*
X50775000Y-107750000D01*
%TD*%
%TA.AperFunction,Conductor*%
%TO.N,GND*%
G36*
X45607948Y-107429203D02*
G01*
X45663882Y-107471074D01*
X45671436Y-107483234D01*
X45671456Y-107483222D01*
X45762125Y-107625506D01*
X45874595Y-107742961D01*
X45874598Y-107742963D01*
X45879963Y-107746718D01*
X45879988Y-107746738D01*
X45899158Y-107760156D01*
X45899244Y-107760264D01*
X45941189Y-107789624D01*
X45941189Y-107789625D01*
X46007793Y-107836246D01*
X46018988Y-107841170D01*
X46072429Y-107886180D01*
X46093052Y-107952937D01*
X46084572Y-107994728D01*
X46086049Y-107995212D01*
X46084153Y-108001004D01*
X46041518Y-108193318D01*
X46037221Y-108390257D01*
X46071427Y-108584242D01*
X46071427Y-108584244D01*
X46142822Y-108767836D01*
X46248657Y-108933961D01*
X46384881Y-109076263D01*
X46506512Y-109161429D01*
X46936695Y-108547065D01*
X47346271Y-108833853D01*
X46916089Y-109448217D01*
X47037726Y-109533388D01*
X47218028Y-109612723D01*
X47410343Y-109655358D01*
X47607282Y-109659655D01*
X47716326Y-109640427D01*
X47785765Y-109648171D01*
X47839994Y-109692227D01*
X47861797Y-109758608D01*
X47844249Y-109826238D01*
X47825540Y-109850224D01*
X47537584Y-110138181D01*
X47476261Y-110171666D01*
X47449903Y-110174500D01*
X47050097Y-110174500D01*
X46983058Y-110154815D01*
X46962416Y-110138181D01*
X45286819Y-108462584D01*
X45253334Y-108401261D01*
X45250500Y-108374903D01*
X45250500Y-107735501D01*
X45270185Y-107668462D01*
X45286815Y-107647824D01*
X45476937Y-107457702D01*
X45538257Y-107424219D01*
X45607948Y-107429203D01*
G37*
%TD.AperFunction*%
%TA.AperFunction,Conductor*%
G36*
X269013286Y-95599947D02*
G01*
X269080321Y-95619647D01*
X269126064Y-95672461D01*
X269135992Y-95741622D01*
X269115181Y-95794570D01*
X249262331Y-124446123D01*
X249207969Y-124490016D01*
X249160408Y-124499500D01*
X244750500Y-124499500D01*
X25739157Y-124475026D01*
X25672120Y-124455334D01*
X25626371Y-124402525D01*
X25616435Y-124333365D01*
X25637836Y-124279562D01*
X28368937Y-120407155D01*
X53930000Y-120407155D01*
X53930000Y-121030000D01*
X54764252Y-121030000D01*
X54742482Y-121067708D01*
X54705000Y-121207591D01*
X54705000Y-121352409D01*
X54742482Y-121492292D01*
X54764252Y-121530000D01*
X53930000Y-121530000D01*
X53930000Y-122152844D01*
X53936401Y-122212372D01*
X53936403Y-122212379D01*
X53986645Y-122347086D01*
X53986649Y-122347093D01*
X54072809Y-122462187D01*
X54072812Y-122462190D01*
X54187906Y-122548350D01*
X54187913Y-122548354D01*
X54322620Y-122598596D01*
X54322627Y-122598598D01*
X54382155Y-122604999D01*
X54382172Y-122605000D01*
X55005000Y-122605000D01*
X55005000Y-121770747D01*
X55042708Y-121792518D01*
X55182591Y-121830000D01*
X55327409Y-121830000D01*
X55467292Y-121792518D01*
X55505000Y-121770747D01*
X55505000Y-122605000D01*
X56127828Y-122605000D01*
X56127844Y-122604999D01*
X56187372Y-122598598D01*
X56187379Y-122598596D01*
X56322086Y-122548354D01*
X56322093Y-122548350D01*
X56437187Y-122462190D01*
X56437190Y-122462187D01*
X56523350Y-122347093D01*
X56523354Y-122347086D01*
X56573596Y-122212379D01*
X56575380Y-122204832D01*
X56578160Y-122205488D01*
X56599721Y-122153405D01*
X56657104Y-122113544D01*
X56726929Y-122111035D01*
X56783970Y-122143509D01*
X56939731Y-122299270D01*
X57129718Y-122432301D01*
X57339921Y-122530320D01*
X57563950Y-122590349D01*
X57728985Y-122604787D01*
X57794998Y-122610563D01*
X57795000Y-122610563D01*
X57795002Y-122610563D01*
X57858586Y-122605000D01*
X58026050Y-122590349D01*
X58250079Y-122530320D01*
X58460282Y-122432301D01*
X58650269Y-122299270D01*
X58814270Y-122135269D01*
X58947301Y-121945282D01*
X59045320Y-121735079D01*
X59105349Y-121511050D01*
X59125563Y-121280000D01*
X59105349Y-121048950D01*
X59045320Y-120824921D01*
X58947301Y-120614719D01*
X58947299Y-120614716D01*
X58947298Y-120614714D01*
X58903494Y-120552155D01*
X98750000Y-120552155D01*
X98750000Y-121175000D01*
X99584252Y-121175000D01*
X99562482Y-121212708D01*
X99525000Y-121352591D01*
X99525000Y-121497409D01*
X99562482Y-121637292D01*
X99584252Y-121675000D01*
X98750000Y-121675000D01*
X98750000Y-122297844D01*
X98756401Y-122357372D01*
X98756403Y-122357379D01*
X98806645Y-122492086D01*
X98806649Y-122492093D01*
X98892809Y-122607187D01*
X98892812Y-122607190D01*
X99007906Y-122693350D01*
X99007913Y-122693354D01*
X99142620Y-122743596D01*
X99142627Y-122743598D01*
X99202155Y-122749999D01*
X99202172Y-122750000D01*
X99825000Y-122750000D01*
X99825000Y-121915747D01*
X99862708Y-121937518D01*
X100002591Y-121975000D01*
X100147409Y-121975000D01*
X100287292Y-121937518D01*
X100325000Y-121915747D01*
X100325000Y-122750000D01*
X100947828Y-122750000D01*
X100947844Y-122749999D01*
X101007372Y-122743598D01*
X101007379Y-122743596D01*
X101142086Y-122693354D01*
X101142093Y-122693350D01*
X101257187Y-122607190D01*
X101257190Y-122607187D01*
X101343350Y-122492093D01*
X101343354Y-122492086D01*
X101393596Y-122357379D01*
X101395380Y-122349832D01*
X101398160Y-122350488D01*
X101419721Y-122298405D01*
X101477104Y-122258544D01*
X101546929Y-122256035D01*
X101603970Y-122288509D01*
X101759731Y-122444270D01*
X101949718Y-122577301D01*
X102159921Y-122675320D01*
X102383950Y-122735349D01*
X102548985Y-122749787D01*
X102614998Y-122755563D01*
X102615000Y-122755563D01*
X102615002Y-122755563D01*
X102678586Y-122750000D01*
X102846050Y-122735349D01*
X103070079Y-122675320D01*
X103280282Y-122577301D01*
X103470269Y-122444270D01*
X103634270Y-122280269D01*
X103767301Y-122090282D01*
X103865320Y-121880079D01*
X103925349Y-121656050D01*
X103945563Y-121425000D01*
X103925349Y-121193950D01*
X103865320Y-120969921D01*
X103767301Y-120759719D01*
X103767299Y-120759716D01*
X103767298Y-120759714D01*
X103634273Y-120569735D01*
X103634268Y-120569729D01*
X103541694Y-120477155D01*
X143975000Y-120477155D01*
X143975000Y-121100000D01*
X144809252Y-121100000D01*
X144787482Y-121137708D01*
X144750000Y-121277591D01*
X144750000Y-121422409D01*
X144787482Y-121562292D01*
X144809252Y-121600000D01*
X143975000Y-121600000D01*
X143975000Y-122222844D01*
X143981401Y-122282372D01*
X143981403Y-122282379D01*
X144031645Y-122417086D01*
X144031649Y-122417093D01*
X144117809Y-122532187D01*
X144117812Y-122532190D01*
X144232906Y-122618350D01*
X144232913Y-122618354D01*
X144367620Y-122668596D01*
X144367627Y-122668598D01*
X144427155Y-122674999D01*
X144427172Y-122675000D01*
X145050000Y-122675000D01*
X145050000Y-121840747D01*
X145087708Y-121862518D01*
X145227591Y-121900000D01*
X145372409Y-121900000D01*
X145512292Y-121862518D01*
X145550000Y-121840747D01*
X145550000Y-122675000D01*
X146172828Y-122675000D01*
X146172844Y-122674999D01*
X146232372Y-122668598D01*
X146232379Y-122668596D01*
X146367086Y-122618354D01*
X146367093Y-122618350D01*
X146482187Y-122532190D01*
X146482190Y-122532187D01*
X146568350Y-122417093D01*
X146568354Y-122417086D01*
X146618596Y-122282379D01*
X146620380Y-122274832D01*
X146623160Y-122275488D01*
X146644721Y-122223405D01*
X146702104Y-122183544D01*
X146771929Y-122181035D01*
X146828970Y-122213509D01*
X146984731Y-122369270D01*
X147174718Y-122502301D01*
X147384921Y-122600320D01*
X147608950Y-122660349D01*
X147773985Y-122674787D01*
X147839998Y-122680563D01*
X147840000Y-122680563D01*
X147840002Y-122680563D01*
X147899917Y-122675321D01*
X148071050Y-122660349D01*
X148295079Y-122600320D01*
X148505282Y-122502301D01*
X148695269Y-122369270D01*
X148859270Y-122205269D01*
X148992301Y-122015282D01*
X149090320Y-121805079D01*
X149150349Y-121581050D01*
X149170563Y-121350000D01*
X149150349Y-121118950D01*
X149090320Y-120894921D01*
X148992301Y-120684719D01*
X148992299Y-120684716D01*
X148992298Y-120684714D01*
X148859273Y-120494735D01*
X148859268Y-120494729D01*
X148746694Y-120382155D01*
X188555000Y-120382155D01*
X188555000Y-121005000D01*
X189389252Y-121005000D01*
X189367482Y-121042708D01*
X189330000Y-121182591D01*
X189330000Y-121327409D01*
X189367482Y-121467292D01*
X189389252Y-121505000D01*
X188555000Y-121505000D01*
X188555000Y-122127844D01*
X188561401Y-122187372D01*
X188561403Y-122187379D01*
X188611645Y-122322086D01*
X188611649Y-122322093D01*
X188697809Y-122437187D01*
X188697812Y-122437190D01*
X188812906Y-122523350D01*
X188812913Y-122523354D01*
X188947620Y-122573596D01*
X188947627Y-122573598D01*
X189007155Y-122579999D01*
X189007172Y-122580000D01*
X189630000Y-122580000D01*
X189630000Y-121745747D01*
X189667708Y-121767518D01*
X189807591Y-121805000D01*
X189952409Y-121805000D01*
X190092292Y-121767518D01*
X190130000Y-121745747D01*
X190130000Y-122580000D01*
X190752828Y-122580000D01*
X190752844Y-122579999D01*
X190812372Y-122573598D01*
X190812379Y-122573596D01*
X190947086Y-122523354D01*
X190947093Y-122523350D01*
X191062187Y-122437190D01*
X191062190Y-122437187D01*
X191148350Y-122322093D01*
X191148354Y-122322086D01*
X191198596Y-122187379D01*
X191200380Y-122179832D01*
X191203160Y-122180488D01*
X191224721Y-122128405D01*
X191282104Y-122088544D01*
X191351929Y-122086035D01*
X191408970Y-122118509D01*
X191564731Y-122274270D01*
X191754718Y-122407301D01*
X191964921Y-122505320D01*
X192188950Y-122565349D01*
X192353985Y-122579787D01*
X192419998Y-122585563D01*
X192420000Y-122585563D01*
X192420002Y-122585563D01*
X192483586Y-122580000D01*
X192651050Y-122565349D01*
X192875079Y-122505320D01*
X193085282Y-122407301D01*
X193275269Y-122274270D01*
X193439270Y-122110269D01*
X193572301Y-121920282D01*
X193670320Y-121710079D01*
X193730349Y-121486050D01*
X193750563Y-121255000D01*
X193748602Y-121232591D01*
X193736364Y-121092708D01*
X193730349Y-121023950D01*
X193670320Y-120799921D01*
X193572301Y-120589719D01*
X193572299Y-120589716D01*
X193572298Y-120589714D01*
X193461974Y-120432155D01*
X233505000Y-120432155D01*
X233505000Y-121055000D01*
X234339252Y-121055000D01*
X234317482Y-121092708D01*
X234280000Y-121232591D01*
X234280000Y-121377409D01*
X234317482Y-121517292D01*
X234339252Y-121555000D01*
X233505000Y-121555000D01*
X233505000Y-122177844D01*
X233511401Y-122237372D01*
X233511403Y-122237379D01*
X233561645Y-122372086D01*
X233561649Y-122372093D01*
X233647809Y-122487187D01*
X233647812Y-122487190D01*
X233762906Y-122573350D01*
X233762913Y-122573354D01*
X233897620Y-122623596D01*
X233897627Y-122623598D01*
X233957155Y-122629999D01*
X233957172Y-122630000D01*
X234580000Y-122630000D01*
X234580000Y-121795747D01*
X234617708Y-121817518D01*
X234757591Y-121855000D01*
X234902409Y-121855000D01*
X235042292Y-121817518D01*
X235080000Y-121795747D01*
X235080000Y-122630000D01*
X235702828Y-122630000D01*
X235702844Y-122629999D01*
X235762372Y-122623598D01*
X235762379Y-122623596D01*
X235897086Y-122573354D01*
X235897093Y-122573350D01*
X236012187Y-122487190D01*
X236012190Y-122487187D01*
X236098350Y-122372093D01*
X236098354Y-122372086D01*
X236148596Y-122237379D01*
X236150380Y-122229832D01*
X236153160Y-122230488D01*
X236174721Y-122178405D01*
X236232104Y-122138544D01*
X236301929Y-122136035D01*
X236358970Y-122168509D01*
X236514731Y-122324270D01*
X236704718Y-122457301D01*
X236914921Y-122555320D01*
X237138950Y-122615349D01*
X237303985Y-122629787D01*
X237369998Y-122635563D01*
X237370000Y-122635563D01*
X237370002Y-122635563D01*
X237433586Y-122630000D01*
X237601050Y-122615349D01*
X237825079Y-122555320D01*
X238035282Y-122457301D01*
X238225269Y-122324270D01*
X238389270Y-122160269D01*
X238522301Y-121970282D01*
X238620320Y-121760079D01*
X238680349Y-121536050D01*
X238697675Y-121338007D01*
X238700563Y-121305001D01*
X238700563Y-121304998D01*
X238690848Y-121193955D01*
X238680349Y-121073950D01*
X238620320Y-120849921D01*
X238522301Y-120639719D01*
X238522299Y-120639716D01*
X238522298Y-120639714D01*
X238389273Y-120449735D01*
X238389268Y-120449729D01*
X238225269Y-120285730D01*
X238163976Y-120242812D01*
X238035282Y-120152699D01*
X237825079Y-120054680D01*
X237825076Y-120054679D01*
X237825074Y-120054678D01*
X237601051Y-119994651D01*
X237601044Y-119994650D01*
X237370002Y-119974437D01*
X237369998Y-119974437D01*
X237138955Y-119994650D01*
X237138948Y-119994651D01*
X236914917Y-120054681D01*
X236704718Y-120152699D01*
X236704714Y-120152701D01*
X236514735Y-120285726D01*
X236358970Y-120441491D01*
X236297647Y-120474975D01*
X236227955Y-120469991D01*
X236172022Y-120428119D01*
X236152923Y-120379567D01*
X236150380Y-120380168D01*
X236148596Y-120372620D01*
X236098354Y-120237913D01*
X236098350Y-120237906D01*
X236012190Y-120122812D01*
X236012187Y-120122809D01*
X235897093Y-120036649D01*
X235897086Y-120036645D01*
X235762379Y-119986403D01*
X235762372Y-119986401D01*
X235702844Y-119980000D01*
X235080000Y-119980000D01*
X235080000Y-120814252D01*
X235042292Y-120792482D01*
X234902409Y-120755000D01*
X234757591Y-120755000D01*
X234617708Y-120792482D01*
X234580000Y-120814252D01*
X234580000Y-119980000D01*
X233957155Y-119980000D01*
X233897627Y-119986401D01*
X233897620Y-119986403D01*
X233762913Y-120036645D01*
X233762906Y-120036649D01*
X233647812Y-120122809D01*
X233647809Y-120122812D01*
X233561649Y-120237906D01*
X233561645Y-120237913D01*
X233511403Y-120372620D01*
X233511401Y-120372627D01*
X233505000Y-120432155D01*
X193461974Y-120432155D01*
X193439273Y-120399735D01*
X193439268Y-120399729D01*
X193275269Y-120235730D01*
X193220955Y-120197699D01*
X193085282Y-120102699D01*
X192875079Y-120004680D01*
X192875076Y-120004679D01*
X192875074Y-120004678D01*
X192651051Y-119944651D01*
X192651044Y-119944650D01*
X192420002Y-119924437D01*
X192419998Y-119924437D01*
X192188955Y-119944650D01*
X192188948Y-119944651D01*
X191964917Y-120004681D01*
X191754718Y-120102699D01*
X191754714Y-120102701D01*
X191564735Y-120235726D01*
X191408970Y-120391491D01*
X191347647Y-120424975D01*
X191277955Y-120419991D01*
X191222022Y-120378119D01*
X191202923Y-120329567D01*
X191200380Y-120330168D01*
X191198596Y-120322620D01*
X191148354Y-120187913D01*
X191148350Y-120187906D01*
X191062190Y-120072812D01*
X191062187Y-120072809D01*
X190947093Y-119986649D01*
X190947086Y-119986645D01*
X190812379Y-119936403D01*
X190812372Y-119936401D01*
X190752844Y-119930000D01*
X190130000Y-119930000D01*
X190130000Y-120764252D01*
X190092292Y-120742482D01*
X189952409Y-120705000D01*
X189807591Y-120705000D01*
X189667708Y-120742482D01*
X189630000Y-120764252D01*
X189630000Y-119930000D01*
X189007155Y-119930000D01*
X188947627Y-119936401D01*
X188947620Y-119936403D01*
X188812913Y-119986645D01*
X188812906Y-119986649D01*
X188697812Y-120072809D01*
X188697809Y-120072812D01*
X188611649Y-120187906D01*
X188611645Y-120187913D01*
X188561403Y-120322620D01*
X188561401Y-120322627D01*
X188555000Y-120382155D01*
X148746694Y-120382155D01*
X148695269Y-120330730D01*
X148683687Y-120322620D01*
X148505282Y-120197699D01*
X148295079Y-120099680D01*
X148295076Y-120099679D01*
X148295074Y-120099678D01*
X148071051Y-120039651D01*
X148071044Y-120039650D01*
X147840002Y-120019437D01*
X147839998Y-120019437D01*
X147608955Y-120039650D01*
X147608948Y-120039651D01*
X147384917Y-120099681D01*
X147174718Y-120197699D01*
X147174714Y-120197701D01*
X146984735Y-120330726D01*
X146828970Y-120486491D01*
X146767647Y-120519975D01*
X146697955Y-120514991D01*
X146642022Y-120473119D01*
X146622923Y-120424567D01*
X146620380Y-120425168D01*
X146618596Y-120417620D01*
X146568354Y-120282913D01*
X146568350Y-120282906D01*
X146482190Y-120167812D01*
X146482187Y-120167809D01*
X146367093Y-120081649D01*
X146367086Y-120081645D01*
X146232379Y-120031403D01*
X146232372Y-120031401D01*
X146172844Y-120025000D01*
X145550000Y-120025000D01*
X145550000Y-120859252D01*
X145512292Y-120837482D01*
X145372409Y-120800000D01*
X145227591Y-120800000D01*
X145087708Y-120837482D01*
X145050000Y-120859252D01*
X145050000Y-120025000D01*
X144427155Y-120025000D01*
X144367627Y-120031401D01*
X144367620Y-120031403D01*
X144232913Y-120081645D01*
X144232906Y-120081649D01*
X144117812Y-120167809D01*
X144117809Y-120167812D01*
X144031649Y-120282906D01*
X144031645Y-120282913D01*
X143981403Y-120417620D01*
X143981401Y-120417627D01*
X143975000Y-120477155D01*
X103541694Y-120477155D01*
X103470269Y-120405730D01*
X103449934Y-120391491D01*
X103280282Y-120272699D01*
X103070079Y-120174680D01*
X103070076Y-120174679D01*
X103070074Y-120174678D01*
X102846051Y-120114651D01*
X102846044Y-120114650D01*
X102615002Y-120094437D01*
X102614998Y-120094437D01*
X102383955Y-120114650D01*
X102383948Y-120114651D01*
X102159917Y-120174681D01*
X101949718Y-120272699D01*
X101949714Y-120272701D01*
X101759735Y-120405726D01*
X101603970Y-120561491D01*
X101542647Y-120594975D01*
X101472955Y-120589991D01*
X101417022Y-120548119D01*
X101397923Y-120499567D01*
X101395380Y-120500168D01*
X101393596Y-120492620D01*
X101343354Y-120357913D01*
X101343350Y-120357906D01*
X101257190Y-120242812D01*
X101257187Y-120242809D01*
X101142093Y-120156649D01*
X101142086Y-120156645D01*
X101007379Y-120106403D01*
X101007372Y-120106401D01*
X100947844Y-120100000D01*
X100325000Y-120100000D01*
X100325000Y-120934252D01*
X100287292Y-120912482D01*
X100147409Y-120875000D01*
X100002591Y-120875000D01*
X99862708Y-120912482D01*
X99825000Y-120934252D01*
X99825000Y-120100000D01*
X99202155Y-120100000D01*
X99142627Y-120106401D01*
X99142620Y-120106403D01*
X99007913Y-120156645D01*
X99007906Y-120156649D01*
X98892812Y-120242809D01*
X98892809Y-120242812D01*
X98806649Y-120357906D01*
X98806645Y-120357913D01*
X98756403Y-120492620D01*
X98756401Y-120492627D01*
X98750000Y-120552155D01*
X58903494Y-120552155D01*
X58814273Y-120424735D01*
X58814268Y-120424729D01*
X58650269Y-120260730D01*
X58650263Y-120260726D01*
X58460282Y-120127699D01*
X58250079Y-120029680D01*
X58250076Y-120029679D01*
X58250074Y-120029678D01*
X58026051Y-119969651D01*
X58026044Y-119969650D01*
X57795002Y-119949437D01*
X57794998Y-119949437D01*
X57563955Y-119969650D01*
X57563948Y-119969651D01*
X57339917Y-120029681D01*
X57129718Y-120127699D01*
X57129714Y-120127701D01*
X56939735Y-120260726D01*
X56783970Y-120416491D01*
X56722647Y-120449975D01*
X56652955Y-120444991D01*
X56597022Y-120403119D01*
X56577923Y-120354567D01*
X56575380Y-120355168D01*
X56573596Y-120347620D01*
X56523354Y-120212913D01*
X56523350Y-120212906D01*
X56437190Y-120097812D01*
X56437187Y-120097809D01*
X56322093Y-120011649D01*
X56322086Y-120011645D01*
X56187379Y-119961403D01*
X56187372Y-119961401D01*
X56127844Y-119955000D01*
X55505000Y-119955000D01*
X55505000Y-120789252D01*
X55467292Y-120767482D01*
X55327409Y-120730000D01*
X55182591Y-120730000D01*
X55042708Y-120767482D01*
X55005000Y-120789252D01*
X55005000Y-119955000D01*
X54382155Y-119955000D01*
X54322627Y-119961401D01*
X54322620Y-119961403D01*
X54187913Y-120011645D01*
X54187906Y-120011649D01*
X54072812Y-120097809D01*
X54072809Y-120097812D01*
X53986649Y-120212906D01*
X53986645Y-120212913D01*
X53936403Y-120347620D01*
X53936401Y-120347627D01*
X53930000Y-120407155D01*
X28368937Y-120407155D01*
X31889520Y-115415349D01*
X35361708Y-115415349D01*
X35361708Y-115622288D01*
X35402076Y-115825231D01*
X35402078Y-115825239D01*
X35453584Y-115949586D01*
X35481267Y-116016417D01*
X35486732Y-116024596D01*
X35596232Y-116188476D01*
X35742550Y-116334794D01*
X35742553Y-116334796D01*
X35914610Y-116449760D01*
X36105788Y-116528949D01*
X36308738Y-116569318D01*
X36308742Y-116569319D01*
X36308743Y-116569319D01*
X36515674Y-116569319D01*
X36515675Y-116569318D01*
X36718628Y-116528949D01*
X36909806Y-116449760D01*
X37081863Y-116334796D01*
X37228185Y-116188474D01*
X37277279Y-116114999D01*
X62844341Y-116114999D01*
X62844341Y-116115000D01*
X62864936Y-116350403D01*
X62864938Y-116350413D01*
X62926094Y-116578655D01*
X62926096Y-116578659D01*
X62926097Y-116578663D01*
X62958735Y-116648655D01*
X63025965Y-116792830D01*
X63025967Y-116792834D01*
X63074982Y-116862834D01*
X63161505Y-116986401D01*
X63328599Y-117153495D01*
X63364300Y-117178493D01*
X63522165Y-117289032D01*
X63522167Y-117289033D01*
X63522170Y-117289035D01*
X63736337Y-117388903D01*
X63964592Y-117450063D01*
X64152918Y-117466539D01*
X64199999Y-117470659D01*
X64200000Y-117470659D01*
X64200001Y-117470659D01*
X64239234Y-117467226D01*
X64435408Y-117450063D01*
X64663663Y-117388903D01*
X64877830Y-117289035D01*
X65071401Y-117153495D01*
X65238495Y-116986401D01*
X65374035Y-116792830D01*
X65473903Y-116578663D01*
X65535063Y-116350408D01*
X65542973Y-116259999D01*
X107664340Y-116259999D01*
X107664340Y-116260000D01*
X107684935Y-116495403D01*
X107684937Y-116495413D01*
X107746093Y-116723655D01*
X107746095Y-116723659D01*
X107746096Y-116723663D01*
X107778351Y-116792834D01*
X107845964Y-116937830D01*
X107845966Y-116937834D01*
X107928984Y-117056395D01*
X107981504Y-117131401D01*
X108148598Y-117298495D01*
X108235054Y-117359032D01*
X108342164Y-117434032D01*
X108342166Y-117434033D01*
X108342169Y-117434035D01*
X108556336Y-117533903D01*
X108784591Y-117595063D01*
X108972917Y-117611539D01*
X109019998Y-117615659D01*
X109019999Y-117615659D01*
X109020000Y-117615659D01*
X109059233Y-117612226D01*
X109255407Y-117595063D01*
X109483662Y-117533903D01*
X109697829Y-117434035D01*
X109891400Y-117298495D01*
X110058494Y-117131401D01*
X110194034Y-116937830D01*
X110293902Y-116723663D01*
X110355062Y-116495408D01*
X110375658Y-116260000D01*
X110369096Y-116184999D01*
X152889340Y-116184999D01*
X152889340Y-116185000D01*
X152909935Y-116420403D01*
X152909937Y-116420413D01*
X152971093Y-116648655D01*
X152971095Y-116648659D01*
X152971096Y-116648663D01*
X153038324Y-116792834D01*
X153070964Y-116862830D01*
X153070966Y-116862834D01*
X153123482Y-116937834D01*
X153206504Y-117056401D01*
X153373598Y-117223495D01*
X153431491Y-117264032D01*
X153567164Y-117359032D01*
X153567166Y-117359033D01*
X153567169Y-117359035D01*
X153781336Y-117458903D01*
X153781342Y-117458904D01*
X153781343Y-117458905D01*
X153836284Y-117473626D01*
X154009591Y-117520063D01*
X154197917Y-117536539D01*
X154244998Y-117540659D01*
X154244999Y-117540659D01*
X154245000Y-117540659D01*
X154284233Y-117537226D01*
X154480407Y-117520063D01*
X154708662Y-117458903D01*
X154922829Y-117359035D01*
X155116400Y-117223495D01*
X155283494Y-117056401D01*
X155419034Y-116862830D01*
X155518902Y-116648663D01*
X155580062Y-116420408D01*
X155600658Y-116185000D01*
X155592346Y-116089999D01*
X197469340Y-116089999D01*
X197469340Y-116090000D01*
X197489935Y-116325403D01*
X197489937Y-116325413D01*
X197551093Y-116553655D01*
X197551095Y-116553659D01*
X197551096Y-116553663D01*
X197595396Y-116648664D01*
X197650964Y-116767830D01*
X197650966Y-116767834D01*
X197759280Y-116922521D01*
X197786504Y-116961401D01*
X197953598Y-117128495D01*
X198025010Y-117178498D01*
X198147164Y-117264032D01*
X198147166Y-117264033D01*
X198147169Y-117264035D01*
X198361336Y-117363903D01*
X198589591Y-117425063D01*
X198777917Y-117441539D01*
X198824998Y-117445659D01*
X198824999Y-117445659D01*
X198825000Y-117445659D01*
X198864233Y-117442226D01*
X199060407Y-117425063D01*
X199288662Y-117363903D01*
X199502829Y-117264035D01*
X199696400Y-117128495D01*
X199863494Y-116961401D01*
X199999034Y-116767830D01*
X200098902Y-116553663D01*
X200160062Y-116325408D01*
X200176284Y-116139999D01*
X242419340Y-116139999D01*
X242419340Y-116140000D01*
X242439935Y-116375403D01*
X242439937Y-116375413D01*
X242501093Y-116603655D01*
X242501095Y-116603659D01*
X242501096Y-116603663D01*
X242589306Y-116792830D01*
X242600964Y-116817830D01*
X242600966Y-116817834D01*
X242632473Y-116862830D01*
X242736504Y-117011401D01*
X242903598Y-117178495D01*
X242967862Y-117223493D01*
X243097164Y-117314032D01*
X243097166Y-117314033D01*
X243097169Y-117314035D01*
X243311336Y-117413903D01*
X243539591Y-117475063D01*
X243727917Y-117491539D01*
X243774998Y-117495659D01*
X243774999Y-117495659D01*
X243775000Y-117495659D01*
X243814233Y-117492226D01*
X244010407Y-117475063D01*
X244238662Y-117413903D01*
X244452829Y-117314035D01*
X244646400Y-117178495D01*
X244813494Y-117011401D01*
X244949034Y-116817830D01*
X245048902Y-116603663D01*
X245110062Y-116375408D01*
X245130658Y-116140000D01*
X245110062Y-115904592D01*
X245048902Y-115676337D01*
X244949034Y-115462171D01*
X244931527Y-115437169D01*
X244813495Y-115268600D01*
X244757293Y-115212398D01*
X244691566Y-115146671D01*
X244658083Y-115085351D01*
X244663067Y-115015659D01*
X244704938Y-114959725D01*
X244735914Y-114942810D01*
X244867330Y-114893796D01*
X244982545Y-114807546D01*
X245068795Y-114692331D01*
X245119090Y-114557483D01*
X245125499Y-114497873D01*
X245125498Y-112702128D01*
X245119090Y-112642517D01*
X245113550Y-112627664D01*
X245068796Y-112507671D01*
X245068792Y-112507664D01*
X244982546Y-112392455D01*
X244982543Y-112392452D01*
X244867334Y-112306206D01*
X244867327Y-112306202D01*
X244732481Y-112255908D01*
X244732482Y-112255908D01*
X244672882Y-112249501D01*
X244672880Y-112249500D01*
X244672872Y-112249500D01*
X244672863Y-112249500D01*
X242877128Y-112249500D01*
X242877122Y-112249501D01*
X242817515Y-112255908D01*
X242682670Y-112306202D01*
X242682663Y-112306206D01*
X242567454Y-112392452D01*
X242567451Y-112392455D01*
X242481205Y-112507664D01*
X242481201Y-112507671D01*
X242430907Y-112642517D01*
X242424500Y-112702116D01*
X242424500Y-112702123D01*
X242424499Y-112702135D01*
X242424499Y-114497870D01*
X242424500Y-114497876D01*
X242430907Y-114557483D01*
X242481201Y-114692328D01*
X242481205Y-114692335D01*
X242567451Y-114807544D01*
X242567454Y-114807547D01*
X242682663Y-114893793D01*
X242682670Y-114893797D01*
X242814080Y-114942810D01*
X242870014Y-114984681D01*
X242894431Y-115050145D01*
X242879579Y-115118418D01*
X242858429Y-115146673D01*
X242736502Y-115268600D01*
X242600964Y-115462169D01*
X242600963Y-115462171D01*
X242501097Y-115676335D01*
X242501093Y-115676344D01*
X242439937Y-115904586D01*
X242439935Y-115904596D01*
X242419340Y-116139999D01*
X200176284Y-116139999D01*
X200180658Y-116090000D01*
X200160062Y-115854592D01*
X200098902Y-115626337D01*
X199999034Y-115412171D01*
X199982529Y-115388600D01*
X199863495Y-115218600D01*
X199808313Y-115163418D01*
X199741566Y-115096671D01*
X199708083Y-115035351D01*
X199713067Y-114965659D01*
X199754938Y-114909725D01*
X199785914Y-114892810D01*
X199917330Y-114843796D01*
X200032545Y-114757546D01*
X200118795Y-114642331D01*
X200169090Y-114507483D01*
X200175499Y-114447873D01*
X200175498Y-112675000D01*
X225344551Y-112675000D01*
X225364317Y-112926151D01*
X225423126Y-113171110D01*
X225519533Y-113403859D01*
X225651160Y-113618653D01*
X225651161Y-113618656D01*
X225651164Y-113618659D01*
X225814776Y-113810224D01*
X225902589Y-113885223D01*
X226006343Y-113973838D01*
X226006346Y-113973839D01*
X226221140Y-114105466D01*
X226402208Y-114180466D01*
X226453889Y-114201873D01*
X226698852Y-114260683D01*
X226950000Y-114280449D01*
X227201148Y-114260683D01*
X227446111Y-114201873D01*
X227678859Y-114105466D01*
X227893659Y-113973836D01*
X228085224Y-113810224D01*
X228248836Y-113618659D01*
X228380466Y-113403859D01*
X228476873Y-113171111D01*
X228535683Y-112926148D01*
X228555449Y-112675000D01*
X228535683Y-112423852D01*
X228476873Y-112178889D01*
X228411532Y-112021141D01*
X228380466Y-111946140D01*
X228248839Y-111731346D01*
X228248838Y-111731343D01*
X228149280Y-111614776D01*
X228085224Y-111539776D01*
X227958571Y-111431604D01*
X227893656Y-111376161D01*
X227893653Y-111376160D01*
X227678859Y-111244533D01*
X227446110Y-111148126D01*
X227201151Y-111089317D01*
X226950000Y-111069551D01*
X226698848Y-111089317D01*
X226453889Y-111148126D01*
X226221140Y-111244533D01*
X226006346Y-111376160D01*
X226006343Y-111376161D01*
X225814776Y-111539776D01*
X225651161Y-111731343D01*
X225651160Y-111731346D01*
X225519533Y-111946140D01*
X225423126Y-112178889D01*
X225364317Y-112423848D01*
X225344551Y-112675000D01*
X200175498Y-112675000D01*
X200175498Y-112652128D01*
X200169090Y-112592517D01*
X200154228Y-112552671D01*
X200118796Y-112457671D01*
X200118792Y-112457664D01*
X200032546Y-112342455D01*
X200032543Y-112342452D01*
X199917334Y-112256206D01*
X199917327Y-112256202D01*
X199782481Y-112205908D01*
X199782482Y-112205908D01*
X199722882Y-112199501D01*
X199722880Y-112199500D01*
X199722872Y-112199500D01*
X199722863Y-112199500D01*
X197927128Y-112199500D01*
X197927122Y-112199501D01*
X197867515Y-112205908D01*
X197732670Y-112256202D01*
X197732663Y-112256206D01*
X197617454Y-112342452D01*
X197617451Y-112342455D01*
X197531205Y-112457664D01*
X197531201Y-112457671D01*
X197480907Y-112592517D01*
X197477128Y-112627671D01*
X197474500Y-112652123D01*
X197474499Y-112652135D01*
X197474499Y-114447870D01*
X197474500Y-114447876D01*
X197480907Y-114507483D01*
X197531201Y-114642328D01*
X197531205Y-114642335D01*
X197617451Y-114757544D01*
X197617454Y-114757547D01*
X197732663Y-114843793D01*
X197732670Y-114843797D01*
X197864080Y-114892810D01*
X197920014Y-114934681D01*
X197944431Y-115000145D01*
X197929579Y-115068418D01*
X197908429Y-115096673D01*
X197786502Y-115218600D01*
X197650964Y-115412169D01*
X197650963Y-115412171D01*
X197627649Y-115462169D01*
X197552986Y-115622285D01*
X197551097Y-115626335D01*
X197551093Y-115626344D01*
X197489937Y-115854586D01*
X197489935Y-115854596D01*
X197469340Y-116089999D01*
X155592346Y-116089999D01*
X155580062Y-115949592D01*
X155518902Y-115721337D01*
X155419034Y-115507171D01*
X155387523Y-115462169D01*
X155283495Y-115313600D01*
X155236568Y-115266673D01*
X155161566Y-115191671D01*
X155128083Y-115130351D01*
X155133067Y-115060659D01*
X155174938Y-115004725D01*
X155205914Y-114987810D01*
X155337330Y-114938796D01*
X155452545Y-114852546D01*
X155538795Y-114737331D01*
X155589090Y-114602483D01*
X155595499Y-114542873D01*
X155595498Y-112747128D01*
X155589090Y-112687517D01*
X155585215Y-112677128D01*
X155538796Y-112552671D01*
X155538792Y-112552664D01*
X155452546Y-112437455D01*
X155452543Y-112437452D01*
X155337334Y-112351206D01*
X155337327Y-112351202D01*
X155202481Y-112300908D01*
X155202482Y-112300908D01*
X155142882Y-112294501D01*
X155142880Y-112294500D01*
X155142872Y-112294500D01*
X155142863Y-112294500D01*
X153347128Y-112294500D01*
X153347122Y-112294501D01*
X153287515Y-112300908D01*
X153152670Y-112351202D01*
X153152663Y-112351206D01*
X153037454Y-112437452D01*
X153037451Y-112437455D01*
X152951205Y-112552664D01*
X152951201Y-112552671D01*
X152900907Y-112687517D01*
X152899336Y-112702135D01*
X152894500Y-112747123D01*
X152894499Y-112747135D01*
X152894499Y-114542870D01*
X152894500Y-114542876D01*
X152900907Y-114602483D01*
X152951201Y-114737328D01*
X152951205Y-114737335D01*
X153037451Y-114852544D01*
X153037454Y-114852547D01*
X153152663Y-114938793D01*
X153152670Y-114938797D01*
X153284080Y-114987810D01*
X153340014Y-115029681D01*
X153364431Y-115095145D01*
X153349579Y-115163418D01*
X153328429Y-115191673D01*
X153206502Y-115313600D01*
X153070964Y-115507169D01*
X153070963Y-115507171D01*
X152971097Y-115721335D01*
X152971093Y-115721344D01*
X152909937Y-115949586D01*
X152909935Y-115949596D01*
X152889340Y-116184999D01*
X110369096Y-116184999D01*
X110355062Y-116024592D01*
X110293902Y-115796337D01*
X110194034Y-115582171D01*
X110141517Y-115507169D01*
X110058495Y-115388600D01*
X110058494Y-115388599D01*
X109936566Y-115266671D01*
X109903083Y-115205351D01*
X109908067Y-115135659D01*
X109949938Y-115079725D01*
X109980914Y-115062810D01*
X110112330Y-115013796D01*
X110227545Y-114927546D01*
X110313795Y-114812331D01*
X110364090Y-114677483D01*
X110370499Y-114617873D01*
X110370498Y-112822128D01*
X110364090Y-112762517D01*
X110359421Y-112750000D01*
X110313796Y-112627671D01*
X110313792Y-112627664D01*
X110227546Y-112512455D01*
X110227543Y-112512452D01*
X110112334Y-112426206D01*
X110112327Y-112426202D01*
X109977481Y-112375908D01*
X109977482Y-112375908D01*
X109917882Y-112369501D01*
X109917880Y-112369500D01*
X109917872Y-112369500D01*
X109917863Y-112369500D01*
X108122128Y-112369500D01*
X108122122Y-112369501D01*
X108062515Y-112375908D01*
X107927670Y-112426202D01*
X107927663Y-112426206D01*
X107812454Y-112512452D01*
X107812451Y-112512455D01*
X107726205Y-112627664D01*
X107726201Y-112627671D01*
X107675907Y-112762517D01*
X107669500Y-112822116D01*
X107669500Y-112822123D01*
X107669499Y-112822135D01*
X107669499Y-114617870D01*
X107669500Y-114617876D01*
X107675907Y-114677483D01*
X107726201Y-114812328D01*
X107726205Y-114812335D01*
X107812451Y-114927544D01*
X107812454Y-114927547D01*
X107927663Y-115013793D01*
X107927670Y-115013797D01*
X108059080Y-115062810D01*
X108115014Y-115104681D01*
X108139431Y-115170145D01*
X108124579Y-115238418D01*
X108103429Y-115266673D01*
X107981502Y-115388600D01*
X107845964Y-115582169D01*
X107845963Y-115582171D01*
X107746097Y-115796335D01*
X107746093Y-115796344D01*
X107684937Y-116024586D01*
X107684935Y-116024596D01*
X107664340Y-116259999D01*
X65542973Y-116259999D01*
X65555659Y-116115000D01*
X65535063Y-115879592D01*
X65473903Y-115651337D01*
X65374035Y-115437171D01*
X65358755Y-115415349D01*
X65238496Y-115243600D01*
X65186569Y-115191673D01*
X65116567Y-115121671D01*
X65083084Y-115060351D01*
X65088068Y-114990659D01*
X65129939Y-114934725D01*
X65160915Y-114917810D01*
X65292331Y-114868796D01*
X65407546Y-114782546D01*
X65493796Y-114667331D01*
X65544091Y-114532483D01*
X65550500Y-114472873D01*
X65550499Y-112750000D01*
X70594551Y-112750000D01*
X70614317Y-113001151D01*
X70673126Y-113246110D01*
X70769533Y-113478859D01*
X70901160Y-113693653D01*
X70901161Y-113693656D01*
X70901164Y-113693659D01*
X71064776Y-113885224D01*
X71168530Y-113973838D01*
X71256343Y-114048838D01*
X71256346Y-114048839D01*
X71471140Y-114180466D01*
X71664800Y-114260682D01*
X71703889Y-114276873D01*
X71948852Y-114335683D01*
X72200000Y-114355449D01*
X72451148Y-114335683D01*
X72696111Y-114276873D01*
X72928859Y-114180466D01*
X73143659Y-114048836D01*
X73335224Y-113885224D01*
X73498836Y-113693659D01*
X73630466Y-113478859D01*
X73726873Y-113246111D01*
X73785683Y-113001148D01*
X73805449Y-112750000D01*
X73785683Y-112498852D01*
X73726873Y-112253889D01*
X73704345Y-112199501D01*
X73630466Y-112021140D01*
X73498839Y-111806346D01*
X73498838Y-111806343D01*
X73434784Y-111731346D01*
X73335224Y-111614776D01*
X73155677Y-111461428D01*
X73143656Y-111451161D01*
X73143653Y-111451160D01*
X72928859Y-111319533D01*
X72696110Y-111223126D01*
X72451151Y-111164317D01*
X72200000Y-111144551D01*
X71948848Y-111164317D01*
X71703889Y-111223126D01*
X71471140Y-111319533D01*
X71256346Y-111451160D01*
X71256343Y-111451161D01*
X71064776Y-111614776D01*
X70901161Y-111806343D01*
X70901160Y-111806346D01*
X70769533Y-112021140D01*
X70673126Y-112253889D01*
X70614317Y-112498848D01*
X70594551Y-112750000D01*
X65550499Y-112750000D01*
X65550499Y-112677128D01*
X65544091Y-112617517D01*
X65535632Y-112594838D01*
X65493797Y-112482671D01*
X65493793Y-112482664D01*
X65407547Y-112367455D01*
X65407544Y-112367452D01*
X65292335Y-112281206D01*
X65292328Y-112281202D01*
X65157482Y-112230908D01*
X65157483Y-112230908D01*
X65097883Y-112224501D01*
X65097881Y-112224500D01*
X65097873Y-112224500D01*
X65097864Y-112224500D01*
X63302129Y-112224500D01*
X63302123Y-112224501D01*
X63242516Y-112230908D01*
X63107671Y-112281202D01*
X63107664Y-112281206D01*
X62992455Y-112367452D01*
X62992452Y-112367455D01*
X62906206Y-112482664D01*
X62906202Y-112482671D01*
X62855908Y-112617517D01*
X62849501Y-112677116D01*
X62849501Y-112677123D01*
X62849500Y-112677135D01*
X62849500Y-114472870D01*
X62849501Y-114472876D01*
X62855908Y-114532483D01*
X62906202Y-114667328D01*
X62906206Y-114667335D01*
X62992452Y-114782544D01*
X62992455Y-114782547D01*
X63107664Y-114868793D01*
X63107671Y-114868797D01*
X63239081Y-114917810D01*
X63295015Y-114959681D01*
X63319432Y-115025145D01*
X63304580Y-115093418D01*
X63283430Y-115121673D01*
X63161503Y-115243600D01*
X63025965Y-115437169D01*
X63025964Y-115437171D01*
X62926098Y-115651335D01*
X62926094Y-115651344D01*
X62864938Y-115879586D01*
X62864936Y-115879596D01*
X62844341Y-116114999D01*
X37277279Y-116114999D01*
X37343149Y-116016417D01*
X37422338Y-115825239D01*
X37462708Y-115622284D01*
X37462708Y-115415354D01*
X37422338Y-115212399D01*
X37343149Y-115021221D01*
X37228185Y-114849164D01*
X37228183Y-114849161D01*
X37081865Y-114702843D01*
X36954697Y-114617873D01*
X36909806Y-114587878D01*
X36836426Y-114557483D01*
X36718628Y-114508689D01*
X36718620Y-114508687D01*
X36515677Y-114468319D01*
X36515673Y-114468319D01*
X36308743Y-114468319D01*
X36308738Y-114468319D01*
X36105795Y-114508687D01*
X36105787Y-114508689D01*
X35914611Y-114587877D01*
X35742550Y-114702843D01*
X35596232Y-114849161D01*
X35481266Y-115021222D01*
X35402078Y-115212398D01*
X35402076Y-115212406D01*
X35361708Y-115415349D01*
X31889520Y-115415349D01*
X35910487Y-109714051D01*
X39353800Y-109714051D01*
X39353800Y-109920990D01*
X39394168Y-110123933D01*
X39394170Y-110123941D01*
X39406958Y-110154815D01*
X39473359Y-110315119D01*
X39530841Y-110401147D01*
X39588324Y-110487178D01*
X39734642Y-110633496D01*
X39734645Y-110633498D01*
X39906702Y-110748462D01*
X40097880Y-110827651D01*
X40300830Y-110868020D01*
X40300834Y-110868021D01*
X40300835Y-110868021D01*
X40507766Y-110868021D01*
X40507767Y-110868020D01*
X40710720Y-110827651D01*
X40901898Y-110748462D01*
X41073955Y-110633498D01*
X41220277Y-110487176D01*
X41335241Y-110315119D01*
X41414430Y-110123941D01*
X41454800Y-109920986D01*
X41454800Y-109714056D01*
X41414430Y-109511101D01*
X41335241Y-109319923D01*
X41220277Y-109147866D01*
X41220275Y-109147863D01*
X41073957Y-109001545D01*
X40987926Y-108944062D01*
X40901898Y-108886580D01*
X40869405Y-108873121D01*
X40710720Y-108807391D01*
X40710712Y-108807389D01*
X40507769Y-108767021D01*
X40507765Y-108767021D01*
X40300835Y-108767021D01*
X40300830Y-108767021D01*
X40097887Y-108807389D01*
X40097879Y-108807391D01*
X39906703Y-108886579D01*
X39734642Y-109001545D01*
X39588324Y-109147863D01*
X39473358Y-109319924D01*
X39394170Y-109511100D01*
X39394168Y-109511108D01*
X39353800Y-109714051D01*
X35910487Y-109714051D01*
X36587546Y-108754054D01*
X44049498Y-108754054D01*
X44055922Y-108778029D01*
X44090423Y-108906785D01*
X44106113Y-108933961D01*
X44119358Y-108956900D01*
X44119359Y-108956904D01*
X44119360Y-108956904D01*
X44145132Y-109001544D01*
X44169479Y-109043714D01*
X44169481Y-109043717D01*
X44288349Y-109162585D01*
X44288355Y-109162590D01*
X46265139Y-111139374D01*
X46265149Y-111139385D01*
X46269479Y-111143715D01*
X46269480Y-111143716D01*
X46381284Y-111255520D01*
X46381286Y-111255521D01*
X46381290Y-111255524D01*
X46518209Y-111334573D01*
X46518216Y-111334577D01*
X46630019Y-111364534D01*
X46670942Y-111375500D01*
X46670943Y-111375500D01*
X47663331Y-111375500D01*
X47663347Y-111375501D01*
X47670943Y-111375501D01*
X47829054Y-111375501D01*
X47829057Y-111375501D01*
X47981785Y-111334577D01*
X48031904Y-111305639D01*
X48118716Y-111255520D01*
X48230520Y-111143716D01*
X48230520Y-111143714D01*
X48240728Y-111133507D01*
X48240730Y-111133504D01*
X49026405Y-110347829D01*
X253532408Y-110347829D01*
X253532408Y-110554768D01*
X253572776Y-110757711D01*
X253572778Y-110757719D01*
X253651966Y-110948895D01*
X253766932Y-111120956D01*
X253913250Y-111267274D01*
X253913253Y-111267276D01*
X254085310Y-111382240D01*
X254276488Y-111461429D01*
X254479438Y-111501798D01*
X254479442Y-111501799D01*
X254479443Y-111501799D01*
X254686374Y-111501799D01*
X254686375Y-111501798D01*
X254889328Y-111461429D01*
X255080506Y-111382240D01*
X255252563Y-111267276D01*
X255398885Y-111120954D01*
X255513849Y-110948897D01*
X255593038Y-110757719D01*
X255633408Y-110554764D01*
X255633408Y-110347834D01*
X255593038Y-110144879D01*
X255513849Y-109953701D01*
X255398885Y-109781644D01*
X255398883Y-109781641D01*
X255252565Y-109635323D01*
X255100007Y-109533388D01*
X255080506Y-109520358D01*
X255058155Y-109511100D01*
X254889328Y-109441169D01*
X254889320Y-109441167D01*
X254686377Y-109400799D01*
X254686373Y-109400799D01*
X254479443Y-109400799D01*
X254479438Y-109400799D01*
X254276495Y-109441167D01*
X254276487Y-109441169D01*
X254085311Y-109520357D01*
X253913250Y-109635323D01*
X253766932Y-109781641D01*
X253651966Y-109953702D01*
X253572778Y-110144878D01*
X253572776Y-110144886D01*
X253532408Y-110347829D01*
X49026405Y-110347829D01*
X51143713Y-108230521D01*
X51143716Y-108230520D01*
X51255520Y-108118716D01*
X51305639Y-108031904D01*
X51334577Y-107981785D01*
X51375501Y-107829057D01*
X51375501Y-107670943D01*
X51375501Y-107663348D01*
X51375500Y-107663330D01*
X51375500Y-106376800D01*
X51395185Y-106309761D01*
X51397429Y-106306389D01*
X51399818Y-106302930D01*
X51460140Y-106143872D01*
X51480645Y-105975000D01*
X51460140Y-105806128D01*
X51442695Y-105760130D01*
X51433691Y-105736386D01*
X51399818Y-105647070D01*
X51303183Y-105507071D01*
X51175852Y-105394266D01*
X51175849Y-105394263D01*
X51025226Y-105315210D01*
X50860056Y-105274500D01*
X50689944Y-105274500D01*
X50524773Y-105315210D01*
X50374150Y-105394263D01*
X50246816Y-105507072D01*
X50150182Y-105647068D01*
X50089860Y-105806125D01*
X50089859Y-105806130D01*
X50069355Y-105975000D01*
X50089859Y-106143869D01*
X50089860Y-106143874D01*
X50135476Y-106264153D01*
X50150182Y-106302930D01*
X50152549Y-106306360D01*
X50153509Y-106309269D01*
X50153668Y-106309572D01*
X50153617Y-106309598D01*
X50174433Y-106372713D01*
X50174500Y-106376800D01*
X50174500Y-107449903D01*
X50154815Y-107516942D01*
X50138181Y-107537584D01*
X48723808Y-108951956D01*
X48662485Y-108985441D01*
X48592793Y-108980457D01*
X48536860Y-108938585D01*
X48512443Y-108873121D01*
X48515067Y-108837435D01*
X48528237Y-108778029D01*
X48528237Y-108778026D01*
X48532534Y-108581087D01*
X48498328Y-108387101D01*
X48498328Y-108387099D01*
X48426933Y-108203507D01*
X48321098Y-108037382D01*
X48184876Y-107895082D01*
X48063241Y-107809913D01*
X47633059Y-108424277D01*
X47223483Y-108137489D01*
X47657107Y-107518211D01*
X47711684Y-107474586D01*
X47781182Y-107467392D01*
X47829806Y-107487759D01*
X47902179Y-107538435D01*
X48016312Y-107455513D01*
X48016314Y-107455512D01*
X48132357Y-107326633D01*
X48219068Y-107176445D01*
X48272658Y-107011511D01*
X48272658Y-107011509D01*
X48279264Y-106948658D01*
X48279263Y-106948657D01*
X47626769Y-107063710D01*
X47557330Y-107055966D01*
X47524518Y-107029309D01*
X47574533Y-107008593D01*
X47630794Y-106952332D01*
X47661242Y-106878823D01*
X47661242Y-106799259D01*
X47630794Y-106725750D01*
X47574533Y-106669489D01*
X47573924Y-106669236D01*
X47675685Y-106623930D01*
X47791671Y-106539660D01*
X47843018Y-106517865D01*
X48192826Y-106456185D01*
X48132356Y-106351446D01*
X48075065Y-106287818D01*
X48044835Y-106224827D01*
X48053460Y-106155491D01*
X48098202Y-106101826D01*
X48164854Y-106080868D01*
X48217651Y-106091567D01*
X48265854Y-106113029D01*
X48265860Y-106113031D01*
X48435595Y-106149109D01*
X48435596Y-106149109D01*
X48609121Y-106149109D01*
X48609123Y-106149109D01*
X48778858Y-106113031D01*
X48778860Y-106113029D01*
X48778863Y-106113029D01*
X48858293Y-106077664D01*
X48937383Y-106042451D01*
X49077769Y-105940454D01*
X49193881Y-105811498D01*
X49280645Y-105661220D01*
X49334267Y-105496185D01*
X49335861Y-105481017D01*
X49362443Y-105416403D01*
X49391414Y-105391540D01*
X49390986Y-105390950D01*
X49396244Y-105387130D01*
X49536630Y-105285133D01*
X49652742Y-105156177D01*
X49739506Y-105005899D01*
X49793128Y-104840864D01*
X49793487Y-104837455D01*
X49794722Y-104825697D01*
X49821303Y-104761081D01*
X49850275Y-104736218D01*
X49849847Y-104735628D01*
X49862818Y-104726204D01*
X49995491Y-104629811D01*
X50111603Y-104500855D01*
X50198367Y-104350577D01*
X50251989Y-104185542D01*
X50253583Y-104170373D01*
X50280164Y-104105758D01*
X50309136Y-104080897D01*
X50308707Y-104080306D01*
X50313965Y-104076486D01*
X50454351Y-103974489D01*
X50570463Y-103845533D01*
X50657227Y-103695255D01*
X50701173Y-103559999D01*
X67919341Y-103559999D01*
X67919341Y-103560000D01*
X67939936Y-103795403D01*
X67939938Y-103795413D01*
X68001094Y-104023655D01*
X68001096Y-104023659D01*
X68001097Y-104023663D01*
X68059031Y-104147902D01*
X68100965Y-104237830D01*
X68100967Y-104237834D01*
X68197994Y-104376402D01*
X68236501Y-104431396D01*
X68236506Y-104431402D01*
X68358430Y-104553326D01*
X68391915Y-104614649D01*
X68386931Y-104684341D01*
X68345059Y-104740274D01*
X68314083Y-104757189D01*
X68182669Y-104806203D01*
X68182664Y-104806206D01*
X68067455Y-104892452D01*
X68067452Y-104892455D01*
X67981206Y-105007664D01*
X67981202Y-105007671D01*
X67930908Y-105142517D01*
X67929440Y-105156177D01*
X67924501Y-105202123D01*
X67924500Y-105202135D01*
X67924500Y-106997870D01*
X67924501Y-106997876D01*
X67930908Y-107057483D01*
X67981202Y-107192328D01*
X67981206Y-107192335D01*
X68067452Y-107307544D01*
X68067455Y-107307547D01*
X68182664Y-107393793D01*
X68182671Y-107393797D01*
X68317517Y-107444091D01*
X68317516Y-107444091D01*
X68324444Y-107444835D01*
X68377127Y-107450500D01*
X70172872Y-107450499D01*
X70232483Y-107444091D01*
X70367331Y-107393796D01*
X70482546Y-107307546D01*
X70568796Y-107192331D01*
X70619091Y-107057483D01*
X70625500Y-106997873D01*
X70625499Y-105202128D01*
X70619091Y-105142517D01*
X70611486Y-105122128D01*
X70568797Y-105007671D01*
X70568793Y-105007664D01*
X70482547Y-104892455D01*
X70482544Y-104892452D01*
X70367335Y-104806206D01*
X70367328Y-104806202D01*
X70235917Y-104757189D01*
X70179983Y-104715318D01*
X70155566Y-104649853D01*
X70170418Y-104581580D01*
X70191563Y-104553332D01*
X70313495Y-104431401D01*
X70449035Y-104237830D01*
X70548903Y-104023663D01*
X70610063Y-103795408D01*
X70630659Y-103560000D01*
X70625847Y-103504999D01*
X112999341Y-103504999D01*
X112999341Y-103505000D01*
X113019936Y-103740403D01*
X113019938Y-103740413D01*
X113081094Y-103968655D01*
X113081096Y-103968659D01*
X113081097Y-103968663D01*
X113164678Y-104147902D01*
X113180965Y-104182830D01*
X113180967Y-104182834D01*
X113281490Y-104326395D01*
X113316501Y-104376396D01*
X113316506Y-104376402D01*
X113438430Y-104498326D01*
X113471915Y-104559649D01*
X113466931Y-104629341D01*
X113425059Y-104685274D01*
X113394083Y-104702189D01*
X113262669Y-104751203D01*
X113262664Y-104751206D01*
X113147455Y-104837452D01*
X113147452Y-104837455D01*
X113061206Y-104952664D01*
X113061202Y-104952671D01*
X113010908Y-105087517D01*
X113004501Y-105147116D01*
X113004501Y-105147123D01*
X113004500Y-105147135D01*
X113004500Y-106942870D01*
X113004501Y-106942876D01*
X113010908Y-107002483D01*
X113061202Y-107137328D01*
X113061206Y-107137335D01*
X113147452Y-107252544D01*
X113147455Y-107252547D01*
X113262664Y-107338793D01*
X113262671Y-107338797D01*
X113397517Y-107389091D01*
X113397516Y-107389091D01*
X113404444Y-107389835D01*
X113457127Y-107395500D01*
X115252872Y-107395499D01*
X115312483Y-107389091D01*
X115447331Y-107338796D01*
X115562546Y-107252546D01*
X115648796Y-107137331D01*
X115699091Y-107002483D01*
X115705500Y-106942873D01*
X115705499Y-105147128D01*
X115699091Y-105087517D01*
X115689766Y-105062516D01*
X115648797Y-104952671D01*
X115648793Y-104952664D01*
X115562547Y-104837455D01*
X115562544Y-104837452D01*
X115447335Y-104751206D01*
X115447328Y-104751202D01*
X115315917Y-104702189D01*
X115259983Y-104660318D01*
X115235566Y-104594853D01*
X115250418Y-104526580D01*
X115271563Y-104498332D01*
X115393495Y-104376401D01*
X115529035Y-104182830D01*
X115628903Y-103968663D01*
X115690063Y-103740408D01*
X115710659Y-103505000D01*
X115708472Y-103479999D01*
X157874341Y-103479999D01*
X157874341Y-103480000D01*
X157894936Y-103715403D01*
X157894938Y-103715413D01*
X157956094Y-103943655D01*
X157956096Y-103943659D01*
X157956097Y-103943663D01*
X158055965Y-104157830D01*
X158055967Y-104157834D01*
X158123121Y-104253739D01*
X158191501Y-104351396D01*
X158191506Y-104351402D01*
X158313430Y-104473326D01*
X158346915Y-104534649D01*
X158341931Y-104604341D01*
X158300059Y-104660274D01*
X158269083Y-104677189D01*
X158137669Y-104726203D01*
X158137664Y-104726206D01*
X158022455Y-104812452D01*
X158022452Y-104812455D01*
X157936206Y-104927664D01*
X157936202Y-104927671D01*
X157885908Y-105062517D01*
X157882187Y-105097135D01*
X157879501Y-105122123D01*
X157879500Y-105122135D01*
X157879500Y-106917870D01*
X157879501Y-106917876D01*
X157885908Y-106977483D01*
X157936202Y-107112328D01*
X157936206Y-107112335D01*
X158022452Y-107227544D01*
X158022455Y-107227547D01*
X158137664Y-107313793D01*
X158137671Y-107313797D01*
X158272517Y-107364091D01*
X158272516Y-107364091D01*
X158279444Y-107364835D01*
X158332127Y-107370500D01*
X160127872Y-107370499D01*
X160187483Y-107364091D01*
X160322331Y-107313796D01*
X160437546Y-107227546D01*
X160523796Y-107112331D01*
X160574091Y-106977483D01*
X160580500Y-106917873D01*
X160580499Y-105122128D01*
X160574091Y-105062517D01*
X160564766Y-105037516D01*
X160523797Y-104927671D01*
X160523793Y-104927664D01*
X160437547Y-104812455D01*
X160437544Y-104812452D01*
X160322335Y-104726206D01*
X160322328Y-104726202D01*
X160190917Y-104677189D01*
X160134983Y-104635318D01*
X160110566Y-104569853D01*
X160125418Y-104501580D01*
X160146563Y-104473332D01*
X160268495Y-104351401D01*
X160404035Y-104157830D01*
X160503903Y-103943663D01*
X160565063Y-103715408D01*
X160585659Y-103480000D01*
X160583472Y-103454999D01*
X202674341Y-103454999D01*
X202674341Y-103455000D01*
X202694936Y-103690403D01*
X202694938Y-103690413D01*
X202756094Y-103918655D01*
X202756096Y-103918659D01*
X202756097Y-103918663D01*
X202831491Y-104080345D01*
X202855965Y-104132830D01*
X202855967Y-104132834D01*
X202939690Y-104252402D01*
X202991501Y-104326396D01*
X202991506Y-104326402D01*
X203113430Y-104448326D01*
X203146915Y-104509649D01*
X203141931Y-104579341D01*
X203100059Y-104635274D01*
X203069083Y-104652189D01*
X202937669Y-104701203D01*
X202937664Y-104701206D01*
X202822455Y-104787452D01*
X202822452Y-104787455D01*
X202736206Y-104902664D01*
X202736202Y-104902671D01*
X202685908Y-105037517D01*
X202680533Y-105087516D01*
X202679501Y-105097123D01*
X202679500Y-105097135D01*
X202679500Y-106892870D01*
X202679501Y-106892876D01*
X202685908Y-106952483D01*
X202736202Y-107087328D01*
X202736206Y-107087335D01*
X202822452Y-107202544D01*
X202822455Y-107202547D01*
X202937664Y-107288793D01*
X202937671Y-107288797D01*
X203072517Y-107339091D01*
X203072516Y-107339091D01*
X203079444Y-107339835D01*
X203132127Y-107345500D01*
X204927872Y-107345499D01*
X204987483Y-107339091D01*
X205122331Y-107288796D01*
X205237546Y-107202546D01*
X205323796Y-107087331D01*
X205374091Y-106952483D01*
X205380500Y-106892873D01*
X205380499Y-105097128D01*
X205374091Y-105037517D01*
X205362959Y-105007671D01*
X205323797Y-104902671D01*
X205323793Y-104902664D01*
X205237547Y-104787455D01*
X205237544Y-104787452D01*
X205122335Y-104701206D01*
X205122328Y-104701202D01*
X204990917Y-104652189D01*
X204983357Y-104646530D01*
X257524500Y-104646530D01*
X257524500Y-104853469D01*
X257564868Y-105056412D01*
X257564870Y-105056420D01*
X257644058Y-105247596D01*
X257759024Y-105419657D01*
X257905342Y-105565975D01*
X257905345Y-105565977D01*
X258077402Y-105680941D01*
X258268580Y-105760130D01*
X258471530Y-105800499D01*
X258471534Y-105800500D01*
X258471535Y-105800500D01*
X258678466Y-105800500D01*
X258678467Y-105800499D01*
X258881420Y-105760130D01*
X259072598Y-105680941D01*
X259244655Y-105565977D01*
X259390977Y-105419655D01*
X259505941Y-105247598D01*
X259585130Y-105056420D01*
X259625500Y-104853465D01*
X259625500Y-104646535D01*
X259585130Y-104443580D01*
X259505941Y-104252402D01*
X259390977Y-104080345D01*
X259390975Y-104080342D01*
X259244657Y-103934024D01*
X259073515Y-103819672D01*
X259072598Y-103819059D01*
X259038712Y-103805023D01*
X258881420Y-103739870D01*
X258881412Y-103739868D01*
X258678469Y-103699500D01*
X258678465Y-103699500D01*
X258471535Y-103699500D01*
X258471530Y-103699500D01*
X258268587Y-103739868D01*
X258268579Y-103739870D01*
X258077403Y-103819058D01*
X257905342Y-103934024D01*
X257759024Y-104080342D01*
X257644058Y-104252403D01*
X257564870Y-104443579D01*
X257564868Y-104443587D01*
X257524500Y-104646530D01*
X204983357Y-104646530D01*
X204934983Y-104610318D01*
X204910566Y-104544853D01*
X204925418Y-104476580D01*
X204946563Y-104448332D01*
X205068495Y-104326401D01*
X205204035Y-104132830D01*
X205303903Y-103918663D01*
X205365063Y-103690408D01*
X205385659Y-103455000D01*
X205365063Y-103219592D01*
X205303903Y-102991337D01*
X205204035Y-102777171D01*
X205178568Y-102740799D01*
X205068494Y-102583597D01*
X204901402Y-102416506D01*
X204901395Y-102416501D01*
X204707834Y-102280967D01*
X204707830Y-102280965D01*
X204707828Y-102280964D01*
X204493663Y-102181097D01*
X204493659Y-102181096D01*
X204493655Y-102181094D01*
X204265413Y-102119938D01*
X204265403Y-102119936D01*
X204030001Y-102099341D01*
X204029999Y-102099341D01*
X203794596Y-102119936D01*
X203794586Y-102119938D01*
X203566344Y-102181094D01*
X203566335Y-102181098D01*
X203352171Y-102280964D01*
X203352169Y-102280965D01*
X203158597Y-102416505D01*
X202991505Y-102583597D01*
X202855965Y-102777169D01*
X202855964Y-102777171D01*
X202756098Y-102991335D01*
X202756094Y-102991344D01*
X202694938Y-103219586D01*
X202694936Y-103219596D01*
X202674341Y-103454999D01*
X160583472Y-103454999D01*
X160565063Y-103244592D01*
X160503903Y-103016337D01*
X160404035Y-102802171D01*
X160399654Y-102795913D01*
X160268494Y-102608597D01*
X160101402Y-102441506D01*
X160101395Y-102441501D01*
X159907834Y-102305967D01*
X159907830Y-102305965D01*
X159875461Y-102290871D01*
X159693663Y-102206097D01*
X159693659Y-102206096D01*
X159693655Y-102206094D01*
X159465413Y-102144938D01*
X159465403Y-102144936D01*
X159230001Y-102124341D01*
X159229999Y-102124341D01*
X158994596Y-102144936D01*
X158994586Y-102144938D01*
X158766344Y-102206094D01*
X158766335Y-102206098D01*
X158552171Y-102305964D01*
X158552169Y-102305965D01*
X158358597Y-102441505D01*
X158191505Y-102608597D01*
X158055965Y-102802169D01*
X158055964Y-102802171D01*
X157956098Y-103016335D01*
X157956094Y-103016344D01*
X157894938Y-103244586D01*
X157894936Y-103244596D01*
X157874341Y-103479999D01*
X115708472Y-103479999D01*
X115690063Y-103269592D01*
X115628903Y-103041337D01*
X115529035Y-102827171D01*
X115514216Y-102806006D01*
X115393494Y-102633597D01*
X115226402Y-102466506D01*
X115226395Y-102466501D01*
X115218607Y-102461048D01*
X115111381Y-102385967D01*
X115032834Y-102330967D01*
X115032830Y-102330965D01*
X114989522Y-102310770D01*
X114818663Y-102231097D01*
X114818659Y-102231096D01*
X114818655Y-102231094D01*
X114590413Y-102169938D01*
X114590403Y-102169936D01*
X114355001Y-102149341D01*
X114354999Y-102149341D01*
X114119596Y-102169936D01*
X114119586Y-102169938D01*
X113891344Y-102231094D01*
X113891335Y-102231098D01*
X113677171Y-102330964D01*
X113677169Y-102330965D01*
X113483597Y-102466505D01*
X113316505Y-102633597D01*
X113180965Y-102827169D01*
X113180964Y-102827171D01*
X113081098Y-103041335D01*
X113081094Y-103041344D01*
X113019938Y-103269586D01*
X113019936Y-103269596D01*
X112999341Y-103504999D01*
X70625847Y-103504999D01*
X70610063Y-103324592D01*
X70563626Y-103151285D01*
X70548905Y-103096344D01*
X70548904Y-103096343D01*
X70548903Y-103096337D01*
X70449035Y-102882171D01*
X70440342Y-102869755D01*
X70313494Y-102688597D01*
X70146402Y-102521506D01*
X70146395Y-102521501D01*
X69952834Y-102385967D01*
X69952830Y-102385965D01*
X69952828Y-102385964D01*
X69738663Y-102286097D01*
X69738659Y-102286096D01*
X69738655Y-102286094D01*
X69510413Y-102224938D01*
X69510403Y-102224936D01*
X69275001Y-102204341D01*
X69274999Y-102204341D01*
X69039596Y-102224936D01*
X69039586Y-102224938D01*
X68811344Y-102286094D01*
X68811337Y-102286096D01*
X68811337Y-102286097D01*
X68801099Y-102290871D01*
X68597171Y-102385964D01*
X68597169Y-102385965D01*
X68403597Y-102521505D01*
X68236505Y-102688597D01*
X68100965Y-102882169D01*
X68100964Y-102882171D01*
X68001098Y-103096335D01*
X68001094Y-103096344D01*
X67939938Y-103324586D01*
X67939936Y-103324596D01*
X67919341Y-103559999D01*
X50701173Y-103559999D01*
X50710849Y-103530220D01*
X50728988Y-103357644D01*
X50710849Y-103185068D01*
X50664149Y-103041337D01*
X50657228Y-103020035D01*
X50614595Y-102946193D01*
X50570463Y-102869755D01*
X50513064Y-102806006D01*
X50482835Y-102743015D01*
X50491461Y-102673679D01*
X50536202Y-102620014D01*
X50602855Y-102599057D01*
X50655651Y-102609756D01*
X50703714Y-102631155D01*
X50703718Y-102631156D01*
X50850827Y-102662425D01*
X50788312Y-102307883D01*
X50792496Y-102248037D01*
X50825736Y-102145735D01*
X50840478Y-102005475D01*
X50846768Y-102011765D01*
X50920277Y-102042213D01*
X50999841Y-102042213D01*
X51073350Y-102011765D01*
X51129611Y-101955504D01*
X51160059Y-101881995D01*
X51160059Y-101833337D01*
X51207813Y-101872134D01*
X51227793Y-101920917D01*
X51343081Y-102574753D01*
X51343082Y-102574754D01*
X51374829Y-102560619D01*
X51515133Y-102458682D01*
X51631175Y-102329805D01*
X51717883Y-102179622D01*
X51717885Y-102179618D01*
X51751601Y-102075849D01*
X52078277Y-102075849D01*
X52199914Y-102161020D01*
X52380216Y-102240355D01*
X52572531Y-102282990D01*
X52769470Y-102287287D01*
X52963455Y-102253081D01*
X52963461Y-102253080D01*
X53147047Y-102181687D01*
X53147049Y-102181686D01*
X53313178Y-102075850D01*
X53343882Y-102046456D01*
X52508458Y-101461486D01*
X52078277Y-102075849D01*
X51751601Y-102075849D01*
X51770140Y-102018791D01*
X51695711Y-101966675D01*
X51652086Y-101912098D01*
X51644894Y-101842599D01*
X51665260Y-101793977D01*
X52098883Y-101174698D01*
X52098882Y-101174697D01*
X51757517Y-100935671D01*
X51946482Y-100935671D01*
X51963753Y-101033616D01*
X52017191Y-101117496D01*
X52590153Y-101518688D01*
X52687252Y-101540215D01*
X52785197Y-101522944D01*
X52869078Y-101469506D01*
X52926123Y-101388036D01*
X52947650Y-101290937D01*
X52930379Y-101192992D01*
X52876941Y-101109112D01*
X52795245Y-101051908D01*
X52795247Y-101051908D01*
X52795248Y-101051909D01*
X53630671Y-101636879D01*
X53647788Y-101597977D01*
X53647791Y-101597970D01*
X53690425Y-101405657D01*
X53694722Y-101208719D01*
X53660516Y-101014733D01*
X53660516Y-101014731D01*
X53589121Y-100831139D01*
X53483286Y-100665014D01*
X53347066Y-100522717D01*
X53225428Y-100437545D01*
X52795247Y-101051908D01*
X52795245Y-101051908D01*
X52303979Y-100707920D01*
X52206880Y-100686393D01*
X52108935Y-100703664D01*
X52025055Y-100757102D01*
X51968009Y-100838572D01*
X51946482Y-100935671D01*
X51757517Y-100935671D01*
X51290687Y-100608793D01*
X51254424Y-100569219D01*
X51234331Y-100534417D01*
X51127181Y-100427267D01*
X51061566Y-100389384D01*
X50995952Y-100351501D01*
X50922766Y-100331891D01*
X50849582Y-100312282D01*
X50698050Y-100312282D01*
X50551679Y-100351501D01*
X50420451Y-100427267D01*
X50420448Y-100427269D01*
X50313303Y-100534414D01*
X50313301Y-100534417D01*
X50237535Y-100665645D01*
X50231976Y-100686393D01*
X50198316Y-100812016D01*
X50198316Y-100963548D01*
X50205823Y-100991568D01*
X50204161Y-101061415D01*
X50164999Y-101119277D01*
X50100771Y-101146782D01*
X50086049Y-101147659D01*
X49927064Y-101147659D01*
X49897311Y-101153983D01*
X49757329Y-101183736D01*
X49757324Y-101183738D01*
X49598805Y-101254316D01*
X49598800Y-101254319D01*
X49458419Y-101356312D01*
X49458417Y-101356314D01*
X49342305Y-101485271D01*
X49255540Y-101635550D01*
X49201920Y-101800582D01*
X49201919Y-101800583D01*
X49200324Y-101815760D01*
X49173736Y-101880373D01*
X49144773Y-101905231D01*
X49145200Y-101905818D01*
X48999557Y-102011633D01*
X48999555Y-102011635D01*
X48883443Y-102140592D01*
X48796678Y-102290871D01*
X48743058Y-102455903D01*
X48743057Y-102455904D01*
X48741462Y-102471082D01*
X48714875Y-102535695D01*
X48685911Y-102560552D01*
X48686339Y-102561140D01*
X48540696Y-102666955D01*
X48540694Y-102666957D01*
X48424582Y-102795914D01*
X48337817Y-102946193D01*
X48289032Y-103096344D01*
X48284197Y-103111226D01*
X48266058Y-103283802D01*
X48284197Y-103456378D01*
X48284198Y-103456381D01*
X48333015Y-103606628D01*
X48335010Y-103676469D01*
X48298929Y-103736301D01*
X48236228Y-103767129D01*
X48215084Y-103768945D01*
X48091619Y-103768945D01*
X48061866Y-103775269D01*
X47921884Y-103805022D01*
X47921879Y-103805024D01*
X47763360Y-103875602D01*
X47763355Y-103875605D01*
X47633071Y-103970263D01*
X47567265Y-103993743D01*
X47560186Y-103993945D01*
X47411903Y-103993945D01*
X47259175Y-104034868D01*
X47232393Y-104050331D01*
X47187091Y-104076486D01*
X47122245Y-104113924D01*
X47122242Y-104113926D01*
X44169479Y-107066689D01*
X44157564Y-107087328D01*
X44145481Y-107108257D01*
X44090423Y-107203620D01*
X44049499Y-107356348D01*
X44049499Y-107356350D01*
X44049499Y-107524451D01*
X44049500Y-107524464D01*
X44049500Y-108588330D01*
X44049499Y-108588348D01*
X44049499Y-108754054D01*
X44049498Y-108754054D01*
X36587546Y-108754054D01*
X39149931Y-105120869D01*
X41368055Y-105120869D01*
X41402261Y-105314855D01*
X41402261Y-105314857D01*
X41473654Y-105498447D01*
X41579496Y-105664582D01*
X41715705Y-105806869D01*
X41715713Y-105806876D01*
X41919261Y-105949402D01*
X41919262Y-105949401D01*
X42349444Y-105335037D01*
X42759019Y-105621825D01*
X42328838Y-106236189D01*
X42532392Y-106378720D01*
X42712682Y-106458050D01*
X42712692Y-106458053D01*
X42905006Y-106500688D01*
X43101945Y-106504985D01*
X43295930Y-106470779D01*
X43295932Y-106470779D01*
X43479524Y-106399385D01*
X43479526Y-106399384D01*
X43645653Y-106293549D01*
X43676359Y-106264153D01*
X43676359Y-106264152D01*
X42922630Y-105736386D01*
X43019728Y-105757913D01*
X43117673Y-105740642D01*
X43201553Y-105687204D01*
X43258599Y-105605735D01*
X43280126Y-105508636D01*
X43262855Y-105410691D01*
X43209417Y-105326810D01*
X43963147Y-105854576D01*
X43980265Y-105815674D01*
X43980267Y-105815668D01*
X44022901Y-105623357D01*
X44027198Y-105426417D01*
X43992993Y-105232431D01*
X43921598Y-105048838D01*
X43815763Y-104882713D01*
X43679543Y-104740416D01*
X43475989Y-104597886D01*
X43045807Y-105212248D01*
X42636232Y-104925461D01*
X42636233Y-104925461D01*
X43066415Y-104311097D01*
X42862861Y-104168567D01*
X42682571Y-104089237D01*
X42682561Y-104089234D01*
X42490247Y-104046599D01*
X42293309Y-104042302D01*
X42099323Y-104076508D01*
X42099321Y-104076508D01*
X41915731Y-104147902D01*
X41749602Y-104253739D01*
X41718894Y-104283134D01*
X41718893Y-104283134D01*
X42472624Y-104810901D01*
X42375527Y-104789375D01*
X42277582Y-104806646D01*
X42193701Y-104860084D01*
X42136655Y-104941554D01*
X42115128Y-105038652D01*
X42132399Y-105136597D01*
X42185835Y-105220475D01*
X41432106Y-104692709D01*
X41414988Y-104731611D01*
X41414987Y-104731617D01*
X41372352Y-104923931D01*
X41368055Y-105120869D01*
X39149931Y-105120869D01*
X42634483Y-100180151D01*
X51550248Y-100180151D01*
X51550248Y-100180152D01*
X52385671Y-100765121D01*
X52385672Y-100765121D01*
X52815853Y-100150758D01*
X52815852Y-100150757D01*
X52694220Y-100065588D01*
X52694216Y-100065586D01*
X52513924Y-99986255D01*
X52513914Y-99986252D01*
X52321600Y-99943617D01*
X52124661Y-99939320D01*
X51930676Y-99973526D01*
X51930674Y-99973526D01*
X51747086Y-100044920D01*
X51580959Y-100150754D01*
X51580948Y-100150762D01*
X51550248Y-100180151D01*
X42634483Y-100180151D01*
X44349458Y-97748501D01*
X46530243Y-97748501D01*
X46564449Y-97942487D01*
X46564449Y-97942489D01*
X46635842Y-98126079D01*
X46741684Y-98292214D01*
X46877893Y-98434501D01*
X46877901Y-98434508D01*
X47081449Y-98577034D01*
X47081450Y-98577033D01*
X47511632Y-97962669D01*
X47921207Y-98249457D01*
X47491026Y-98863821D01*
X47694580Y-99006352D01*
X47874870Y-99085682D01*
X47874880Y-99085685D01*
X48067194Y-99128320D01*
X48264133Y-99132617D01*
X48458118Y-99098411D01*
X48458120Y-99098411D01*
X48641712Y-99027017D01*
X48641714Y-99027016D01*
X48807841Y-98921181D01*
X48838547Y-98891785D01*
X48838547Y-98891784D01*
X48457537Y-98624998D01*
X74494437Y-98624998D01*
X74494437Y-98625001D01*
X74514650Y-98856044D01*
X74514651Y-98856051D01*
X74574678Y-99080074D01*
X74574679Y-99080076D01*
X74574680Y-99080079D01*
X74672699Y-99290282D01*
X74805730Y-99480269D01*
X74969731Y-99644270D01*
X75159718Y-99777301D01*
X75369921Y-99875320D01*
X75593950Y-99935349D01*
X75758985Y-99949787D01*
X75824998Y-99955563D01*
X75825000Y-99955563D01*
X75825002Y-99955563D01*
X75888586Y-99950000D01*
X76056050Y-99935349D01*
X76280079Y-99875320D01*
X76490282Y-99777301D01*
X76680269Y-99644270D01*
X76836032Y-99488506D01*
X76897352Y-99455024D01*
X76967043Y-99460008D01*
X77022977Y-99501879D01*
X77042086Y-99550430D01*
X77044620Y-99549832D01*
X77046403Y-99557379D01*
X77096645Y-99692086D01*
X77096649Y-99692093D01*
X77182809Y-99807187D01*
X77182812Y-99807190D01*
X77297906Y-99893350D01*
X77297913Y-99893354D01*
X77432620Y-99943596D01*
X77432627Y-99943598D01*
X77492155Y-99949999D01*
X77492172Y-99950000D01*
X78115000Y-99950000D01*
X78115000Y-99115747D01*
X78152708Y-99137518D01*
X78292591Y-99175000D01*
X78437409Y-99175000D01*
X78577292Y-99137518D01*
X78615000Y-99115747D01*
X78615000Y-99950000D01*
X79237828Y-99950000D01*
X79237844Y-99949999D01*
X79297372Y-99943598D01*
X79297379Y-99943596D01*
X79432086Y-99893354D01*
X79432093Y-99893350D01*
X79547187Y-99807190D01*
X79547190Y-99807187D01*
X79633350Y-99692093D01*
X79633354Y-99692086D01*
X79683596Y-99557379D01*
X79683598Y-99557372D01*
X79689999Y-99497844D01*
X79690000Y-99497827D01*
X79690000Y-98875000D01*
X78855748Y-98875000D01*
X78877518Y-98837292D01*
X78915000Y-98697409D01*
X78915000Y-98569998D01*
X119574437Y-98569998D01*
X119574437Y-98570001D01*
X119594650Y-98801044D01*
X119594651Y-98801051D01*
X119654678Y-99025074D01*
X119654679Y-99025076D01*
X119654680Y-99025079D01*
X119752699Y-99235282D01*
X119885730Y-99425269D01*
X120049731Y-99589270D01*
X120239718Y-99722301D01*
X120449921Y-99820320D01*
X120673950Y-99880349D01*
X120822554Y-99893350D01*
X120904998Y-99900563D01*
X120905000Y-99900563D01*
X120905002Y-99900563D01*
X120968586Y-99895000D01*
X121136050Y-99880349D01*
X121360079Y-99820320D01*
X121570282Y-99722301D01*
X121760269Y-99589270D01*
X121916032Y-99433506D01*
X121977352Y-99400024D01*
X122047043Y-99405008D01*
X122102977Y-99446879D01*
X122122086Y-99495430D01*
X122124620Y-99494832D01*
X122126403Y-99502379D01*
X122176645Y-99637086D01*
X122176649Y-99637093D01*
X122262809Y-99752187D01*
X122262812Y-99752190D01*
X122377906Y-99838350D01*
X122377913Y-99838354D01*
X122512620Y-99888596D01*
X122512627Y-99888598D01*
X122572155Y-99894999D01*
X122572172Y-99895000D01*
X123195000Y-99895000D01*
X123195000Y-99060747D01*
X123232708Y-99082518D01*
X123372591Y-99120000D01*
X123517409Y-99120000D01*
X123657292Y-99082518D01*
X123695000Y-99060747D01*
X123695000Y-99895000D01*
X124317828Y-99895000D01*
X124317844Y-99894999D01*
X124377372Y-99888598D01*
X124377379Y-99888596D01*
X124512086Y-99838354D01*
X124512093Y-99838350D01*
X124627187Y-99752190D01*
X124627190Y-99752187D01*
X124713350Y-99637093D01*
X124713354Y-99637086D01*
X124763596Y-99502379D01*
X124763598Y-99502372D01*
X124769999Y-99442844D01*
X124770000Y-99442827D01*
X124770000Y-98820000D01*
X123935748Y-98820000D01*
X123957518Y-98782292D01*
X123995000Y-98642409D01*
X123995000Y-98544998D01*
X164449437Y-98544998D01*
X164449437Y-98545001D01*
X164469650Y-98776044D01*
X164469651Y-98776051D01*
X164529678Y-99000074D01*
X164529679Y-99000076D01*
X164529680Y-99000079D01*
X164627699Y-99210282D01*
X164760730Y-99400269D01*
X164924731Y-99564270D01*
X165114718Y-99697301D01*
X165324921Y-99795320D01*
X165548950Y-99855349D01*
X165713985Y-99869787D01*
X165779998Y-99875563D01*
X165780000Y-99875563D01*
X165780002Y-99875563D01*
X165843586Y-99870000D01*
X166011050Y-99855349D01*
X166235079Y-99795320D01*
X166445282Y-99697301D01*
X166635269Y-99564270D01*
X166791032Y-99408506D01*
X166852352Y-99375024D01*
X166922043Y-99380008D01*
X166977977Y-99421879D01*
X166997086Y-99470430D01*
X166999620Y-99469832D01*
X167001403Y-99477379D01*
X167051645Y-99612086D01*
X167051649Y-99612093D01*
X167137809Y-99727187D01*
X167137812Y-99727190D01*
X167252906Y-99813350D01*
X167252913Y-99813354D01*
X167387620Y-99863596D01*
X167387627Y-99863598D01*
X167447155Y-99869999D01*
X167447172Y-99870000D01*
X168070000Y-99870000D01*
X168070000Y-99035747D01*
X168107708Y-99057518D01*
X168247591Y-99095000D01*
X168392409Y-99095000D01*
X168532292Y-99057518D01*
X168570000Y-99035747D01*
X168570000Y-99870000D01*
X169192828Y-99870000D01*
X169192844Y-99869999D01*
X169252372Y-99863598D01*
X169252379Y-99863596D01*
X169387086Y-99813354D01*
X169387093Y-99813350D01*
X169502187Y-99727190D01*
X169502190Y-99727187D01*
X169588350Y-99612093D01*
X169588354Y-99612086D01*
X169638596Y-99477379D01*
X169638598Y-99477372D01*
X169644999Y-99417844D01*
X169645000Y-99417827D01*
X169645000Y-98795000D01*
X168810748Y-98795000D01*
X168832518Y-98757292D01*
X168870000Y-98617409D01*
X168870000Y-98519998D01*
X209249437Y-98519998D01*
X209249437Y-98520001D01*
X209269650Y-98751044D01*
X209269651Y-98751051D01*
X209329678Y-98975074D01*
X209329679Y-98975076D01*
X209329680Y-98975079D01*
X209427699Y-99185282D01*
X209560730Y-99375269D01*
X209724731Y-99539270D01*
X209914718Y-99672301D01*
X210124921Y-99770320D01*
X210348950Y-99830349D01*
X210513985Y-99844787D01*
X210579998Y-99850563D01*
X210580000Y-99850563D01*
X210580002Y-99850563D01*
X210643586Y-99845000D01*
X210811050Y-99830349D01*
X211035079Y-99770320D01*
X211245282Y-99672301D01*
X211435269Y-99539270D01*
X211591032Y-99383506D01*
X211652352Y-99350024D01*
X211722043Y-99355008D01*
X211777977Y-99396879D01*
X211797086Y-99445430D01*
X211799620Y-99444832D01*
X211801403Y-99452379D01*
X211851645Y-99587086D01*
X211851649Y-99587093D01*
X211937809Y-99702187D01*
X211937812Y-99702190D01*
X212052906Y-99788350D01*
X212052913Y-99788354D01*
X212187620Y-99838596D01*
X212187627Y-99838598D01*
X212247155Y-99844999D01*
X212247172Y-99845000D01*
X212870000Y-99845000D01*
X212870000Y-99010747D01*
X212907708Y-99032518D01*
X213047591Y-99070000D01*
X213192409Y-99070000D01*
X213332292Y-99032518D01*
X213370000Y-99010747D01*
X213370000Y-99845000D01*
X213992828Y-99845000D01*
X213992844Y-99844999D01*
X214039343Y-99839999D01*
X245819341Y-99839999D01*
X245819341Y-99840000D01*
X245839936Y-100075403D01*
X245839938Y-100075413D01*
X245901094Y-100303655D01*
X245901096Y-100303659D01*
X245901097Y-100303663D01*
X246000965Y-100517830D01*
X246000967Y-100517834D01*
X246064658Y-100608793D01*
X246136505Y-100711401D01*
X246303599Y-100878495D01*
X246385255Y-100935671D01*
X246497165Y-101014032D01*
X246497167Y-101014033D01*
X246497170Y-101014035D01*
X246711337Y-101113903D01*
X246939592Y-101175063D01*
X247127918Y-101191539D01*
X247174999Y-101195659D01*
X247175000Y-101195659D01*
X247175001Y-101195659D01*
X247214234Y-101192226D01*
X247410408Y-101175063D01*
X247638663Y-101113903D01*
X247852830Y-101014035D01*
X248046401Y-100878495D01*
X248213495Y-100711401D01*
X248349035Y-100517830D01*
X248448903Y-100303663D01*
X248510063Y-100075408D01*
X248530659Y-99840000D01*
X248510063Y-99604592D01*
X248456585Y-99405008D01*
X248448905Y-99376344D01*
X248448904Y-99376343D01*
X248448903Y-99376337D01*
X248349035Y-99162171D01*
X248328341Y-99132617D01*
X248213496Y-98968600D01*
X248152604Y-98907708D01*
X248091567Y-98846671D01*
X248058084Y-98785351D01*
X248063068Y-98715659D01*
X248097249Y-98669998D01*
X249194437Y-98669998D01*
X249194437Y-98670001D01*
X249214650Y-98901044D01*
X249214651Y-98901051D01*
X249274678Y-99125074D01*
X249274679Y-99125076D01*
X249274680Y-99125079D01*
X249372699Y-99335282D01*
X249505730Y-99525269D01*
X249669731Y-99689270D01*
X249859718Y-99822301D01*
X250069921Y-99920320D01*
X250293950Y-99980349D01*
X250458985Y-99994787D01*
X250524998Y-100000563D01*
X250525000Y-100000563D01*
X250525002Y-100000563D01*
X250588586Y-99995000D01*
X250756050Y-99980349D01*
X250980079Y-99920320D01*
X251190282Y-99822301D01*
X251380269Y-99689270D01*
X251536032Y-99533506D01*
X251597352Y-99500024D01*
X251667043Y-99505008D01*
X251722977Y-99546879D01*
X251742086Y-99595430D01*
X251744620Y-99594832D01*
X251746403Y-99602379D01*
X251796645Y-99737086D01*
X251796649Y-99737093D01*
X251882809Y-99852187D01*
X251882812Y-99852190D01*
X251997906Y-99938350D01*
X251997913Y-99938354D01*
X252132620Y-99988596D01*
X252132627Y-99988598D01*
X252192155Y-99994999D01*
X252192172Y-99995000D01*
X252815000Y-99995000D01*
X252815000Y-99160747D01*
X252852708Y-99182518D01*
X252992591Y-99220000D01*
X253137409Y-99220000D01*
X253277292Y-99182518D01*
X253315000Y-99160747D01*
X253315000Y-99995000D01*
X253937828Y-99995000D01*
X253937844Y-99994999D01*
X253997372Y-99988598D01*
X253997379Y-99988596D01*
X254132086Y-99938354D01*
X254132093Y-99938350D01*
X254247187Y-99852190D01*
X254247190Y-99852187D01*
X254333350Y-99737093D01*
X254333354Y-99737086D01*
X254383596Y-99602379D01*
X254383598Y-99602372D01*
X254389999Y-99542844D01*
X254390000Y-99542827D01*
X254390000Y-98920000D01*
X253555748Y-98920000D01*
X253577518Y-98882292D01*
X253615000Y-98742409D01*
X253615000Y-98597591D01*
X253577518Y-98457708D01*
X253555748Y-98420000D01*
X254390000Y-98420000D01*
X254390000Y-97797172D01*
X254389999Y-97797155D01*
X254383598Y-97737627D01*
X254383596Y-97737620D01*
X254333354Y-97602913D01*
X254333350Y-97602906D01*
X254247190Y-97487812D01*
X254247187Y-97487809D01*
X254132093Y-97401649D01*
X254132086Y-97401645D01*
X253997379Y-97351403D01*
X253997372Y-97351401D01*
X253937844Y-97345000D01*
X253315000Y-97345000D01*
X253315000Y-98179252D01*
X253277292Y-98157482D01*
X253137409Y-98120000D01*
X252992591Y-98120000D01*
X252852708Y-98157482D01*
X252815000Y-98179252D01*
X252815000Y-97345000D01*
X252192155Y-97345000D01*
X252132627Y-97351401D01*
X252132620Y-97351403D01*
X251997913Y-97401645D01*
X251997906Y-97401649D01*
X251882812Y-97487809D01*
X251882809Y-97487812D01*
X251796649Y-97602906D01*
X251796645Y-97602913D01*
X251746403Y-97737620D01*
X251744620Y-97745168D01*
X251741849Y-97744513D01*
X251720239Y-97796643D01*
X251662835Y-97836475D01*
X251593009Y-97838948D01*
X251536029Y-97806490D01*
X251380269Y-97650730D01*
X251336622Y-97620168D01*
X251190282Y-97517699D01*
X250980079Y-97419680D01*
X250980076Y-97419679D01*
X250980074Y-97419678D01*
X250756051Y-97359651D01*
X250756044Y-97359650D01*
X250525002Y-97339437D01*
X250524998Y-97339437D01*
X250293955Y-97359650D01*
X250293948Y-97359651D01*
X250069917Y-97419681D01*
X249859718Y-97517699D01*
X249859714Y-97517701D01*
X249669735Y-97650726D01*
X249669729Y-97650731D01*
X249505731Y-97814729D01*
X249505726Y-97814735D01*
X249372701Y-98004714D01*
X249372699Y-98004718D01*
X249274681Y-98214917D01*
X249214651Y-98438948D01*
X249214650Y-98438955D01*
X249194437Y-98669998D01*
X248097249Y-98669998D01*
X248104939Y-98659725D01*
X248135915Y-98642810D01*
X248267331Y-98593796D01*
X248382546Y-98507546D01*
X248468796Y-98392331D01*
X248519091Y-98257483D01*
X248525500Y-98197873D01*
X248525499Y-96402128D01*
X248519091Y-96342517D01*
X248468796Y-96207669D01*
X248468795Y-96207668D01*
X248468793Y-96207664D01*
X248382547Y-96092455D01*
X248382544Y-96092452D01*
X248267335Y-96006206D01*
X248267328Y-96006202D01*
X248132482Y-95955908D01*
X248132483Y-95955908D01*
X248072883Y-95949501D01*
X248072881Y-95949500D01*
X248072873Y-95949500D01*
X248072864Y-95949500D01*
X246277129Y-95949500D01*
X246277123Y-95949501D01*
X246217516Y-95955908D01*
X246082671Y-96006202D01*
X246082664Y-96006206D01*
X245967455Y-96092452D01*
X245967452Y-96092455D01*
X245881206Y-96207664D01*
X245881202Y-96207671D01*
X245830908Y-96342517D01*
X245824501Y-96402116D01*
X245824501Y-96402123D01*
X245824500Y-96402135D01*
X245824500Y-98197870D01*
X245824501Y-98197876D01*
X245830908Y-98257483D01*
X245881202Y-98392328D01*
X245881206Y-98392335D01*
X245967452Y-98507544D01*
X245967455Y-98507547D01*
X246082664Y-98593793D01*
X246082671Y-98593797D01*
X246214081Y-98642810D01*
X246270015Y-98684681D01*
X246294432Y-98750145D01*
X246279580Y-98818418D01*
X246258430Y-98846673D01*
X246136503Y-98968600D01*
X246000965Y-99162169D01*
X246000964Y-99162171D01*
X245901098Y-99376335D01*
X245901094Y-99376344D01*
X245839938Y-99604586D01*
X245839936Y-99604596D01*
X245819341Y-99839999D01*
X214039343Y-99839999D01*
X214052372Y-99838598D01*
X214052379Y-99838596D01*
X214187086Y-99788354D01*
X214187093Y-99788350D01*
X214302187Y-99702190D01*
X214302190Y-99702187D01*
X214388350Y-99587093D01*
X214388354Y-99587086D01*
X214438596Y-99452379D01*
X214438598Y-99452372D01*
X214444999Y-99392844D01*
X214445000Y-99392827D01*
X214445000Y-98770000D01*
X213610748Y-98770000D01*
X213632518Y-98732292D01*
X213670000Y-98592409D01*
X213670000Y-98447591D01*
X213632518Y-98307708D01*
X213610748Y-98270000D01*
X214445000Y-98270000D01*
X214445000Y-97647172D01*
X214444999Y-97647155D01*
X214438598Y-97587627D01*
X214438596Y-97587620D01*
X214388354Y-97452913D01*
X214388350Y-97452906D01*
X214302190Y-97337812D01*
X214302187Y-97337809D01*
X214187093Y-97251649D01*
X214187086Y-97251645D01*
X214052379Y-97201403D01*
X214052372Y-97201401D01*
X213992844Y-97195000D01*
X213370000Y-97195000D01*
X213370000Y-98029252D01*
X213332292Y-98007482D01*
X213192409Y-97970000D01*
X213047591Y-97970000D01*
X212907708Y-98007482D01*
X212870000Y-98029252D01*
X212870000Y-97195000D01*
X212247155Y-97195000D01*
X212187627Y-97201401D01*
X212187620Y-97201403D01*
X212052913Y-97251645D01*
X212052906Y-97251649D01*
X211937812Y-97337809D01*
X211937809Y-97337812D01*
X211851649Y-97452906D01*
X211851645Y-97452913D01*
X211801403Y-97587620D01*
X211799620Y-97595168D01*
X211796849Y-97594513D01*
X211775239Y-97646643D01*
X211717835Y-97686475D01*
X211648009Y-97688948D01*
X211591029Y-97656490D01*
X211435269Y-97500730D01*
X211402673Y-97477906D01*
X211245282Y-97367699D01*
X211035079Y-97269680D01*
X211035076Y-97269679D01*
X211035074Y-97269678D01*
X210811051Y-97209651D01*
X210811044Y-97209650D01*
X210580002Y-97189437D01*
X210579998Y-97189437D01*
X210348955Y-97209650D01*
X210348948Y-97209651D01*
X210124917Y-97269681D01*
X209914718Y-97367699D01*
X209914714Y-97367701D01*
X209724735Y-97500726D01*
X209724729Y-97500731D01*
X209560731Y-97664729D01*
X209560726Y-97664735D01*
X209427701Y-97854714D01*
X209427699Y-97854718D01*
X209329681Y-98064917D01*
X209269651Y-98288948D01*
X209269650Y-98288955D01*
X209249437Y-98519998D01*
X168870000Y-98519998D01*
X168870000Y-98472591D01*
X168832518Y-98332708D01*
X168810748Y-98295000D01*
X169645000Y-98295000D01*
X169645000Y-97672172D01*
X169644999Y-97672155D01*
X169638598Y-97612627D01*
X169638596Y-97612620D01*
X169588354Y-97477913D01*
X169588350Y-97477906D01*
X169502190Y-97362812D01*
X169502187Y-97362809D01*
X169387093Y-97276649D01*
X169387086Y-97276645D01*
X169252379Y-97226403D01*
X169252372Y-97226401D01*
X169192844Y-97220000D01*
X168570000Y-97220000D01*
X168570000Y-98054252D01*
X168532292Y-98032482D01*
X168392409Y-97995000D01*
X168247591Y-97995000D01*
X168107708Y-98032482D01*
X168070000Y-98054252D01*
X168070000Y-97220000D01*
X167447155Y-97220000D01*
X167387627Y-97226401D01*
X167387620Y-97226403D01*
X167252913Y-97276645D01*
X167252906Y-97276649D01*
X167137812Y-97362809D01*
X167137809Y-97362812D01*
X167051649Y-97477906D01*
X167051645Y-97477913D01*
X167001403Y-97612620D01*
X166999620Y-97620168D01*
X166996849Y-97619513D01*
X166975239Y-97671643D01*
X166917835Y-97711475D01*
X166848009Y-97713948D01*
X166791029Y-97681490D01*
X166635269Y-97525730D01*
X166599560Y-97500726D01*
X166445282Y-97392699D01*
X166235079Y-97294680D01*
X166235076Y-97294679D01*
X166235074Y-97294678D01*
X166011051Y-97234651D01*
X166011044Y-97234650D01*
X165780002Y-97214437D01*
X165779998Y-97214437D01*
X165548955Y-97234650D01*
X165548948Y-97234651D01*
X165324917Y-97294681D01*
X165114718Y-97392699D01*
X165114714Y-97392701D01*
X164924735Y-97525726D01*
X164924729Y-97525731D01*
X164760731Y-97689729D01*
X164760726Y-97689735D01*
X164627701Y-97879714D01*
X164627699Y-97879718D01*
X164529681Y-98089917D01*
X164469651Y-98313948D01*
X164469650Y-98313955D01*
X164449437Y-98544998D01*
X123995000Y-98544998D01*
X123995000Y-98497591D01*
X123957518Y-98357708D01*
X123935748Y-98320000D01*
X124770000Y-98320000D01*
X124770000Y-97697172D01*
X124769999Y-97697155D01*
X124763598Y-97637627D01*
X124763596Y-97637620D01*
X124713354Y-97502913D01*
X124713350Y-97502906D01*
X124627190Y-97387812D01*
X124627187Y-97387809D01*
X124512093Y-97301649D01*
X124512086Y-97301645D01*
X124377379Y-97251403D01*
X124377372Y-97251401D01*
X124317844Y-97245000D01*
X123695000Y-97245000D01*
X123695000Y-98079252D01*
X123657292Y-98057482D01*
X123517409Y-98020000D01*
X123372591Y-98020000D01*
X123232708Y-98057482D01*
X123195000Y-98079252D01*
X123195000Y-97245000D01*
X122572155Y-97245000D01*
X122512627Y-97251401D01*
X122512620Y-97251403D01*
X122377913Y-97301645D01*
X122377906Y-97301649D01*
X122262812Y-97387809D01*
X122262809Y-97387812D01*
X122176649Y-97502906D01*
X122176645Y-97502913D01*
X122126403Y-97637620D01*
X122124620Y-97645168D01*
X122121849Y-97644513D01*
X122100239Y-97696643D01*
X122042835Y-97736475D01*
X121973009Y-97738948D01*
X121916029Y-97706490D01*
X121760269Y-97550730D01*
X121713096Y-97517699D01*
X121570282Y-97417699D01*
X121360079Y-97319680D01*
X121360076Y-97319679D01*
X121360074Y-97319678D01*
X121136051Y-97259651D01*
X121136044Y-97259650D01*
X120905002Y-97239437D01*
X120904998Y-97239437D01*
X120673955Y-97259650D01*
X120673948Y-97259651D01*
X120449917Y-97319681D01*
X120239718Y-97417699D01*
X120239714Y-97417701D01*
X120049735Y-97550726D01*
X120049729Y-97550731D01*
X119885731Y-97714729D01*
X119885726Y-97714735D01*
X119752701Y-97904714D01*
X119752699Y-97904718D01*
X119654681Y-98114917D01*
X119594651Y-98338948D01*
X119594650Y-98338955D01*
X119574437Y-98569998D01*
X78915000Y-98569998D01*
X78915000Y-98552591D01*
X78877518Y-98412708D01*
X78855748Y-98375000D01*
X79690000Y-98375000D01*
X79690000Y-97752172D01*
X79689999Y-97752155D01*
X79683598Y-97692627D01*
X79683596Y-97692620D01*
X79633354Y-97557913D01*
X79633350Y-97557906D01*
X79547190Y-97442812D01*
X79547187Y-97442809D01*
X79432093Y-97356649D01*
X79432086Y-97356645D01*
X79297379Y-97306403D01*
X79297372Y-97306401D01*
X79237844Y-97300000D01*
X78615000Y-97300000D01*
X78615000Y-98134252D01*
X78577292Y-98112482D01*
X78437409Y-98075000D01*
X78292591Y-98075000D01*
X78152708Y-98112482D01*
X78115000Y-98134252D01*
X78115000Y-97300000D01*
X77492155Y-97300000D01*
X77432627Y-97306401D01*
X77432620Y-97306403D01*
X77297913Y-97356645D01*
X77297906Y-97356649D01*
X77182812Y-97442809D01*
X77182809Y-97442812D01*
X77096649Y-97557906D01*
X77096645Y-97557913D01*
X77046403Y-97692620D01*
X77044620Y-97700168D01*
X77041849Y-97699513D01*
X77020239Y-97751643D01*
X76962835Y-97791475D01*
X76893009Y-97793948D01*
X76836029Y-97761490D01*
X76680269Y-97605730D01*
X76665185Y-97595168D01*
X76490282Y-97472699D01*
X76280079Y-97374680D01*
X76280076Y-97374679D01*
X76280074Y-97374678D01*
X76056051Y-97314651D01*
X76056044Y-97314650D01*
X75825002Y-97294437D01*
X75824998Y-97294437D01*
X75593955Y-97314650D01*
X75593948Y-97314651D01*
X75369917Y-97374681D01*
X75159718Y-97472699D01*
X75159714Y-97472701D01*
X74969735Y-97605726D01*
X74969729Y-97605731D01*
X74805731Y-97769729D01*
X74805726Y-97769735D01*
X74672701Y-97959714D01*
X74672699Y-97959718D01*
X74574681Y-98169917D01*
X74514651Y-98393948D01*
X74514650Y-98393955D01*
X74494437Y-98624998D01*
X48457537Y-98624998D01*
X48084818Y-98364018D01*
X48181916Y-98385545D01*
X48279861Y-98368274D01*
X48363741Y-98314836D01*
X48420787Y-98233367D01*
X48442314Y-98136268D01*
X48425043Y-98038323D01*
X48371605Y-97954442D01*
X49125335Y-98482208D01*
X49142453Y-98443306D01*
X49142455Y-98443300D01*
X49185089Y-98250989D01*
X49189386Y-98054049D01*
X49155181Y-97860063D01*
X49083786Y-97676470D01*
X48977951Y-97510345D01*
X48841731Y-97368048D01*
X48638177Y-97225518D01*
X48207995Y-97839880D01*
X47798420Y-97553093D01*
X47798421Y-97553093D01*
X48228603Y-96938729D01*
X48025049Y-96796199D01*
X47844759Y-96716869D01*
X47844749Y-96716866D01*
X47652435Y-96674231D01*
X47455497Y-96669934D01*
X47261511Y-96704140D01*
X47261509Y-96704140D01*
X47077919Y-96775534D01*
X46911790Y-96881371D01*
X46881082Y-96910766D01*
X46881081Y-96910766D01*
X47634812Y-97438533D01*
X47537715Y-97417007D01*
X47439770Y-97434278D01*
X47355889Y-97487716D01*
X47298843Y-97569186D01*
X47277316Y-97666284D01*
X47294587Y-97764229D01*
X47348023Y-97848107D01*
X46594294Y-97320341D01*
X46577176Y-97359243D01*
X46577175Y-97359249D01*
X46534541Y-97551559D01*
X46534540Y-97551562D01*
X46530243Y-97748501D01*
X44349458Y-97748501D01*
X45862941Y-95602545D01*
X45917663Y-95559107D01*
X45964297Y-95550014D01*
X269013286Y-95599947D01*
G37*
%TD.AperFunction*%
%TD*%
M02*
