%TF.GenerationSoftware,KiCad,Pcbnew,8.0.6*%
%TF.CreationDate,2024-12-23T11:57:32+01:00*%
%TF.ProjectId,MMBCloneProMax,4d4d4243-6c6f-46e6-9550-726f4d61782e,rev?*%
%TF.SameCoordinates,Original*%
%TF.FileFunction,Paste,Top*%
%TF.FilePolarity,Positive*%
%FSLAX46Y46*%
G04 Gerber Fmt 4.6, Leading zero omitted, Abs format (unit mm)*
G04 Created by KiCad (PCBNEW 8.0.6) date 2024-12-23 11:57:32*
%MOMM*%
%LPD*%
G01*
G04 APERTURE LIST*
G04 Aperture macros list*
%AMRoundRect*
0 Rectangle with rounded corners*
0 $1 Rounding radius*
0 $2 $3 $4 $5 $6 $7 $8 $9 X,Y pos of 4 corners*
0 Add a 4 corners polygon primitive as box body*
4,1,4,$2,$3,$4,$5,$6,$7,$8,$9,$2,$3,0*
0 Add four circle primitives for the rounded corners*
1,1,$1+$1,$2,$3*
1,1,$1+$1,$4,$5*
1,1,$1+$1,$6,$7*
1,1,$1+$1,$8,$9*
0 Add four rect primitives between the rounded corners*
20,1,$1+$1,$2,$3,$4,$5,0*
20,1,$1+$1,$4,$5,$6,$7,0*
20,1,$1+$1,$6,$7,$8,$9,0*
20,1,$1+$1,$8,$9,$2,$3,0*%
%AMRotRect*
0 Rectangle, with rotation*
0 The origin of the aperture is its center*
0 $1 length*
0 $2 width*
0 $3 Rotation angle, in degrees counterclockwise*
0 Add horizontal line*
21,1,$1,$2,0,0,$3*%
G04 Aperture macros list end*
%ADD10RoundRect,0.225000X0.225000X0.250000X-0.225000X0.250000X-0.225000X-0.250000X0.225000X-0.250000X0*%
%ADD11RoundRect,0.225000X-0.225000X-0.250000X0.225000X-0.250000X0.225000X0.250000X-0.225000X0.250000X0*%
%ADD12RoundRect,0.218750X-0.218750X-0.256250X0.218750X-0.256250X0.218750X0.256250X-0.218750X0.256250X0*%
%ADD13RoundRect,0.150000X0.512500X0.150000X-0.512500X0.150000X-0.512500X-0.150000X0.512500X-0.150000X0*%
%ADD14RoundRect,0.150000X-0.150000X0.512500X-0.150000X-0.512500X0.150000X-0.512500X0.150000X0.512500X0*%
%ADD15RoundRect,0.225000X-0.250000X0.225000X-0.250000X-0.225000X0.250000X-0.225000X0.250000X0.225000X0*%
%ADD16RoundRect,0.200000X0.200000X0.275000X-0.200000X0.275000X-0.200000X-0.275000X0.200000X-0.275000X0*%
%ADD17RoundRect,0.225000X0.250000X-0.225000X0.250000X0.225000X-0.250000X0.225000X-0.250000X-0.225000X0*%
%ADD18RoundRect,0.218750X0.218750X0.256250X-0.218750X0.256250X-0.218750X-0.256250X0.218750X-0.256250X0*%
%ADD19RotRect,0.800000X0.800000X145.000000*%
%ADD20RotRect,1.200000X2.750000X55.000000*%
%ADD21RoundRect,0.200000X-0.200000X-0.275000X0.200000X-0.275000X0.200000X0.275000X-0.200000X0.275000X0*%
%ADD22RotRect,0.350000X0.700000X235.000000*%
%ADD23RoundRect,0.150000X-0.512500X-0.150000X0.512500X-0.150000X0.512500X0.150000X-0.512500X0.150000X0*%
%ADD24RotRect,0.800000X0.800000X325.000000*%
%ADD25RotRect,1.200000X2.750000X235.000000*%
%ADD26RoundRect,0.135000X0.216697X0.074110X-0.004474X0.228976X-0.216697X-0.074110X0.004474X-0.228976X0*%
%ADD27RoundRect,0.218750X0.256250X-0.218750X0.256250X0.218750X-0.256250X0.218750X-0.256250X-0.218750X0*%
%ADD28RoundRect,0.200000X0.275000X-0.200000X0.275000X0.200000X-0.275000X0.200000X-0.275000X-0.200000X0*%
%ADD29RoundRect,0.250000X-0.041128X-1.191977X1.106025X0.446327X0.041128X1.191977X-1.106025X-0.446327X0*%
G04 APERTURE END LIST*
D10*
%TO.C,C7*%
X102294999Y-112445000D03*
X100744999Y-112445000D03*
%TD*%
D11*
%TO.C,C2*%
X121280000Y-107820000D03*
X122830000Y-107820000D03*
%TD*%
D12*
%TO.C,D2*%
X71887500Y-99550000D03*
X73462500Y-99550000D03*
%TD*%
D11*
%TO.C,C3*%
X166155000Y-107795000D03*
X167705000Y-107795000D03*
%TD*%
D13*
%TO.C,U10*%
X239962499Y-115950000D03*
X239962499Y-115000000D03*
X239962499Y-114050000D03*
X237687499Y-114050000D03*
X237687499Y-115950000D03*
%TD*%
%TO.C,U8*%
X150432499Y-115995000D03*
X150432499Y-115045000D03*
X150432499Y-114095000D03*
X148157499Y-114095000D03*
X148157499Y-115995000D03*
%TD*%
D14*
%TO.C,U5*%
X239012500Y-103687500D03*
X238062500Y-103687500D03*
X237112500Y-103687500D03*
X237112500Y-105962500D03*
X239012500Y-105962500D03*
%TD*%
D11*
%TO.C,C1*%
X76200000Y-107875000D03*
X77750000Y-107875000D03*
%TD*%
D12*
%TO.C,D5*%
X161842500Y-99470000D03*
X163417500Y-99470000D03*
%TD*%
D10*
%TO.C,C10*%
X237049999Y-112325000D03*
X235499999Y-112325000D03*
%TD*%
D15*
%TO.C,R21*%
X190599999Y-114075000D03*
X190599999Y-115625000D03*
%TD*%
D16*
%TO.C,R8*%
X163455000Y-101020000D03*
X161805000Y-101020000D03*
%TD*%
D17*
%TO.C,R7*%
X123155000Y-105645000D03*
X123155000Y-104095000D03*
%TD*%
D18*
%TO.C,D12*%
X241387500Y-120475000D03*
X239812500Y-120475000D03*
%TD*%
D19*
%TO.C,J2*%
X254212208Y-107493820D03*
X254940650Y-106453497D03*
X255669091Y-105413173D03*
X253171885Y-106765378D03*
X253900327Y-105725054D03*
X254628769Y-104684731D03*
D20*
X256397279Y-112087967D03*
X260733517Y-105895178D03*
X252424392Y-109306121D03*
X256760630Y-103113332D03*
%TD*%
D21*
%TO.C,R14*%
X60175000Y-118875000D03*
X61825000Y-118875000D03*
%TD*%
D13*
%TO.C,U7*%
X105207499Y-116070000D03*
X105207499Y-115120000D03*
X105207499Y-114170000D03*
X102932499Y-114170000D03*
X102932499Y-116070000D03*
%TD*%
D18*
%TO.C,D11*%
X196437500Y-120425000D03*
X194862500Y-120425000D03*
%TD*%
D16*
%TO.C,R6*%
X118580000Y-101045000D03*
X116930000Y-101045000D03*
%TD*%
D22*
%TO.C,J1*%
X51697245Y-102724629D03*
X51410456Y-103134205D03*
X51123668Y-103543781D03*
X50836880Y-103953357D03*
X50550092Y-104362933D03*
X50263303Y-104772509D03*
X49976515Y-105182085D03*
X49689727Y-105591661D03*
X49402939Y-106001237D03*
X49116151Y-106410813D03*
X48829362Y-106820389D03*
X48542574Y-107229965D03*
%TD*%
D18*
%TO.C,D9*%
X106632500Y-120595000D03*
X105057500Y-120595000D03*
%TD*%
D23*
%TO.C,U3*%
X163692500Y-104107500D03*
X163692500Y-105057500D03*
X163692500Y-106007500D03*
X165967500Y-106007500D03*
X165967500Y-104107500D03*
%TD*%
D17*
%TO.C,R4*%
X78075000Y-105700000D03*
X78075000Y-104150000D03*
%TD*%
D23*
%TO.C,U2*%
X118817500Y-104132500D03*
X118817500Y-105082500D03*
X118817500Y-106032500D03*
X121092500Y-106032500D03*
X121092500Y-104132500D03*
%TD*%
D13*
%TO.C,U9*%
X195012499Y-115900000D03*
X195012499Y-114950000D03*
X195012499Y-114000000D03*
X192737499Y-114000000D03*
X192737499Y-115900000D03*
%TD*%
D17*
%TO.C,R11*%
X212830000Y-105595000D03*
X212830000Y-104045000D03*
%TD*%
D16*
%TO.C,R3*%
X73500000Y-101100000D03*
X71850000Y-101100000D03*
%TD*%
D24*
%TO.C,J3*%
X39318116Y-114855646D03*
X40046558Y-113815323D03*
X40775000Y-112775000D03*
X40358439Y-115584088D03*
X41086881Y-114543765D03*
X41815323Y-113503442D03*
D25*
X34253691Y-114373642D03*
X38589929Y-108180852D03*
X38226578Y-117155487D03*
X42562816Y-110962698D03*
%TD*%
D15*
%TO.C,R17*%
X100794999Y-114245000D03*
X100794999Y-115795000D03*
%TD*%
D26*
%TO.C,R1*%
X52842768Y-106092524D03*
X52007232Y-105507476D03*
%TD*%
D27*
%TO.C,D3*%
X43525000Y-123212500D03*
X43525000Y-121637500D03*
%TD*%
D21*
%TO.C,R18*%
X150220000Y-118945000D03*
X151870000Y-118945000D03*
%TD*%
D12*
%TO.C,D6*%
X206642500Y-99445000D03*
X208217500Y-99445000D03*
%TD*%
D10*
%TO.C,C9*%
X192099999Y-112275000D03*
X190549999Y-112275000D03*
%TD*%
D15*
%TO.C,R15*%
X55975000Y-114100000D03*
X55975000Y-115650000D03*
%TD*%
D21*
%TO.C,R12*%
X238225000Y-101850000D03*
X239875000Y-101850000D03*
%TD*%
D12*
%TO.C,D4*%
X116967500Y-99495000D03*
X118542500Y-99495000D03*
%TD*%
D15*
%TO.C,R23*%
X235549999Y-114125000D03*
X235549999Y-115675000D03*
%TD*%
D11*
%TO.C,C4*%
X210955000Y-107770000D03*
X212505000Y-107770000D03*
%TD*%
D23*
%TO.C,U1*%
X73737500Y-104187500D03*
X73737500Y-105137500D03*
X73737500Y-106087500D03*
X76012500Y-106087500D03*
X76012500Y-104187500D03*
%TD*%
D27*
%TO.C,D7*%
X241500000Y-100212500D03*
X241500000Y-98637500D03*
%TD*%
D10*
%TO.C,C6*%
X57475000Y-112300000D03*
X55925000Y-112300000D03*
%TD*%
D21*
%TO.C,R22*%
X239750000Y-118900000D03*
X241400000Y-118900000D03*
%TD*%
D28*
%TO.C,R5*%
X43550000Y-120100000D03*
X43550000Y-118450000D03*
%TD*%
D13*
%TO.C,U6*%
X60387500Y-115925000D03*
X60387500Y-114975000D03*
X60387500Y-114025000D03*
X58112500Y-114025000D03*
X58112500Y-115925000D03*
%TD*%
D21*
%TO.C,R16*%
X104995000Y-119020000D03*
X106645000Y-119020000D03*
%TD*%
%TO.C,R20*%
X194800000Y-118850000D03*
X196450000Y-118850000D03*
%TD*%
D26*
%TO.C,R2*%
X52242768Y-106917524D03*
X51407232Y-106332476D03*
%TD*%
D23*
%TO.C,U4*%
X208492500Y-104082500D03*
X208492500Y-105032500D03*
X208492500Y-105982500D03*
X210767500Y-105982500D03*
X210767500Y-104082500D03*
%TD*%
D15*
%TO.C,R19*%
X146019999Y-114170000D03*
X146019999Y-115720000D03*
%TD*%
D18*
%TO.C,D10*%
X151857500Y-120520000D03*
X150282500Y-120520000D03*
%TD*%
D10*
%TO.C,C5*%
X237100000Y-107800000D03*
X235550000Y-107800000D03*
%TD*%
D17*
%TO.C,R9*%
X168030000Y-105620000D03*
X168030000Y-104070000D03*
%TD*%
D18*
%TO.C,D8*%
X61812500Y-120450000D03*
X60237500Y-120450000D03*
%TD*%
D29*
%TO.C,D1*%
X54502847Y-104288304D03*
X56797153Y-101011696D03*
%TD*%
D10*
%TO.C,C8*%
X147519999Y-112370000D03*
X145969999Y-112370000D03*
%TD*%
D16*
%TO.C,R10*%
X208255000Y-100995000D03*
X206605000Y-100995000D03*
%TD*%
D10*
%TO.C,R13*%
X242250000Y-105975000D03*
X240700000Y-105975000D03*
%TD*%
M02*
