M48
; DRILL file {KiCad 8.0.8-8.0.8-0~ubuntu22.04.1} date 2025-02-05T10:08:17+0100
; FORMAT={-:-/ absolute / inch / decimal}
; #@! TF.CreationDate,2025-02-05T10:08:17+01:00
; #@! TF.GenerationSoftware,Kicad,Pcbnew,8.0.8-8.0.8-0~ubuntu22.04.1
; #@! TF.FileFunction,Plated,1,2,PTH
FMAT,2
INCH
; #@! TA.AperFunction,Plated,PTH,ViaDrill
T1C0.0079
; #@! TA.AperFunction,Plated,PTH,ViaDrill
T2C0.0118
; #@! TA.AperFunction,Plated,PTH,ComponentDrill
T3C0.0157
; #@! TA.AperFunction,Plated,PTH,ComponentDrill
T4C0.0197
; #@! TA.AperFunction,Plated,PTH,ComponentDrill
T5C0.0394
; #@! TA.AperFunction,Plated,PTH,ComponentDrill
T6C0.0433
%
G90
G05
T1
X1.999Y-4.1722
T2
X1.123Y-4.8494
X1.3533Y-4.6555
X1.3632Y-4.8445
X1.8022Y-4.8435
X1.8031Y-4.6506
X1.9921Y-4.6496
X1.998Y-3.8022
X2.1299Y-4.2402
X2.2008Y-4.4567
X2.2667Y-3.81
X2.3898Y-4.0276
X2.3898Y-4.1801
X2.3937Y-3.876
X2.4498Y-4.5423
X2.4498Y-4.6201
X2.5069Y-3.812
X2.8248Y-4.1152
X2.8258Y-4.0276
X2.8317Y-4.6378
X2.8317Y-4.8573
X3.0669Y-4.2047
X3.1014Y-4.8612
X3.1053Y-4.6398
X3.1122Y-4.4331
X3.3071Y-3.9843
X3.314Y-4.2244
X3.4055Y-4.4331
X3.4124Y-4.6467
X3.4124Y-4.8543
X3.5965Y-3.8041
X3.5965Y-4.0118
X3.6033Y-4.2254
X3.6949Y-4.4341
X3.7018Y-4.6742
X3.8967Y-4.2254
X3.9035Y-4.0187
X3.9075Y-3.7972
X3.9685Y-4.4606
X4.1772Y-3.8012
X4.1772Y-4.0207
X4.1772Y-4.2254
X4.2144Y-4.548
X4.2144Y-4.6258
X4.5965Y-4.4331
X4.5965Y-4.6378
X4.5965Y-4.8573
X4.5996Y-4.113
X4.6006Y-4.0254
X4.8425Y-4.2008
X4.8661Y-4.8612
X4.8701Y-4.6398
X4.877Y-4.4331
X5.0689Y-4.003
X5.0758Y-4.2431
X5.1703Y-4.4331
X5.1772Y-4.6467
X5.1772Y-4.8543
X5.3583Y-3.8228
X5.3583Y-4.0305
X5.3652Y-4.2441
X5.4596Y-4.4341
X5.4665Y-4.6742
X5.6585Y-4.2441
X5.6654Y-4.0374
X5.6693Y-3.8159
X5.748Y-4.4606
X5.939Y-3.8199
X5.939Y-4.0394
X5.939Y-4.2441
X5.9949Y-4.5451
X5.9949Y-4.6228
X6.3652Y-4.4331
X6.3652Y-4.6378
X6.3652Y-4.8573
X6.3663Y-4.112
X6.3673Y-4.0244
X6.6102Y-4.2008
X6.6348Y-4.8612
X6.6388Y-4.6398
X6.6457Y-4.4331
X6.8396Y-3.9921
X6.8465Y-4.2323
X6.939Y-4.4331
X6.9459Y-4.6467
X6.9459Y-4.8543
X7.1289Y-3.812
X7.1289Y-4.0197
X7.1358Y-4.2333
X7.2283Y-4.4341
X7.2352Y-4.6742
X7.4291Y-4.2333
X7.436Y-4.0266
X7.44Y-3.8051
X7.5039Y-4.4567
X7.7096Y-3.8091
X7.7096Y-4.0285
X7.7096Y-4.2333
X7.748Y-4.4213
X7.75Y-4.5413
X7.75Y-4.6191
X8.1301Y-4.111
X8.1311Y-4.0234
X8.1427Y-4.4331
X8.1427Y-4.6378
X8.1427Y-4.8573
X8.374Y-4.2008
X8.4124Y-4.8612
X8.4163Y-4.6398
X8.4232Y-4.4331
X8.5679Y-4.0
X8.5827Y-4.2382
X8.7165Y-4.4331
X8.7234Y-4.6467
X8.7234Y-4.8543
X8.8573Y-3.8199
X8.8573Y-4.0276
X8.8642Y-4.2411
X9.0128Y-4.6742
X9.1644Y-4.0344
X9.1683Y-3.813
X9.2717Y-4.4567
X9.4528Y-4.2402
X9.5197Y-4.5433
X9.5197Y-4.6211
X9.5787Y-4.0787
X9.7707Y-4.8415
X9.9124Y-4.5709
X10.1122Y-3.9488
X10.1211Y-3.815
X10.3002Y-4.0758
X10.3051Y-3.9449
X10.3071Y-3.8159
X10.503Y-3.8071
T3
X1.8607Y-4.1695
X1.8686Y-4.2063
X1.8787Y-4.1437
X1.8968Y-4.1179
X1.9103Y-4.1466
X1.9284Y-4.1208
X1.9329Y-4.0663
X1.9465Y-4.095
X1.951Y-4.0405
X1.9645Y-4.0692
X1.969Y-4.0147
X2.0063Y-4.0095
T5
X2.5276Y-4.4715
X2.5276Y-4.5715
X2.7274Y-4.0772
X2.7274Y-4.1772
X4.2921Y-4.4772
X4.2921Y-4.5772
X4.5022Y-4.075
X4.5022Y-4.175
X6.0726Y-4.4742
X6.0726Y-4.5742
X6.2689Y-4.074
X6.2689Y-4.174
X7.8278Y-4.4705
X7.8278Y-4.5705
X8.0327Y-4.073
X8.0327Y-4.173
X9.5974Y-4.4724
X9.5974Y-4.5724
X9.7313Y-3.8307
X9.7313Y-3.9307
T6
X2.1754Y-4.7748
X2.2754Y-4.7748
X2.9852Y-3.8829
X3.0852Y-3.8829
X3.94Y-4.7805
X4.04Y-4.7805
X4.76Y-3.8807
X4.86Y-3.8807
X5.7205Y-4.7776
X5.8205Y-4.7776
X6.5268Y-3.8797
X6.6268Y-3.8797
X7.4756Y-4.7738
X7.5756Y-4.7738
X8.2906Y-3.8787
X8.3906Y-3.8787
X9.2453Y-4.7758
X9.3453Y-4.7758
X9.8632Y-3.8846
X9.9632Y-3.8846
T4
G00X1.6939Y-4.1537
M15
G01X1.6681Y-4.1356
M16
G05
G00X1.8713Y-4.2779
M15
G01X1.8519Y-4.2643
M16
G05
G00X1.8971Y-3.8634
M15
G01X1.8713Y-3.8453
M16
G05
G00X2.0745Y-3.9876
M15
G01X2.0552Y-3.9741
M16
G05
M30
